%TF.GenerationSoftware,KiCad,Pcbnew,7.0.8*%
%TF.CreationDate,2024-07-17T12:42:57-03:00*%
%TF.ProjectId,left,6c656674-2e6b-4696-9361-645f70636258,v1.0.0*%
%TF.SameCoordinates,Original*%
%TF.FileFunction,Paste,Bot*%
%TF.FilePolarity,Positive*%
%FSLAX46Y46*%
G04 Gerber Fmt 4.6, Leading zero omitted, Abs format (unit mm)*
G04 Created by KiCad (PCBNEW 7.0.8) date 2024-07-17 12:42:57*
%MOMM*%
%LPD*%
G01*
G04 APERTURE LIST*
%ADD10R,0.900000X0.900000*%
%ADD11R,1.250000X0.900000*%
%ADD12R,2.600000X2.600000*%
%ADD13R,1.200000X0.900000*%
%ADD14R,1.000000X1.550000*%
G04 APERTURE END LIST*
D10*
%TO.C,T1*%
X203650000Y-96050000D03*
X201450000Y-96050000D03*
X203650000Y-103450000D03*
X201450000Y-103450000D03*
D11*
X200475000Y-97500000D03*
X200475000Y-100500000D03*
X200475000Y-102000000D03*
%TD*%
D12*
%TO.C,S21*%
X178275000Y-149950000D03*
X166725000Y-147750000D03*
%TD*%
%TO.C,S26*%
X197025000Y-152950000D03*
X185475000Y-150750000D03*
%TD*%
D13*
%TO.C,D19*%
X182800000Y-95900000D03*
X182800000Y-92600000D03*
%TD*%
D12*
%TO.C,S6*%
X122025000Y-155950000D03*
X110475000Y-153750000D03*
%TD*%
D13*
%TO.C,D23*%
X201550000Y-81150000D03*
X201550000Y-77850000D03*
%TD*%
%TO.C,D20*%
X182800000Y-78150000D03*
X182800000Y-74850000D03*
%TD*%
%TO.C,D29*%
X164050000Y-144150000D03*
X164050000Y-140850000D03*
%TD*%
%TO.C,D12*%
X145300000Y-77150000D03*
X145300000Y-73850000D03*
%TD*%
D12*
%TO.C,S17*%
X159525000Y-126200000D03*
X147975000Y-124000000D03*
%TD*%
D13*
%TO.C,D25*%
X201550000Y-122650000D03*
X201550000Y-119350000D03*
%TD*%
D12*
%TO.C,S9*%
X122025000Y-102700000D03*
X110475000Y-100500000D03*
%TD*%
D13*
%TO.C,D17*%
X182800000Y-131400000D03*
X182800000Y-128100000D03*
%TD*%
D12*
%TO.C,S27*%
X197025000Y-135200000D03*
X185475000Y-133000000D03*
%TD*%
%TO.C,S5*%
X103275000Y-84950000D03*
X91725000Y-82750000D03*
%TD*%
%TO.C,S1*%
X103275000Y-155950000D03*
X91725000Y-153750000D03*
%TD*%
D13*
%TO.C,D24*%
X201550000Y-111400000D03*
X201550000Y-108100000D03*
%TD*%
D12*
%TO.C,S28*%
X197025000Y-117450000D03*
X185475000Y-115250000D03*
%TD*%
%TO.C,S19*%
X159525000Y-90700000D03*
X147975000Y-88500000D03*
%TD*%
D13*
%TO.C,D27*%
X107800000Y-77150000D03*
X107800000Y-73850000D03*
%TD*%
%TO.C,D9*%
X145300000Y-148150000D03*
X145300000Y-144850000D03*
%TD*%
%TO.C,D13*%
X164050000Y-125400000D03*
X164050000Y-122100000D03*
%TD*%
%TO.C,D14*%
X164050000Y-107650000D03*
X164050000Y-104350000D03*
%TD*%
D12*
%TO.C,S29*%
X197025000Y-99700000D03*
X185475000Y-97500000D03*
%TD*%
%TO.C,S7*%
X122025000Y-138200000D03*
X110475000Y-136000000D03*
%TD*%
%TO.C,S22*%
X178275000Y-132200000D03*
X166725000Y-130000000D03*
%TD*%
%TO.C,S4*%
X103275000Y-102700000D03*
X91725000Y-100500000D03*
%TD*%
D13*
%TO.C,D18*%
X182800000Y-113650000D03*
X182800000Y-110350000D03*
%TD*%
D12*
%TO.C,S20*%
X159525000Y-72950000D03*
X147975000Y-70750000D03*
%TD*%
%TO.C,S8*%
X122025000Y-120450000D03*
X110475000Y-118250000D03*
%TD*%
D13*
%TO.C,D6*%
X126550000Y-119650000D03*
X126550000Y-116350000D03*
%TD*%
D12*
%TO.C,S23*%
X178275000Y-114450000D03*
X166725000Y-112250000D03*
%TD*%
D13*
%TO.C,D2*%
X107800000Y-119650000D03*
X107800000Y-116350000D03*
%TD*%
%TO.C,D8*%
X126550000Y-84150000D03*
X126550000Y-80850000D03*
%TD*%
D12*
%TO.C,S12*%
X140775000Y-131200000D03*
X129225000Y-129000000D03*
%TD*%
D13*
%TO.C,D21*%
X201550000Y-152150000D03*
X201550000Y-148850000D03*
%TD*%
%TO.C,D3*%
X107800000Y-101900000D03*
X107800000Y-98600000D03*
%TD*%
D12*
%TO.C,S24*%
X178275000Y-96700000D03*
X166725000Y-94500000D03*
%TD*%
D13*
%TO.C,D30*%
X164050000Y-90900000D03*
X164050000Y-87600000D03*
%TD*%
D12*
%TO.C,S30*%
X197025000Y-81950000D03*
X185475000Y-79750000D03*
%TD*%
D13*
%TO.C,D10*%
X145300000Y-130400000D03*
X145300000Y-127100000D03*
%TD*%
%TO.C,D28*%
X145300000Y-105650000D03*
X145300000Y-102350000D03*
%TD*%
%TO.C,D5*%
X126550000Y-137400000D03*
X126550000Y-134100000D03*
%TD*%
D12*
%TO.C,S18*%
X159525000Y-108450000D03*
X147975000Y-106250000D03*
%TD*%
%TO.C,S13*%
X140775000Y-113450000D03*
X129225000Y-111250000D03*
%TD*%
D13*
%TO.C,D16*%
X182800000Y-149150000D03*
X182800000Y-145850000D03*
%TD*%
D12*
%TO.C,S10*%
X122025000Y-84950000D03*
X110475000Y-82750000D03*
%TD*%
D13*
%TO.C,D7*%
X126550000Y-101900000D03*
X126550000Y-98600000D03*
%TD*%
%TO.C,D11*%
X145300000Y-94900000D03*
X145300000Y-91600000D03*
%TD*%
D12*
%TO.C,S2*%
X103275000Y-138200000D03*
X91725000Y-136000000D03*
%TD*%
%TO.C,S14*%
X140775000Y-95700000D03*
X129225000Y-93500000D03*
%TD*%
D14*
%TO.C,B1*%
X203600000Y-88325000D03*
X203600000Y-93575000D03*
X201900000Y-88325000D03*
X201900000Y-93575000D03*
%TD*%
D13*
%TO.C,D26*%
X107800000Y-130400000D03*
X107800000Y-127100000D03*
%TD*%
D12*
%TO.C,S16*%
X159525000Y-143950000D03*
X147975000Y-141750000D03*
%TD*%
%TO.C,S3*%
X103275000Y-120450000D03*
X91725000Y-118250000D03*
%TD*%
D13*
%TO.C,D4*%
X126550000Y-155150000D03*
X126550000Y-151850000D03*
%TD*%
D12*
%TO.C,S15*%
X140775000Y-77950000D03*
X129225000Y-75750000D03*
%TD*%
D13*
%TO.C,D15*%
X164050000Y-72150000D03*
X164050000Y-68850000D03*
%TD*%
D12*
%TO.C,S25*%
X178275000Y-78950000D03*
X166725000Y-76750000D03*
%TD*%
D13*
%TO.C,D1*%
X107800000Y-155150000D03*
X107800000Y-151850000D03*
%TD*%
D12*
%TO.C,S11*%
X140775000Y-148950000D03*
X129225000Y-146750000D03*
%TD*%
D13*
%TO.C,D22*%
X201550000Y-134400000D03*
X201550000Y-131100000D03*
%TD*%
M02*
