%TF.GenerationSoftware,KiCad,Pcbnew,7.0.8*%
%TF.CreationDate,2024-07-17T12:42:57-03:00*%
%TF.ProjectId,left,6c656674-2e6b-4696-9361-645f70636258,v1.0.0*%
%TF.SameCoordinates,Original*%
%TF.FileFunction,Soldermask,Bot*%
%TF.FilePolarity,Negative*%
%FSLAX46Y46*%
G04 Gerber Fmt 4.6, Leading zero omitted, Abs format (unit mm)*
G04 Created by KiCad (PCBNEW 7.0.8) date 2024-07-17 12:42:57*
%MOMM*%
%LPD*%
G01*
G04 APERTURE LIST*
G04 Aperture macros list*
%AMRoundRect*
0 Rectangle with rounded corners*
0 $1 Rounding radius*
0 $2 $3 $4 $5 $6 $7 $8 $9 X,Y pos of 4 corners*
0 Add a 4 corners polygon primitive as box body*
4,1,4,$2,$3,$4,$5,$6,$7,$8,$9,$2,$3,0*
0 Add four circle primitives for the rounded corners*
1,1,$1+$1,$2,$3*
1,1,$1+$1,$4,$5*
1,1,$1+$1,$6,$7*
1,1,$1+$1,$8,$9*
0 Add four rect primitives between the rounded corners*
20,1,$1+$1,$2,$3,$4,$5,0*
20,1,$1+$1,$4,$5,$6,$7,0*
20,1,$1+$1,$6,$7,$8,$9,0*
20,1,$1+$1,$8,$9,$2,$3,0*%
G04 Aperture macros list end*
%ADD10RoundRect,0.050000X-0.450000X0.450000X-0.450000X-0.450000X0.450000X-0.450000X0.450000X0.450000X0*%
%ADD11C,1.100000*%
%ADD12RoundRect,0.050000X-0.625000X0.450000X-0.625000X-0.450000X0.625000X-0.450000X0.625000X0.450000X0*%
%ADD13C,1.801800*%
%ADD14C,3.100000*%
%ADD15C,3.529000*%
%ADD16RoundRect,0.050000X1.300000X1.300000X-1.300000X1.300000X-1.300000X-1.300000X1.300000X-1.300000X0*%
%ADD17RoundRect,0.050000X0.889000X-0.889000X0.889000X0.889000X-0.889000X0.889000X-0.889000X-0.889000X0*%
%ADD18RoundRect,0.050000X0.600000X-0.450000X0.600000X0.450000X-0.600000X0.450000X-0.600000X-0.450000X0*%
%ADD19C,2.005000*%
%ADD20C,4.100000*%
%ADD21RoundRect,0.050000X0.850000X-0.600000X0.850000X0.600000X-0.850000X0.600000X-0.850000X-0.600000X0*%
%ADD22O,1.800000X1.300000*%
%ADD23C,1.852600*%
%ADD24C,0.850000*%
%ADD25RoundRect,0.050000X-0.500000X0.775000X-0.500000X-0.775000X0.500000X-0.775000X0.500000X0.775000X0*%
G04 APERTURE END LIST*
D10*
%TO.C,T1*%
X203650000Y-96050000D03*
X201450000Y-96050000D03*
D11*
X202550000Y-98250000D03*
X202550000Y-101250000D03*
D10*
X203650000Y-103450000D03*
X201450000Y-103450000D03*
D12*
X200475000Y-97500000D03*
X200475000Y-100500000D03*
X200475000Y-102000000D03*
%TD*%
D13*
%TO.C,S21*%
X180500000Y-144000000D03*
D14*
X175000000Y-149950000D03*
D15*
X175000000Y-144000000D03*
D14*
X170000000Y-147750000D03*
D13*
X169500000Y-144000000D03*
D16*
X178275000Y-149950000D03*
X166725000Y-147750000D03*
%TD*%
D13*
%TO.C,S26*%
X199250000Y-147000000D03*
D14*
X193750000Y-152950000D03*
D15*
X193750000Y-147000000D03*
D14*
X188750000Y-150750000D03*
D13*
X188250000Y-147000000D03*
D16*
X197025000Y-152950000D03*
X185475000Y-150750000D03*
%TD*%
D17*
%TO.C,D19*%
X182800000Y-98060000D03*
D18*
X182800000Y-95900000D03*
X182800000Y-92600000D03*
D19*
X182800000Y-90440000D03*
%TD*%
D13*
%TO.C,S6*%
X124250000Y-150000000D03*
D14*
X118750000Y-155950000D03*
D15*
X118750000Y-150000000D03*
D14*
X113750000Y-153750000D03*
D13*
X113250000Y-150000000D03*
D16*
X122025000Y-155950000D03*
X110475000Y-153750000D03*
%TD*%
D20*
%TO.C,*%
X109000000Y-140750000D03*
%TD*%
%TO.C,*%
X147250000Y-111750000D03*
%TD*%
D17*
%TO.C,D23*%
X201550000Y-83310000D03*
D18*
X201550000Y-81150000D03*
X201550000Y-77850000D03*
D19*
X201550000Y-75690000D03*
%TD*%
D17*
%TO.C,D20*%
X182800000Y-80310000D03*
D18*
X182800000Y-78150000D03*
X182800000Y-74850000D03*
D19*
X182800000Y-72690000D03*
%TD*%
D17*
%TO.C,D29*%
X164050000Y-146310000D03*
D18*
X164050000Y-144150000D03*
X164050000Y-140850000D03*
D19*
X164050000Y-138690000D03*
%TD*%
D17*
%TO.C,D12*%
X145300000Y-79310000D03*
D18*
X145300000Y-77150000D03*
X145300000Y-73850000D03*
D19*
X145300000Y-71690000D03*
%TD*%
D13*
%TO.C,S17*%
X161750000Y-120250000D03*
D14*
X156250000Y-126200000D03*
D15*
X156250000Y-120250000D03*
D14*
X151250000Y-124000000D03*
D13*
X150750000Y-120250000D03*
D16*
X159525000Y-126200000D03*
X147975000Y-124000000D03*
%TD*%
D17*
%TO.C,D25*%
X201550000Y-124810000D03*
D18*
X201550000Y-122650000D03*
X201550000Y-119350000D03*
D19*
X201550000Y-117190000D03*
%TD*%
D13*
%TO.C,S9*%
X124250000Y-96750000D03*
D14*
X118750000Y-102700000D03*
D15*
X118750000Y-96750000D03*
D14*
X113750000Y-100500000D03*
D13*
X113250000Y-96750000D03*
D16*
X122025000Y-102700000D03*
X110475000Y-100500000D03*
%TD*%
D17*
%TO.C,D17*%
X182800000Y-133560000D03*
D18*
X182800000Y-131400000D03*
X182800000Y-128100000D03*
D19*
X182800000Y-125940000D03*
%TD*%
D13*
%TO.C,S27*%
X199250000Y-129250000D03*
D14*
X193750000Y-135200000D03*
D15*
X193750000Y-129250000D03*
D14*
X188750000Y-133000000D03*
D13*
X188250000Y-129250000D03*
D16*
X197025000Y-135200000D03*
X185475000Y-133000000D03*
%TD*%
D13*
%TO.C,S5*%
X105500000Y-79000000D03*
D14*
X100000000Y-84950000D03*
D15*
X100000000Y-79000000D03*
D14*
X95000000Y-82750000D03*
D13*
X94500000Y-79000000D03*
D16*
X103275000Y-84950000D03*
X91725000Y-82750000D03*
%TD*%
D20*
%TO.C,*%
X109750000Y-87500000D03*
%TD*%
D13*
%TO.C,S1*%
X105500000Y-150000000D03*
D14*
X100000000Y-155950000D03*
D15*
X100000000Y-150000000D03*
D14*
X95000000Y-153750000D03*
D13*
X94500000Y-150000000D03*
D16*
X103275000Y-155950000D03*
X91725000Y-153750000D03*
%TD*%
D17*
%TO.C,D24*%
X201550000Y-113560000D03*
D18*
X201550000Y-111400000D03*
X201550000Y-108100000D03*
D19*
X201550000Y-105940000D03*
%TD*%
D13*
%TO.C,S28*%
X199250000Y-111500000D03*
D14*
X193750000Y-117450000D03*
D15*
X193750000Y-111500000D03*
D14*
X188750000Y-115250000D03*
D13*
X188250000Y-111500000D03*
D16*
X197025000Y-117450000D03*
X185475000Y-115250000D03*
%TD*%
D13*
%TO.C,S19*%
X161750000Y-84750000D03*
D14*
X156250000Y-90700000D03*
D15*
X156250000Y-84750000D03*
D14*
X151250000Y-88500000D03*
D13*
X150750000Y-84750000D03*
D16*
X159525000Y-90700000D03*
X147975000Y-88500000D03*
%TD*%
D17*
%TO.C,D27*%
X107800000Y-79310000D03*
D18*
X107800000Y-77150000D03*
X107800000Y-73850000D03*
D19*
X107800000Y-71690000D03*
%TD*%
D17*
%TO.C,D9*%
X145300000Y-150310000D03*
D18*
X145300000Y-148150000D03*
X145300000Y-144850000D03*
D19*
X145300000Y-142690000D03*
%TD*%
D17*
%TO.C,D13*%
X164050000Y-127560000D03*
D18*
X164050000Y-125400000D03*
X164050000Y-122100000D03*
D19*
X164050000Y-119940000D03*
%TD*%
D17*
%TO.C,D14*%
X164050000Y-109810000D03*
D18*
X164050000Y-107650000D03*
X164050000Y-104350000D03*
D19*
X164050000Y-102190000D03*
%TD*%
D13*
%TO.C,S29*%
X199250000Y-93750000D03*
D14*
X193750000Y-99700000D03*
D15*
X193750000Y-93750000D03*
D14*
X188750000Y-97500000D03*
D13*
X188250000Y-93750000D03*
D16*
X197025000Y-99700000D03*
X185475000Y-97500000D03*
%TD*%
D13*
%TO.C,S7*%
X124250000Y-132250000D03*
D14*
X118750000Y-138200000D03*
D15*
X118750000Y-132250000D03*
D14*
X113750000Y-136000000D03*
D13*
X113250000Y-132250000D03*
D16*
X122025000Y-138200000D03*
X110475000Y-136000000D03*
%TD*%
D13*
%TO.C,S22*%
X180500000Y-126250000D03*
D14*
X175000000Y-132200000D03*
D15*
X175000000Y-126250000D03*
D14*
X170000000Y-130000000D03*
D13*
X169500000Y-126250000D03*
D16*
X178275000Y-132200000D03*
X166725000Y-130000000D03*
%TD*%
D13*
%TO.C,S4*%
X105500000Y-96750000D03*
D14*
X100000000Y-102700000D03*
D15*
X100000000Y-96750000D03*
D14*
X95000000Y-100500000D03*
D13*
X94500000Y-96750000D03*
D16*
X103275000Y-102700000D03*
X91725000Y-100500000D03*
%TD*%
D17*
%TO.C,D18*%
X182800000Y-115810000D03*
D18*
X182800000Y-113650000D03*
X182800000Y-110350000D03*
D19*
X182800000Y-108190000D03*
%TD*%
D13*
%TO.C,S20*%
X161750000Y-67000000D03*
D14*
X156250000Y-72950000D03*
D15*
X156250000Y-67000000D03*
D14*
X151250000Y-70750000D03*
D13*
X150750000Y-67000000D03*
D16*
X159525000Y-72950000D03*
X147975000Y-70750000D03*
%TD*%
D13*
%TO.C,S8*%
X124250000Y-114500000D03*
D14*
X118750000Y-120450000D03*
D15*
X118750000Y-114500000D03*
D14*
X113750000Y-118250000D03*
D13*
X113250000Y-114500000D03*
D16*
X122025000Y-120450000D03*
X110475000Y-118250000D03*
%TD*%
D17*
%TO.C,D6*%
X126550000Y-121810000D03*
D18*
X126550000Y-119650000D03*
X126550000Y-116350000D03*
D19*
X126550000Y-114190000D03*
%TD*%
D13*
%TO.C,S23*%
X180500000Y-108500000D03*
D14*
X175000000Y-114450000D03*
D15*
X175000000Y-108500000D03*
D14*
X170000000Y-112250000D03*
D13*
X169500000Y-108500000D03*
D16*
X178275000Y-114450000D03*
X166725000Y-112250000D03*
%TD*%
D17*
%TO.C,D2*%
X107800000Y-121810000D03*
D18*
X107800000Y-119650000D03*
X107800000Y-116350000D03*
D19*
X107800000Y-114190000D03*
%TD*%
D17*
%TO.C,D8*%
X126550000Y-86310000D03*
D18*
X126550000Y-84150000D03*
X126550000Y-80850000D03*
D19*
X126550000Y-78690000D03*
%TD*%
D13*
%TO.C,S12*%
X143000000Y-125250000D03*
D14*
X137500000Y-131200000D03*
D15*
X137500000Y-125250000D03*
D14*
X132500000Y-129000000D03*
D13*
X132000000Y-125250000D03*
D16*
X140775000Y-131200000D03*
X129225000Y-129000000D03*
%TD*%
D17*
%TO.C,D21*%
X201550000Y-154310000D03*
D18*
X201550000Y-152150000D03*
X201550000Y-148850000D03*
D19*
X201550000Y-146690000D03*
%TD*%
D17*
%TO.C,D3*%
X107800000Y-104060000D03*
D18*
X107800000Y-101900000D03*
X107800000Y-98600000D03*
D19*
X107800000Y-96440000D03*
%TD*%
D13*
%TO.C,S24*%
X180500000Y-90750000D03*
D14*
X175000000Y-96700000D03*
D15*
X175000000Y-90750000D03*
D14*
X170000000Y-94500000D03*
D13*
X169500000Y-90750000D03*
D16*
X178275000Y-96700000D03*
X166725000Y-94500000D03*
%TD*%
D17*
%TO.C,D30*%
X164050000Y-93060000D03*
D18*
X164050000Y-90900000D03*
X164050000Y-87600000D03*
D19*
X164050000Y-85440000D03*
%TD*%
D13*
%TO.C,S30*%
X199250000Y-76000000D03*
D14*
X193750000Y-81950000D03*
D15*
X193750000Y-76000000D03*
D14*
X188750000Y-79750000D03*
D13*
X188250000Y-76000000D03*
D16*
X197025000Y-81950000D03*
X185475000Y-79750000D03*
%TD*%
D17*
%TO.C,D10*%
X145300000Y-132560000D03*
D18*
X145300000Y-130400000D03*
X145300000Y-127100000D03*
D19*
X145300000Y-124940000D03*
%TD*%
D17*
%TO.C,D28*%
X145300000Y-107810000D03*
D18*
X145300000Y-105650000D03*
X145300000Y-102350000D03*
D19*
X145300000Y-100190000D03*
%TD*%
D17*
%TO.C,D5*%
X126550000Y-139560000D03*
D18*
X126550000Y-137400000D03*
X126550000Y-134100000D03*
D19*
X126550000Y-131940000D03*
%TD*%
D13*
%TO.C,S18*%
X161750000Y-102500000D03*
D14*
X156250000Y-108450000D03*
D15*
X156250000Y-102500000D03*
D14*
X151250000Y-106250000D03*
D13*
X150750000Y-102500000D03*
D16*
X159525000Y-108450000D03*
X147975000Y-106250000D03*
%TD*%
D13*
%TO.C,S13*%
X143000000Y-107500000D03*
D14*
X137500000Y-113450000D03*
D15*
X137500000Y-107500000D03*
D14*
X132500000Y-111250000D03*
D13*
X132000000Y-107500000D03*
D16*
X140775000Y-113450000D03*
X129225000Y-111250000D03*
%TD*%
D17*
%TO.C,D16*%
X182800000Y-151310000D03*
D18*
X182800000Y-149150000D03*
X182800000Y-145850000D03*
D19*
X182800000Y-143690000D03*
%TD*%
D21*
%TO.C,JST1*%
X149250000Y-98000000D03*
D22*
X149250000Y-96000000D03*
%TD*%
D13*
%TO.C,S10*%
X124250000Y-79000000D03*
D14*
X118750000Y-84950000D03*
D15*
X118750000Y-79000000D03*
D14*
X113750000Y-82750000D03*
D13*
X113250000Y-79000000D03*
D16*
X122025000Y-84950000D03*
X110475000Y-82750000D03*
%TD*%
D17*
%TO.C,D7*%
X126550000Y-104060000D03*
D18*
X126550000Y-101900000D03*
X126550000Y-98600000D03*
D19*
X126550000Y-96440000D03*
%TD*%
D17*
%TO.C,D11*%
X145300000Y-97060000D03*
D18*
X145300000Y-94900000D03*
X145300000Y-91600000D03*
D19*
X145300000Y-89440000D03*
%TD*%
D13*
%TO.C,S2*%
X105500000Y-132250000D03*
D14*
X100000000Y-138200000D03*
D15*
X100000000Y-132250000D03*
D14*
X95000000Y-136000000D03*
D13*
X94500000Y-132250000D03*
D16*
X103275000Y-138200000D03*
X91725000Y-136000000D03*
%TD*%
D13*
%TO.C,S14*%
X143000000Y-89750000D03*
D14*
X137500000Y-95700000D03*
D15*
X137500000Y-89750000D03*
D14*
X132500000Y-93500000D03*
D13*
X132000000Y-89750000D03*
D16*
X140775000Y-95700000D03*
X129225000Y-93500000D03*
%TD*%
D23*
%TO.C,MCU1*%
X198720000Y-69880000D03*
X196180000Y-69880000D03*
X193640000Y-69880000D03*
X191100000Y-69880000D03*
X188560000Y-69880000D03*
X186020000Y-69880000D03*
X183480000Y-69880000D03*
X180940000Y-69880000D03*
X178400000Y-69880000D03*
X175860000Y-69880000D03*
X173320000Y-69880000D03*
X170780000Y-69880000D03*
X170780000Y-85120000D03*
X173320000Y-85120000D03*
X175860000Y-85120000D03*
X178400000Y-85120000D03*
X180940000Y-85120000D03*
X183480000Y-85120000D03*
X186020000Y-85120000D03*
X188560000Y-85120000D03*
X191100000Y-85120000D03*
X193640000Y-85120000D03*
X196180000Y-85120000D03*
X198720000Y-85120000D03*
%TD*%
D24*
%TO.C,B1*%
X204125000Y-90950000D03*
X201375000Y-90950000D03*
D25*
X203600000Y-88325000D03*
X203600000Y-93575000D03*
X201900000Y-88325000D03*
X201900000Y-93575000D03*
%TD*%
D20*
%TO.C,*%
X166000000Y-82250000D03*
%TD*%
D17*
%TO.C,D26*%
X107800000Y-132560000D03*
D18*
X107800000Y-130400000D03*
X107800000Y-127100000D03*
D19*
X107800000Y-124940000D03*
%TD*%
D13*
%TO.C,S16*%
X161750000Y-138000000D03*
D14*
X156250000Y-143950000D03*
D15*
X156250000Y-138000000D03*
D14*
X151250000Y-141750000D03*
D13*
X150750000Y-138000000D03*
D16*
X159525000Y-143950000D03*
X147975000Y-141750000D03*
%TD*%
D13*
%TO.C,S3*%
X105500000Y-114500000D03*
D14*
X100000000Y-120450000D03*
D15*
X100000000Y-114500000D03*
D14*
X95000000Y-118250000D03*
D13*
X94500000Y-114500000D03*
D16*
X103275000Y-120450000D03*
X91725000Y-118250000D03*
%TD*%
D17*
%TO.C,D4*%
X126550000Y-157310000D03*
D18*
X126550000Y-155150000D03*
X126550000Y-151850000D03*
D19*
X126550000Y-149690000D03*
%TD*%
D13*
%TO.C,S15*%
X143000000Y-72000000D03*
D14*
X137500000Y-77950000D03*
D15*
X137500000Y-72000000D03*
D14*
X132500000Y-75750000D03*
D13*
X132000000Y-72000000D03*
D16*
X140775000Y-77950000D03*
X129225000Y-75750000D03*
%TD*%
D17*
%TO.C,D15*%
X164050000Y-74310000D03*
D18*
X164050000Y-72150000D03*
X164050000Y-68850000D03*
D19*
X164050000Y-66690000D03*
%TD*%
D13*
%TO.C,S25*%
X180500000Y-73000000D03*
D14*
X175000000Y-78950000D03*
D15*
X175000000Y-73000000D03*
D14*
X170000000Y-76750000D03*
D13*
X169500000Y-73000000D03*
D16*
X178275000Y-78950000D03*
X166725000Y-76750000D03*
%TD*%
D20*
%TO.C,*%
X166000000Y-135500000D03*
%TD*%
D17*
%TO.C,D1*%
X107800000Y-157310000D03*
D18*
X107800000Y-155150000D03*
X107800000Y-151850000D03*
D19*
X107800000Y-149690000D03*
%TD*%
D13*
%TO.C,S11*%
X143000000Y-143000000D03*
D14*
X137500000Y-148950000D03*
D15*
X137500000Y-143000000D03*
D14*
X132500000Y-146750000D03*
D13*
X132000000Y-143000000D03*
D16*
X140775000Y-148950000D03*
X129225000Y-146750000D03*
%TD*%
D17*
%TO.C,D22*%
X201550000Y-136560000D03*
D18*
X201550000Y-134400000D03*
X201550000Y-131100000D03*
D19*
X201550000Y-128940000D03*
%TD*%
M02*
