%TF.GenerationSoftware,KiCad,Pcbnew,7.0.8*%
%TF.CreationDate,2024-07-17T12:42:57-03:00*%
%TF.ProjectId,left,6c656674-2e6b-4696-9361-645f70636258,v1.0.0*%
%TF.SameCoordinates,Original*%
%TF.FileFunction,Copper,L1,Top*%
%TF.FilePolarity,Positive*%
%FSLAX46Y46*%
G04 Gerber Fmt 4.6, Leading zero omitted, Abs format (unit mm)*
G04 Created by KiCad (PCBNEW 7.0.8) date 2024-07-17 12:42:57*
%MOMM*%
%LPD*%
G01*
G04 APERTURE LIST*
%TA.AperFunction,WasherPad*%
%ADD10C,1.000000*%
%TD*%
%TA.AperFunction,ComponentPad*%
%ADD11R,1.778000X1.778000*%
%TD*%
%TA.AperFunction,SMDPad,CuDef*%
%ADD12R,1.200000X0.900000*%
%TD*%
%TA.AperFunction,ComponentPad*%
%ADD13C,1.905000*%
%TD*%
%TA.AperFunction,ComponentPad*%
%ADD14R,1.700000X1.200000*%
%TD*%
%TA.AperFunction,ComponentPad*%
%ADD15O,1.700000X1.200000*%
%TD*%
%TA.AperFunction,ComponentPad*%
%ADD16C,1.752600*%
%TD*%
%TA.AperFunction,ViaPad*%
%ADD17C,0.800000*%
%TD*%
%TA.AperFunction,Conductor*%
%ADD18C,0.250000*%
%TD*%
G04 APERTURE END LIST*
D10*
%TO.P,T1,*%
%TO.N,*%
X202550000Y-98250000D03*
X202550000Y-101250000D03*
%TD*%
D11*
%TO.P,D19,1*%
%TO.N,P029*%
X182800000Y-98060000D03*
D12*
X182800000Y-95900000D03*
%TO.P,D19,2*%
%TO.N,fifth_top*%
X182800000Y-92600000D03*
D13*
X182800000Y-90440000D03*
%TD*%
D11*
%TO.P,D23,1*%
%TO.N,P031*%
X201550000Y-83310000D03*
D12*
X201550000Y-81150000D03*
%TO.P,D23,2*%
%TO.N,sixth_num*%
X201550000Y-77850000D03*
D13*
X201550000Y-75690000D03*
%TD*%
D11*
%TO.P,D20,1*%
%TO.N,P031*%
X182800000Y-80310000D03*
D12*
X182800000Y-78150000D03*
%TO.P,D20,2*%
%TO.N,fifth_num*%
X182800000Y-74850000D03*
D13*
X182800000Y-72690000D03*
%TD*%
D11*
%TO.P,D29,1*%
%TO.N,P113*%
X164050000Y-146310000D03*
D12*
X164050000Y-144150000D03*
%TO.P,D29,2*%
%TO.N,fourth_mod*%
X164050000Y-140850000D03*
D13*
X164050000Y-138690000D03*
%TD*%
D11*
%TO.P,D12,1*%
%TO.N,P031*%
X145300000Y-79310000D03*
D12*
X145300000Y-77150000D03*
%TO.P,D12,2*%
%TO.N,third_num*%
X145300000Y-73850000D03*
D13*
X145300000Y-71690000D03*
%TD*%
D11*
%TO.P,D25,1*%
%TO.N,P002*%
X201550000Y-124810000D03*
D12*
X201550000Y-122650000D03*
%TO.P,D25,2*%
%TO.N,sixth_home*%
X201550000Y-119350000D03*
D13*
X201550000Y-117190000D03*
%TD*%
D11*
%TO.P,D17,1*%
%TO.N,P115*%
X182800000Y-133560000D03*
D12*
X182800000Y-131400000D03*
%TO.P,D17,2*%
%TO.N,fifth_bottom*%
X182800000Y-128100000D03*
D13*
X182800000Y-125940000D03*
%TD*%
D11*
%TO.P,D24,1*%
%TO.N,P029*%
X201550000Y-113560000D03*
D12*
X201550000Y-111400000D03*
%TO.P,D24,2*%
%TO.N,sixth_top*%
X201550000Y-108100000D03*
D13*
X201550000Y-105940000D03*
%TD*%
D11*
%TO.P,D27,1*%
%TO.N,P031*%
X107800000Y-79310000D03*
D12*
X107800000Y-77150000D03*
%TO.P,D27,2*%
%TO.N,first_num*%
X107800000Y-73850000D03*
D13*
X107800000Y-71690000D03*
%TD*%
D11*
%TO.P,D9,1*%
%TO.N,P113*%
X145300000Y-150310000D03*
D12*
X145300000Y-148150000D03*
%TO.P,D9,2*%
%TO.N,third_mod*%
X145300000Y-144850000D03*
D13*
X145300000Y-142690000D03*
%TD*%
D11*
%TO.P,D13,1*%
%TO.N,P115*%
X164050000Y-127560000D03*
D12*
X164050000Y-125400000D03*
%TO.P,D13,2*%
%TO.N,fourth_bottom*%
X164050000Y-122100000D03*
D13*
X164050000Y-119940000D03*
%TD*%
D11*
%TO.P,D14,1*%
%TO.N,P002*%
X164050000Y-109810000D03*
D12*
X164050000Y-107650000D03*
%TO.P,D14,2*%
%TO.N,fourth_home*%
X164050000Y-104350000D03*
D13*
X164050000Y-102190000D03*
%TD*%
D11*
%TO.P,D18,1*%
%TO.N,P002*%
X182800000Y-115810000D03*
D12*
X182800000Y-113650000D03*
%TO.P,D18,2*%
%TO.N,fifth_home*%
X182800000Y-110350000D03*
D13*
X182800000Y-108190000D03*
%TD*%
D11*
%TO.P,D6,1*%
%TO.N,P002*%
X126550000Y-121810000D03*
D12*
X126550000Y-119650000D03*
%TO.P,D6,2*%
%TO.N,second_home*%
X126550000Y-116350000D03*
D13*
X126550000Y-114190000D03*
%TD*%
D11*
%TO.P,D2,1*%
%TO.N,P002*%
X107800000Y-121810000D03*
D12*
X107800000Y-119650000D03*
%TO.P,D2,2*%
%TO.N,first_home*%
X107800000Y-116350000D03*
D13*
X107800000Y-114190000D03*
%TD*%
D11*
%TO.P,D8,1*%
%TO.N,P031*%
X126550000Y-86310000D03*
D12*
X126550000Y-84150000D03*
%TO.P,D8,2*%
%TO.N,second_num*%
X126550000Y-80850000D03*
D13*
X126550000Y-78690000D03*
%TD*%
D11*
%TO.P,D21,1*%
%TO.N,P113*%
X201550000Y-154310000D03*
D12*
X201550000Y-152150000D03*
%TO.P,D21,2*%
%TO.N,sixth_mod*%
X201550000Y-148850000D03*
D13*
X201550000Y-146690000D03*
%TD*%
D11*
%TO.P,D3,1*%
%TO.N,P029*%
X107800000Y-104060000D03*
D12*
X107800000Y-101900000D03*
%TO.P,D3,2*%
%TO.N,first_top*%
X107800000Y-98600000D03*
D13*
X107800000Y-96440000D03*
%TD*%
D11*
%TO.P,D30,1*%
%TO.N,P029*%
X164050000Y-93060000D03*
D12*
X164050000Y-90900000D03*
%TO.P,D30,2*%
%TO.N,fourth_top*%
X164050000Y-87600000D03*
D13*
X164050000Y-85440000D03*
%TD*%
D11*
%TO.P,D10,1*%
%TO.N,P115*%
X145300000Y-132560000D03*
D12*
X145300000Y-130400000D03*
%TO.P,D10,2*%
%TO.N,third_bottom*%
X145300000Y-127100000D03*
D13*
X145300000Y-124940000D03*
%TD*%
D11*
%TO.P,D28,1*%
%TO.N,P002*%
X145300000Y-107810000D03*
D12*
X145300000Y-105650000D03*
%TO.P,D28,2*%
%TO.N,third_home*%
X145300000Y-102350000D03*
D13*
X145300000Y-100190000D03*
%TD*%
D11*
%TO.P,D5,1*%
%TO.N,P115*%
X126550000Y-139560000D03*
D12*
X126550000Y-137400000D03*
%TO.P,D5,2*%
%TO.N,second_bottom*%
X126550000Y-134100000D03*
D13*
X126550000Y-131940000D03*
%TD*%
D11*
%TO.P,D16,1*%
%TO.N,P113*%
X182800000Y-151310000D03*
D12*
X182800000Y-149150000D03*
%TO.P,D16,2*%
%TO.N,fifth_mod*%
X182800000Y-145850000D03*
D13*
X182800000Y-143690000D03*
%TD*%
D14*
%TO.P,JST1,1*%
%TO.N,pos*%
X149250000Y-98000000D03*
D15*
%TO.P,JST1,2*%
%TO.N,GND*%
X149250000Y-96000000D03*
%TD*%
D11*
%TO.P,D7,1*%
%TO.N,P029*%
X126550000Y-104060000D03*
D12*
X126550000Y-101900000D03*
%TO.P,D7,2*%
%TO.N,second_top*%
X126550000Y-98600000D03*
D13*
X126550000Y-96440000D03*
%TD*%
D11*
%TO.P,D11,1*%
%TO.N,P029*%
X145300000Y-97060000D03*
D12*
X145300000Y-94900000D03*
%TO.P,D11,2*%
%TO.N,third_top*%
X145300000Y-91600000D03*
D13*
X145300000Y-89440000D03*
%TD*%
D16*
%TO.P,MCU1,1*%
%TO.N,P006*%
X198720000Y-69880000D03*
%TO.P,MCU1,2*%
%TO.N,P008*%
X196180000Y-69880000D03*
%TO.P,MCU1,3*%
%TO.N,GND*%
X193640000Y-69880000D03*
%TO.P,MCU1,4*%
X191100000Y-69880000D03*
%TO.P,MCU1,5*%
%TO.N,P017*%
X188560000Y-69880000D03*
%TO.P,MCU1,6*%
%TO.N,P020*%
X186020000Y-69880000D03*
%TO.P,MCU1,7*%
%TO.N,P022*%
X183480000Y-69880000D03*
%TO.P,MCU1,8*%
%TO.N,P024*%
X180940000Y-69880000D03*
%TO.P,MCU1,9*%
%TO.N,P100*%
X178400000Y-69880000D03*
%TO.P,MCU1,10*%
%TO.N,P011*%
X175860000Y-69880000D03*
%TO.P,MCU1,11*%
%TO.N,P104*%
X173320000Y-69880000D03*
%TO.P,MCU1,12*%
%TO.N,P106*%
X170780000Y-69880000D03*
%TO.P,MCU1,13*%
%TO.N,P009*%
X170780000Y-85120000D03*
%TO.P,MCU1,14*%
%TO.N,P010*%
X173320000Y-85120000D03*
%TO.P,MCU1,15*%
%TO.N,P111*%
X175860000Y-85120000D03*
%TO.P,MCU1,16*%
%TO.N,P113*%
X178400000Y-85120000D03*
%TO.P,MCU1,17*%
%TO.N,P115*%
X180940000Y-85120000D03*
%TO.P,MCU1,18*%
%TO.N,P002*%
X183480000Y-85120000D03*
%TO.P,MCU1,19*%
%TO.N,P029*%
X186020000Y-85120000D03*
%TO.P,MCU1,20*%
%TO.N,P031*%
X188560000Y-85120000D03*
%TO.P,MCU1,21*%
%TO.N,VCC*%
X191100000Y-85120000D03*
%TO.P,MCU1,22*%
%TO.N,RST*%
X193640000Y-85120000D03*
%TO.P,MCU1,23*%
%TO.N,GND*%
X196180000Y-85120000D03*
%TO.P,MCU1,24*%
%TO.N,RAW*%
X198720000Y-85120000D03*
%TD*%
D11*
%TO.P,D26,1*%
%TO.N,P115*%
X107800000Y-132560000D03*
D12*
X107800000Y-130400000D03*
%TO.P,D26,2*%
%TO.N,first_bottom*%
X107800000Y-127100000D03*
D13*
X107800000Y-124940000D03*
%TD*%
D11*
%TO.P,D4,1*%
%TO.N,P113*%
X126550000Y-157310000D03*
D12*
X126550000Y-155150000D03*
%TO.P,D4,2*%
%TO.N,second_mod*%
X126550000Y-151850000D03*
D13*
X126550000Y-149690000D03*
%TD*%
D11*
%TO.P,D15,1*%
%TO.N,P031*%
X164050000Y-74310000D03*
D12*
X164050000Y-72150000D03*
%TO.P,D15,2*%
%TO.N,fourth_num*%
X164050000Y-68850000D03*
D13*
X164050000Y-66690000D03*
%TD*%
D11*
%TO.P,D1,1*%
%TO.N,P113*%
X107800000Y-157310000D03*
D12*
X107800000Y-155150000D03*
%TO.P,D1,2*%
%TO.N,first_mod*%
X107800000Y-151850000D03*
D13*
X107800000Y-149690000D03*
%TD*%
D11*
%TO.P,D22,1*%
%TO.N,P115*%
X201550000Y-136560000D03*
D12*
X201550000Y-134400000D03*
%TO.P,D22,2*%
%TO.N,sixth_bottom*%
X201550000Y-131100000D03*
D13*
X201550000Y-128940000D03*
%TD*%
D17*
%TO.N,P011*%
X177600000Y-82400000D03*
X178200000Y-94400000D03*
X177400000Y-100000000D03*
X174400000Y-103000000D03*
%TO.N,P100*%
X159800000Y-80800000D03*
X161800000Y-89000000D03*
%TO.N,P024*%
X140600000Y-75200000D03*
X140600000Y-71200000D03*
%TO.N,P011*%
X178200000Y-76600000D03*
%TO.N,P017*%
X197200000Y-79200000D03*
X197000000Y-76600000D03*
%TO.N,P113*%
X189600000Y-87200000D03*
%TO.N,P002*%
X179600000Y-100200000D03*
%TO.N,GND*%
X199000000Y-87000000D03*
%TO.N,RST*%
X199200000Y-88325000D03*
%TO.N,pos*%
X196200000Y-96000000D03*
X199200000Y-96000000D03*
%TD*%
D18*
%TO.N,P031*%
X188560000Y-85120000D02*
X189880000Y-83800000D01*
X189880000Y-83800000D02*
X192948350Y-83800000D01*
X192948350Y-83800000D02*
X192973350Y-83825000D01*
X192973350Y-83825000D02*
X201035000Y-83825000D01*
X201035000Y-83825000D02*
X201550000Y-83310000D01*
%TO.N,P115*%
X198600000Y-109400000D02*
X190200000Y-101000000D01*
X202827500Y-111027500D02*
X201200000Y-109400000D01*
X201200000Y-109400000D02*
X198600000Y-109400000D01*
X201550000Y-136560000D02*
X202827500Y-135282500D01*
X190200000Y-101000000D02*
X190625000Y-100575000D01*
X190625000Y-100575000D02*
X190625000Y-89825000D01*
X202827500Y-135282500D02*
X202827500Y-111027500D01*
X190625000Y-89825000D02*
X187221300Y-86421300D01*
X187221300Y-86421300D02*
X187221300Y-84421300D01*
X187221300Y-84421300D02*
X186600000Y-83800000D01*
X186600000Y-83800000D02*
X182260000Y-83800000D01*
X182260000Y-83800000D02*
X180940000Y-85120000D01*
%TO.N,P011*%
X177198700Y-82801300D02*
X177600000Y-82400000D01*
X177198700Y-93398700D02*
X177198700Y-82801300D01*
X178200000Y-94400000D02*
X177198700Y-93398700D01*
X174400000Y-103000000D02*
X177400000Y-100000000D01*
%TO.N,P100*%
X159800000Y-87000000D02*
X159800000Y-80800000D01*
X161800000Y-89000000D02*
X159800000Y-87000000D01*
%TO.N,first_mod*%
X107800000Y-149690000D02*
X107800000Y-151850000D01*
%TO.N,first_bottom*%
X107800000Y-124940000D02*
X107800000Y-127100000D01*
%TO.N,first_home*%
X107800000Y-114190000D02*
X107800000Y-116350000D01*
%TO.N,first_top*%
X107800000Y-96440000D02*
X107800000Y-98600000D01*
%TO.N,first_num*%
X107800000Y-71690000D02*
X107800000Y-73850000D01*
%TO.N,second_mod*%
X126550000Y-151850000D02*
X126550000Y-149690000D01*
%TO.N,second_bottom*%
X126550000Y-131940000D02*
X126550000Y-134100000D01*
%TO.N,second_home*%
X126550000Y-114190000D02*
X126550000Y-116350000D01*
%TO.N,second_top*%
X126550000Y-96440000D02*
X126550000Y-98600000D01*
%TO.N,second_num*%
X126550000Y-78690000D02*
X126550000Y-80850000D01*
%TO.N,P024*%
X140600000Y-75200000D02*
X140600000Y-71200000D01*
%TO.N,third_mod*%
X145300000Y-142690000D02*
X145300000Y-144850000D01*
%TO.N,third_bottom*%
X145300000Y-124940000D02*
X145300000Y-127100000D01*
%TO.N,third_home*%
X145300000Y-100190000D02*
X145300000Y-102350000D01*
%TO.N,third_top*%
X145300000Y-89440000D02*
X145300000Y-91600000D01*
%TO.N,third_num*%
X145300000Y-71690000D02*
X145300000Y-73850000D01*
%TO.N,fourth_mod*%
X164050000Y-138690000D02*
X164050000Y-140850000D01*
%TO.N,fourth_bottom*%
X164050000Y-119940000D02*
X164050000Y-122100000D01*
%TO.N,fourth_home*%
X164050000Y-102190000D02*
X164050000Y-104350000D01*
%TO.N,fourth_top*%
X164050000Y-85440000D02*
X164050000Y-87600000D01*
%TO.N,fourth_num*%
X164050000Y-66690000D02*
X164050000Y-68850000D01*
%TO.N,P011*%
X178200000Y-72220000D02*
X175860000Y-69880000D01*
X178200000Y-76600000D02*
X178200000Y-72220000D01*
%TO.N,fifth_mod*%
X182800000Y-143690000D02*
X182800000Y-145850000D01*
%TO.N,fifth_bottom*%
X182800000Y-125940000D02*
X182800000Y-128100000D01*
%TO.N,fifth_home*%
X182800000Y-108190000D02*
X182800000Y-110350000D01*
%TO.N,fifth_top*%
X182800000Y-90440000D02*
X182800000Y-92600000D01*
%TO.N,fifth_num*%
X182800000Y-72690000D02*
X182800000Y-74850000D01*
%TO.N,P017*%
X197000000Y-79000000D02*
X197200000Y-79200000D01*
X197000000Y-76600000D02*
X197000000Y-79000000D01*
%TO.N,sixth_mod*%
X201550000Y-146690000D02*
X201550000Y-148850000D01*
%TO.N,sixth_bottom*%
X201550000Y-128940000D02*
X201550000Y-131100000D01*
%TO.N,sixth_home*%
X201550000Y-119350000D02*
X201550000Y-117190000D01*
%TO.N,sixth_top*%
X201550000Y-108100000D02*
X201550000Y-105940000D01*
%TO.N,sixth_num*%
X201550000Y-75690000D02*
X201550000Y-77850000D01*
%TO.N,P113*%
X144785000Y-150825000D02*
X133035000Y-150825000D01*
X201035000Y-154825000D02*
X186315000Y-154825000D01*
X191118198Y-101281802D02*
X191118198Y-88718198D01*
X191118198Y-88718198D02*
X189600000Y-87200000D01*
X108315000Y-157825000D02*
X107800000Y-157310000D01*
X203277500Y-110841104D02*
X201386396Y-108950000D01*
X164050000Y-146310000D02*
X149300000Y-146310000D01*
X201386396Y-108950000D02*
X198786396Y-108950000D01*
X145300000Y-150310000D02*
X145300000Y-148150000D01*
X201550000Y-154310000D02*
X201550000Y-152150000D01*
X182800000Y-151310000D02*
X182285000Y-151825000D01*
X203277500Y-152582500D02*
X203277500Y-110841104D01*
X133035000Y-150825000D02*
X126550000Y-157310000D01*
X201550000Y-154310000D02*
X203277500Y-152582500D01*
X126550000Y-157310000D02*
X126550000Y-155150000D01*
X198786396Y-108950000D02*
X191118198Y-101281802D01*
X164050000Y-146310000D02*
X164050000Y-144150000D01*
X182285000Y-151825000D02*
X169565000Y-151825000D01*
X126550000Y-157310000D02*
X126035000Y-157825000D01*
X126035000Y-157825000D02*
X108315000Y-157825000D01*
X201550000Y-154310000D02*
X201035000Y-154825000D01*
X186315000Y-154825000D02*
X182800000Y-151310000D01*
X169565000Y-151825000D02*
X164050000Y-146310000D01*
X107800000Y-157310000D02*
X107800000Y-155150000D01*
X149300000Y-146310000D02*
X145300000Y-150310000D01*
X182800000Y-151310000D02*
X182800000Y-149150000D01*
X145300000Y-150310000D02*
X144785000Y-150825000D01*
%TO.N,P002*%
X126550000Y-121810000D02*
X126550000Y-119650000D01*
X153273350Y-108125000D02*
X155473350Y-110325000D01*
X179274100Y-100525900D02*
X179600000Y-100200000D01*
X164050000Y-110050000D02*
X171600000Y-117600000D01*
X107800000Y-121810000D02*
X107800000Y-119650000D01*
X125160000Y-123200000D02*
X126550000Y-121810000D01*
X182800000Y-115810000D02*
X191800000Y-124810000D01*
X155473350Y-110325000D02*
X163535000Y-110325000D01*
X126550000Y-121810000D02*
X132990000Y-121810000D01*
X109190000Y-123200000D02*
X125160000Y-123200000D01*
X163535000Y-110325000D02*
X164050000Y-109810000D01*
X145615000Y-108125000D02*
X153273350Y-108125000D01*
X132990000Y-121810000D02*
X145300000Y-109500000D01*
X107800000Y-121810000D02*
X109190000Y-123200000D01*
X201550000Y-124810000D02*
X201550000Y-122650000D01*
X145300000Y-107810000D02*
X145615000Y-108125000D01*
X164050000Y-109810000D02*
X164050000Y-110050000D01*
X182800000Y-115810000D02*
X182800000Y-113650000D01*
X191800000Y-124810000D02*
X201550000Y-124810000D01*
X182800000Y-115810000D02*
X179274100Y-112284100D01*
X145300000Y-109500000D02*
X145300000Y-107810000D01*
X145300000Y-107810000D02*
X145300000Y-105650000D01*
X171600000Y-117600000D02*
X181010000Y-117600000D01*
X164050000Y-109810000D02*
X164050000Y-107650000D01*
X181010000Y-117600000D02*
X182800000Y-115810000D01*
X179274100Y-112284100D02*
X179274100Y-100525900D01*
%TO.N,P029*%
X108315000Y-104575000D02*
X126035000Y-104575000D01*
X201550000Y-112066316D02*
X201550000Y-113560000D01*
X186528116Y-98060000D02*
X198742216Y-110274100D01*
X164050000Y-93060000D02*
X170190000Y-99200000D01*
X126035000Y-104575000D02*
X126550000Y-104060000D01*
X145300000Y-97060000D02*
X149360000Y-93000000D01*
X182800000Y-98060000D02*
X182800000Y-95900000D01*
X138300000Y-104060000D02*
X145300000Y-97060000D01*
X199757784Y-110274100D02*
X201550000Y-112066316D01*
X107800000Y-104060000D02*
X107800000Y-101900000D01*
X170190000Y-99200000D02*
X181660000Y-99200000D01*
X149360000Y-93000000D02*
X152600000Y-93000000D01*
X145300000Y-97060000D02*
X145300000Y-94900000D01*
X152600000Y-93000000D02*
X152660000Y-93060000D01*
X126550000Y-104060000D02*
X138300000Y-104060000D01*
X181660000Y-99200000D02*
X182800000Y-98060000D01*
X186020000Y-90380000D02*
X186020000Y-85120000D01*
X185800000Y-90600000D02*
X186020000Y-90380000D01*
X152660000Y-93060000D02*
X164050000Y-93060000D01*
X182800000Y-98060000D02*
X185800000Y-95060000D01*
X201550000Y-113560000D02*
X201550000Y-111400000D01*
X164050000Y-93060000D02*
X164050000Y-90900000D01*
X126550000Y-104060000D02*
X126550000Y-101900000D01*
X185800000Y-95060000D02*
X185800000Y-90600000D01*
X198742216Y-110274100D02*
X199757784Y-110274100D01*
X107800000Y-104060000D02*
X108315000Y-104575000D01*
X182800000Y-98060000D02*
X186528116Y-98060000D01*
%TO.N,P115*%
X159050000Y-132560000D02*
X164050000Y-127560000D01*
X199510000Y-138600000D02*
X201550000Y-136560000D01*
X182960000Y-133560000D02*
X188000000Y-138600000D01*
X138300000Y-139560000D02*
X145300000Y-132560000D01*
X126550000Y-139560000D02*
X138300000Y-139560000D01*
X169800000Y-134200000D02*
X182160000Y-134200000D01*
X145300000Y-132560000D02*
X159050000Y-132560000D01*
X164050000Y-127560000D02*
X164050000Y-125400000D01*
X182800000Y-133560000D02*
X182800000Y-131400000D01*
X113600000Y-141200000D02*
X124910000Y-141200000D01*
X126550000Y-139560000D02*
X126550000Y-137400000D01*
X145300000Y-132560000D02*
X145300000Y-130400000D01*
X182160000Y-134200000D02*
X182800000Y-133560000D01*
X182800000Y-133560000D02*
X182960000Y-133560000D01*
X107800000Y-135400000D02*
X113600000Y-141200000D01*
X124910000Y-141200000D02*
X126550000Y-139560000D01*
X188000000Y-138600000D02*
X199510000Y-138600000D01*
X201550000Y-136560000D02*
X201550000Y-134400000D01*
X107800000Y-132560000D02*
X107800000Y-130400000D01*
X164050000Y-127560000D02*
X164050000Y-128450000D01*
X107800000Y-132560000D02*
X107800000Y-135400000D01*
X164050000Y-128450000D02*
X169800000Y-134200000D01*
%TO.N,P031*%
X107800000Y-79310000D02*
X107800000Y-77150000D01*
X173355001Y-74310000D02*
X179355001Y-80310000D01*
X201550000Y-83310000D02*
X201550000Y-81150000D01*
X107800000Y-81400000D02*
X114000000Y-87600000D01*
X159050000Y-79310000D02*
X164050000Y-74310000D01*
X164050000Y-74310000D02*
X173355001Y-74310000D01*
X145300000Y-79310000D02*
X145300000Y-77150000D01*
X107800000Y-79310000D02*
X107800000Y-81400000D01*
X126550000Y-86310000D02*
X138300000Y-86310000D01*
X182800000Y-80310000D02*
X182800000Y-78150000D01*
X164050000Y-74310000D02*
X164050000Y-72150000D01*
X183750000Y-80310000D02*
X188560000Y-85120000D01*
X138300000Y-86310000D02*
X145300000Y-79310000D01*
X125260000Y-87600000D02*
X126550000Y-86310000D01*
X145300000Y-79310000D02*
X159050000Y-79310000D01*
X114000000Y-87600000D02*
X125260000Y-87600000D01*
X182800000Y-80310000D02*
X183750000Y-80310000D01*
X179355001Y-80310000D02*
X182800000Y-80310000D01*
X126550000Y-86310000D02*
X126550000Y-84150000D01*
%TO.N,GND*%
X196000000Y-86800000D02*
X196180000Y-86620000D01*
X202212500Y-74412500D02*
X202827500Y-75027500D01*
X196200000Y-87000000D02*
X196000000Y-86800000D01*
X197460000Y-86400000D02*
X196180000Y-85120000D01*
X200697620Y-86400000D02*
X197460000Y-86400000D01*
X202827500Y-75027500D02*
X202827500Y-84270120D01*
X202827500Y-84270120D02*
X200697620Y-86400000D01*
X193640000Y-69880000D02*
X191100000Y-69880000D01*
X191100000Y-69880000D02*
X195632500Y-74412500D01*
X196180000Y-86620000D02*
X196180000Y-85120000D01*
X195632500Y-74412500D02*
X202212500Y-74412500D01*
X199000000Y-87000000D02*
X196200000Y-87000000D01*
%TO.N,RST*%
X196845000Y-88325000D02*
X193640000Y-85120000D01*
X199200000Y-88325000D02*
X196845000Y-88325000D01*
%TO.N,pos*%
X196200000Y-96000000D02*
X199200000Y-96000000D01*
%TD*%
M02*
