%TF.GenerationSoftware,KiCad,Pcbnew,7.0.8*%
%TF.CreationDate,2024-07-17T12:42:57-03:00*%
%TF.ProjectId,left,6c656674-2e6b-4696-9361-645f70636258,v1.0.0*%
%TF.SameCoordinates,Original*%
%TF.FileFunction,Profile,NP*%
%FSLAX46Y46*%
G04 Gerber Fmt 4.6, Leading zero omitted, Abs format (unit mm)*
G04 Created by KiCad (PCBNEW 7.0.8) date 2024-07-17 12:42:57*
%MOMM*%
%LPD*%
G01*
G04 APERTURE LIST*
%TA.AperFunction,Profile*%
%ADD10C,0.150000*%
%TD*%
G04 APERTURE END LIST*
D10*
X167781045Y-60748065D02*
G75*
G03*
X169765564Y-62499999I1984555J248065D01*
G01*
X167468955Y-58251935D02*
G75*
G03*
X165484436Y-56500001I-1984555J-248065D01*
G01*
X204750000Y-67500000D02*
X204750000Y-155500000D01*
X146972375Y-56499975D02*
G75*
G03*
X144994502Y-58203319I25J-2000025D01*
G01*
X163781045Y-152748065D02*
G75*
G03*
X165765564Y-154499999I1984555J248065D01*
G01*
X128297161Y-61500000D02*
X142777625Y-61500000D01*
X128297161Y-61499962D02*
G75*
G03*
X126308543Y-63286934I39J-2000038D01*
G01*
X142777625Y-61500025D02*
G75*
G03*
X144755498Y-59796681I-25J2000025D01*
G01*
X130308543Y-155286934D02*
X129941457Y-158713066D01*
X169765564Y-62500000D02*
X184438498Y-62500000D01*
X91000000Y-160500000D02*
X127952839Y-160500000D01*
X132297161Y-153499962D02*
G75*
G03*
X130308543Y-155286934I39J-2000038D01*
G01*
X150972375Y-148499975D02*
G75*
G03*
X148994502Y-150203319I25J-2000025D01*
G01*
X163781009Y-152748069D02*
X163468991Y-150251931D01*
X125941457Y-66713066D02*
X126308543Y-63286934D01*
X167468991Y-58251931D02*
X167781009Y-60748069D01*
X202750000Y-157500000D02*
X185629803Y-157500000D01*
X184155495Y-156851449D02*
X182594505Y-155148551D01*
X91000000Y-68500000D02*
G75*
G03*
X89000000Y-70500000I0J-2000000D01*
G01*
X184155493Y-156851451D02*
G75*
G03*
X185629803Y-157500000I1474307J1351451D01*
G01*
X89000000Y-158500000D02*
G75*
G03*
X91000000Y-160500000I2000000J0D01*
G01*
X186378767Y-64014868D02*
X186750100Y-65500000D01*
X148994502Y-150203319D02*
X148755498Y-151796681D01*
X146972375Y-56500000D02*
X165484436Y-56500000D01*
X204750000Y-67500000D02*
G75*
G03*
X202750000Y-65500000I-2000000J0D01*
G01*
X146777625Y-153500000D02*
X132297161Y-153500000D01*
X91000000Y-68500000D02*
X123952839Y-68500000D01*
X127952839Y-160500038D02*
G75*
G03*
X129941457Y-158713066I-39J2000038D01*
G01*
X161484436Y-148500000D02*
X150972375Y-148500000D01*
X202750000Y-157500000D02*
G75*
G03*
X204750000Y-155500000I0J2000000D01*
G01*
X123952839Y-68500038D02*
G75*
G03*
X125941457Y-66713066I-39J2000038D01*
G01*
X89000000Y-158500000D02*
X89000000Y-70500000D01*
X144755498Y-59796681D02*
X144994502Y-58203319D01*
X182594507Y-155148549D02*
G75*
G03*
X181120197Y-154500000I-1474307J-1351451D01*
G01*
X186750100Y-65500000D02*
X202750000Y-65500000D01*
X163468955Y-150251935D02*
G75*
G03*
X161484436Y-148500001I-1984555J-248065D01*
G01*
X181120197Y-154500000D02*
X165765564Y-154500000D01*
X146777625Y-153500025D02*
G75*
G03*
X148755498Y-151796681I-25J2000025D01*
G01*
X186378769Y-64014868D02*
G75*
G03*
X184438498Y-62500001I-1940269J-485132D01*
G01*
M02*
