%TF.GenerationSoftware,KiCad,Pcbnew,7.0.8*%
%TF.CreationDate,2024-07-17T12:42:57-03:00*%
%TF.ProjectId,left,6c656674-2e6b-4696-9361-645f70636258,v1.0.0*%
%TF.SameCoordinates,Original*%
%TF.FileFunction,Copper,L2,Bot*%
%TF.FilePolarity,Positive*%
%FSLAX46Y46*%
G04 Gerber Fmt 4.6, Leading zero omitted, Abs format (unit mm)*
G04 Created by KiCad (PCBNEW 7.0.8) date 2024-07-17 12:42:57*
%MOMM*%
%LPD*%
G01*
G04 APERTURE LIST*
%TA.AperFunction,SMDPad,CuDef*%
%ADD10R,0.900000X0.900000*%
%TD*%
%TA.AperFunction,WasherPad*%
%ADD11C,1.000000*%
%TD*%
%TA.AperFunction,SMDPad,CuDef*%
%ADD12R,1.250000X0.900000*%
%TD*%
%TA.AperFunction,SMDPad,CuDef*%
%ADD13R,2.600000X2.600000*%
%TD*%
%TA.AperFunction,ComponentPad*%
%ADD14R,1.778000X1.778000*%
%TD*%
%TA.AperFunction,SMDPad,CuDef*%
%ADD15R,1.200000X0.900000*%
%TD*%
%TA.AperFunction,ComponentPad*%
%ADD16C,1.905000*%
%TD*%
%TA.AperFunction,ComponentPad*%
%ADD17R,1.700000X1.200000*%
%TD*%
%TA.AperFunction,ComponentPad*%
%ADD18O,1.700000X1.200000*%
%TD*%
%TA.AperFunction,ComponentPad*%
%ADD19C,1.752600*%
%TD*%
%TA.AperFunction,SMDPad,CuDef*%
%ADD20R,1.000000X1.550000*%
%TD*%
%TA.AperFunction,ViaPad*%
%ADD21C,0.800000*%
%TD*%
%TA.AperFunction,Conductor*%
%ADD22C,0.250000*%
%TD*%
G04 APERTURE END LIST*
D10*
%TO.P,T1,*%
%TO.N,*%
X203650000Y-96050000D03*
X201450000Y-96050000D03*
D11*
X202550000Y-98250000D03*
X202550000Y-101250000D03*
D10*
X203650000Y-103450000D03*
X201450000Y-103450000D03*
D12*
%TO.P,T1,1*%
%TO.N,pos*%
X200475000Y-97500000D03*
%TO.P,T1,2*%
%TO.N,RAW*%
X200475000Y-100500000D03*
%TO.P,T1,3*%
%TO.N,N/C*%
X200475000Y-102000000D03*
%TD*%
D13*
%TO.P,S21,1*%
%TO.N,P011*%
X178275000Y-149950000D03*
%TO.P,S21,2*%
%TO.N,fifth_mod*%
X166725000Y-147750000D03*
%TD*%
%TO.P,S26,1*%
%TO.N,P017*%
X197025000Y-152950000D03*
%TO.P,S26,2*%
%TO.N,sixth_mod*%
X185475000Y-150750000D03*
%TD*%
D14*
%TO.P,D19,1*%
%TO.N,P029*%
X182800000Y-98060000D03*
D15*
X182800000Y-95900000D03*
%TO.P,D19,2*%
%TO.N,fifth_top*%
X182800000Y-92600000D03*
D16*
X182800000Y-90440000D03*
%TD*%
D13*
%TO.P,S6,1*%
%TO.N,P022*%
X122025000Y-155950000D03*
%TO.P,S6,2*%
%TO.N,second_mod*%
X110475000Y-153750000D03*
%TD*%
D14*
%TO.P,D23,1*%
%TO.N,P031*%
X201550000Y-83310000D03*
D15*
X201550000Y-81150000D03*
%TO.P,D23,2*%
%TO.N,sixth_num*%
X201550000Y-77850000D03*
D16*
X201550000Y-75690000D03*
%TD*%
D14*
%TO.P,D20,1*%
%TO.N,P031*%
X182800000Y-80310000D03*
D15*
X182800000Y-78150000D03*
%TO.P,D20,2*%
%TO.N,fifth_num*%
X182800000Y-74850000D03*
D16*
X182800000Y-72690000D03*
%TD*%
D14*
%TO.P,D29,1*%
%TO.N,P113*%
X164050000Y-146310000D03*
D15*
X164050000Y-144150000D03*
%TO.P,D29,2*%
%TO.N,fourth_mod*%
X164050000Y-140850000D03*
D16*
X164050000Y-138690000D03*
%TD*%
D14*
%TO.P,D12,1*%
%TO.N,P031*%
X145300000Y-79310000D03*
D15*
X145300000Y-77150000D03*
%TO.P,D12,2*%
%TO.N,third_num*%
X145300000Y-73850000D03*
D16*
X145300000Y-71690000D03*
%TD*%
D13*
%TO.P,S17,1*%
%TO.N,P100*%
X159525000Y-126200000D03*
%TO.P,S17,2*%
%TO.N,fourth_bottom*%
X147975000Y-124000000D03*
%TD*%
D14*
%TO.P,D25,1*%
%TO.N,P002*%
X201550000Y-124810000D03*
D15*
X201550000Y-122650000D03*
%TO.P,D25,2*%
%TO.N,sixth_home*%
X201550000Y-119350000D03*
D16*
X201550000Y-117190000D03*
%TD*%
D13*
%TO.P,S9,1*%
%TO.N,P022*%
X122025000Y-102700000D03*
%TO.P,S9,2*%
%TO.N,second_top*%
X110475000Y-100500000D03*
%TD*%
D14*
%TO.P,D17,1*%
%TO.N,P115*%
X182800000Y-133560000D03*
D15*
X182800000Y-131400000D03*
%TO.P,D17,2*%
%TO.N,fifth_bottom*%
X182800000Y-128100000D03*
D16*
X182800000Y-125940000D03*
%TD*%
D13*
%TO.P,S27,1*%
%TO.N,P017*%
X197025000Y-135200000D03*
%TO.P,S27,2*%
%TO.N,sixth_bottom*%
X185475000Y-133000000D03*
%TD*%
%TO.P,S5,1*%
%TO.N,P020*%
X103275000Y-84950000D03*
%TO.P,S5,2*%
%TO.N,first_num*%
X91725000Y-82750000D03*
%TD*%
%TO.P,S1,1*%
%TO.N,P020*%
X103275000Y-155950000D03*
%TO.P,S1,2*%
%TO.N,first_mod*%
X91725000Y-153750000D03*
%TD*%
D14*
%TO.P,D24,1*%
%TO.N,P029*%
X201550000Y-113560000D03*
D15*
X201550000Y-111400000D03*
%TO.P,D24,2*%
%TO.N,sixth_top*%
X201550000Y-108100000D03*
D16*
X201550000Y-105940000D03*
%TD*%
D13*
%TO.P,S28,1*%
%TO.N,P017*%
X197025000Y-117450000D03*
%TO.P,S28,2*%
%TO.N,sixth_home*%
X185475000Y-115250000D03*
%TD*%
%TO.P,S19,1*%
%TO.N,P100*%
X159525000Y-90700000D03*
%TO.P,S19,2*%
%TO.N,fourth_top*%
X147975000Y-88500000D03*
%TD*%
D14*
%TO.P,D27,1*%
%TO.N,P031*%
X107800000Y-79310000D03*
D15*
X107800000Y-77150000D03*
%TO.P,D27,2*%
%TO.N,first_num*%
X107800000Y-73850000D03*
D16*
X107800000Y-71690000D03*
%TD*%
D14*
%TO.P,D9,1*%
%TO.N,P113*%
X145300000Y-150310000D03*
D15*
X145300000Y-148150000D03*
%TO.P,D9,2*%
%TO.N,third_mod*%
X145300000Y-144850000D03*
D16*
X145300000Y-142690000D03*
%TD*%
D14*
%TO.P,D13,1*%
%TO.N,P115*%
X164050000Y-127560000D03*
D15*
X164050000Y-125400000D03*
%TO.P,D13,2*%
%TO.N,fourth_bottom*%
X164050000Y-122100000D03*
D16*
X164050000Y-119940000D03*
%TD*%
D14*
%TO.P,D14,1*%
%TO.N,P002*%
X164050000Y-109810000D03*
D15*
X164050000Y-107650000D03*
%TO.P,D14,2*%
%TO.N,fourth_home*%
X164050000Y-104350000D03*
D16*
X164050000Y-102190000D03*
%TD*%
D13*
%TO.P,S29,1*%
%TO.N,P017*%
X197025000Y-99700000D03*
%TO.P,S29,2*%
%TO.N,sixth_top*%
X185475000Y-97500000D03*
%TD*%
%TO.P,S7,1*%
%TO.N,P022*%
X122025000Y-138200000D03*
%TO.P,S7,2*%
%TO.N,second_bottom*%
X110475000Y-136000000D03*
%TD*%
%TO.P,S22,1*%
%TO.N,P011*%
X178275000Y-132200000D03*
%TO.P,S22,2*%
%TO.N,fifth_bottom*%
X166725000Y-130000000D03*
%TD*%
%TO.P,S4,1*%
%TO.N,P020*%
X103275000Y-102700000D03*
%TO.P,S4,2*%
%TO.N,first_top*%
X91725000Y-100500000D03*
%TD*%
D14*
%TO.P,D18,1*%
%TO.N,P002*%
X182800000Y-115810000D03*
D15*
X182800000Y-113650000D03*
%TO.P,D18,2*%
%TO.N,fifth_home*%
X182800000Y-110350000D03*
D16*
X182800000Y-108190000D03*
%TD*%
D13*
%TO.P,S20,1*%
%TO.N,P100*%
X159525000Y-72950000D03*
%TO.P,S20,2*%
%TO.N,fourth_num*%
X147975000Y-70750000D03*
%TD*%
%TO.P,S8,1*%
%TO.N,P022*%
X122025000Y-120450000D03*
%TO.P,S8,2*%
%TO.N,second_home*%
X110475000Y-118250000D03*
%TD*%
D14*
%TO.P,D6,1*%
%TO.N,P002*%
X126550000Y-121810000D03*
D15*
X126550000Y-119650000D03*
%TO.P,D6,2*%
%TO.N,second_home*%
X126550000Y-116350000D03*
D16*
X126550000Y-114190000D03*
%TD*%
D13*
%TO.P,S23,1*%
%TO.N,P011*%
X178275000Y-114450000D03*
%TO.P,S23,2*%
%TO.N,fifth_home*%
X166725000Y-112250000D03*
%TD*%
D14*
%TO.P,D2,1*%
%TO.N,P002*%
X107800000Y-121810000D03*
D15*
X107800000Y-119650000D03*
%TO.P,D2,2*%
%TO.N,first_home*%
X107800000Y-116350000D03*
D16*
X107800000Y-114190000D03*
%TD*%
D14*
%TO.P,D8,1*%
%TO.N,P031*%
X126550000Y-86310000D03*
D15*
X126550000Y-84150000D03*
%TO.P,D8,2*%
%TO.N,second_num*%
X126550000Y-80850000D03*
D16*
X126550000Y-78690000D03*
%TD*%
D13*
%TO.P,S12,1*%
%TO.N,P024*%
X140775000Y-131200000D03*
%TO.P,S12,2*%
%TO.N,third_bottom*%
X129225000Y-129000000D03*
%TD*%
D14*
%TO.P,D21,1*%
%TO.N,P113*%
X201550000Y-154310000D03*
D15*
X201550000Y-152150000D03*
%TO.P,D21,2*%
%TO.N,sixth_mod*%
X201550000Y-148850000D03*
D16*
X201550000Y-146690000D03*
%TD*%
D14*
%TO.P,D3,1*%
%TO.N,P029*%
X107800000Y-104060000D03*
D15*
X107800000Y-101900000D03*
%TO.P,D3,2*%
%TO.N,first_top*%
X107800000Y-98600000D03*
D16*
X107800000Y-96440000D03*
%TD*%
D13*
%TO.P,S24,1*%
%TO.N,P011*%
X178275000Y-96700000D03*
%TO.P,S24,2*%
%TO.N,fifth_top*%
X166725000Y-94500000D03*
%TD*%
D14*
%TO.P,D30,1*%
%TO.N,P029*%
X164050000Y-93060000D03*
D15*
X164050000Y-90900000D03*
%TO.P,D30,2*%
%TO.N,fourth_top*%
X164050000Y-87600000D03*
D16*
X164050000Y-85440000D03*
%TD*%
D13*
%TO.P,S30,1*%
%TO.N,P017*%
X197025000Y-81950000D03*
%TO.P,S30,2*%
%TO.N,sixth_num*%
X185475000Y-79750000D03*
%TD*%
D14*
%TO.P,D10,1*%
%TO.N,P115*%
X145300000Y-132560000D03*
D15*
X145300000Y-130400000D03*
%TO.P,D10,2*%
%TO.N,third_bottom*%
X145300000Y-127100000D03*
D16*
X145300000Y-124940000D03*
%TD*%
D14*
%TO.P,D28,1*%
%TO.N,P002*%
X145300000Y-107810000D03*
D15*
X145300000Y-105650000D03*
%TO.P,D28,2*%
%TO.N,third_home*%
X145300000Y-102350000D03*
D16*
X145300000Y-100190000D03*
%TD*%
D14*
%TO.P,D5,1*%
%TO.N,P115*%
X126550000Y-139560000D03*
D15*
X126550000Y-137400000D03*
%TO.P,D5,2*%
%TO.N,second_bottom*%
X126550000Y-134100000D03*
D16*
X126550000Y-131940000D03*
%TD*%
D13*
%TO.P,S18,1*%
%TO.N,P100*%
X159525000Y-108450000D03*
%TO.P,S18,2*%
%TO.N,fourth_home*%
X147975000Y-106250000D03*
%TD*%
%TO.P,S13,1*%
%TO.N,P024*%
X140775000Y-113450000D03*
%TO.P,S13,2*%
%TO.N,third_home*%
X129225000Y-111250000D03*
%TD*%
D14*
%TO.P,D16,1*%
%TO.N,P113*%
X182800000Y-151310000D03*
D15*
X182800000Y-149150000D03*
%TO.P,D16,2*%
%TO.N,fifth_mod*%
X182800000Y-145850000D03*
D16*
X182800000Y-143690000D03*
%TD*%
D17*
%TO.P,JST1,1*%
%TO.N,pos*%
X149250000Y-98000000D03*
D18*
%TO.P,JST1,2*%
%TO.N,GND*%
X149250000Y-96000000D03*
%TD*%
D13*
%TO.P,S10,1*%
%TO.N,P022*%
X122025000Y-84950000D03*
%TO.P,S10,2*%
%TO.N,second_num*%
X110475000Y-82750000D03*
%TD*%
D14*
%TO.P,D7,1*%
%TO.N,P029*%
X126550000Y-104060000D03*
D15*
X126550000Y-101900000D03*
%TO.P,D7,2*%
%TO.N,second_top*%
X126550000Y-98600000D03*
D16*
X126550000Y-96440000D03*
%TD*%
D14*
%TO.P,D11,1*%
%TO.N,P029*%
X145300000Y-97060000D03*
D15*
X145300000Y-94900000D03*
%TO.P,D11,2*%
%TO.N,third_top*%
X145300000Y-91600000D03*
D16*
X145300000Y-89440000D03*
%TD*%
D13*
%TO.P,S2,1*%
%TO.N,P020*%
X103275000Y-138200000D03*
%TO.P,S2,2*%
%TO.N,first_bottom*%
X91725000Y-136000000D03*
%TD*%
%TO.P,S14,1*%
%TO.N,P024*%
X140775000Y-95700000D03*
%TO.P,S14,2*%
%TO.N,third_top*%
X129225000Y-93500000D03*
%TD*%
D19*
%TO.P,MCU1,1*%
%TO.N,P006*%
X198720000Y-69880000D03*
%TO.P,MCU1,2*%
%TO.N,P008*%
X196180000Y-69880000D03*
%TO.P,MCU1,3*%
%TO.N,GND*%
X193640000Y-69880000D03*
%TO.P,MCU1,4*%
X191100000Y-69880000D03*
%TO.P,MCU1,5*%
%TO.N,P017*%
X188560000Y-69880000D03*
%TO.P,MCU1,6*%
%TO.N,P020*%
X186020000Y-69880000D03*
%TO.P,MCU1,7*%
%TO.N,P022*%
X183480000Y-69880000D03*
%TO.P,MCU1,8*%
%TO.N,P024*%
X180940000Y-69880000D03*
%TO.P,MCU1,9*%
%TO.N,P100*%
X178400000Y-69880000D03*
%TO.P,MCU1,10*%
%TO.N,P011*%
X175860000Y-69880000D03*
%TO.P,MCU1,11*%
%TO.N,P104*%
X173320000Y-69880000D03*
%TO.P,MCU1,12*%
%TO.N,P106*%
X170780000Y-69880000D03*
%TO.P,MCU1,13*%
%TO.N,P009*%
X170780000Y-85120000D03*
%TO.P,MCU1,14*%
%TO.N,P010*%
X173320000Y-85120000D03*
%TO.P,MCU1,15*%
%TO.N,P111*%
X175860000Y-85120000D03*
%TO.P,MCU1,16*%
%TO.N,P113*%
X178400000Y-85120000D03*
%TO.P,MCU1,17*%
%TO.N,P115*%
X180940000Y-85120000D03*
%TO.P,MCU1,18*%
%TO.N,P002*%
X183480000Y-85120000D03*
%TO.P,MCU1,19*%
%TO.N,P029*%
X186020000Y-85120000D03*
%TO.P,MCU1,20*%
%TO.N,P031*%
X188560000Y-85120000D03*
%TO.P,MCU1,21*%
%TO.N,VCC*%
X191100000Y-85120000D03*
%TO.P,MCU1,22*%
%TO.N,RST*%
X193640000Y-85120000D03*
%TO.P,MCU1,23*%
%TO.N,GND*%
X196180000Y-85120000D03*
%TO.P,MCU1,24*%
%TO.N,RAW*%
X198720000Y-85120000D03*
%TD*%
D20*
%TO.P,B1,1*%
%TO.N,GND*%
X203600000Y-88325000D03*
X203600000Y-93575000D03*
%TO.P,B1,2*%
%TO.N,RST*%
X201900000Y-88325000D03*
X201900000Y-93575000D03*
%TD*%
D14*
%TO.P,D26,1*%
%TO.N,P115*%
X107800000Y-132560000D03*
D15*
X107800000Y-130400000D03*
%TO.P,D26,2*%
%TO.N,first_bottom*%
X107800000Y-127100000D03*
D16*
X107800000Y-124940000D03*
%TD*%
D13*
%TO.P,S16,1*%
%TO.N,P100*%
X159525000Y-143950000D03*
%TO.P,S16,2*%
%TO.N,fourth_mod*%
X147975000Y-141750000D03*
%TD*%
%TO.P,S3,1*%
%TO.N,P020*%
X103275000Y-120450000D03*
%TO.P,S3,2*%
%TO.N,first_home*%
X91725000Y-118250000D03*
%TD*%
D14*
%TO.P,D4,1*%
%TO.N,P113*%
X126550000Y-157310000D03*
D15*
X126550000Y-155150000D03*
%TO.P,D4,2*%
%TO.N,second_mod*%
X126550000Y-151850000D03*
D16*
X126550000Y-149690000D03*
%TD*%
D13*
%TO.P,S15,1*%
%TO.N,P024*%
X140775000Y-77950000D03*
%TO.P,S15,2*%
%TO.N,third_num*%
X129225000Y-75750000D03*
%TD*%
D14*
%TO.P,D15,1*%
%TO.N,P031*%
X164050000Y-74310000D03*
D15*
X164050000Y-72150000D03*
%TO.P,D15,2*%
%TO.N,fourth_num*%
X164050000Y-68850000D03*
D16*
X164050000Y-66690000D03*
%TD*%
D13*
%TO.P,S25,1*%
%TO.N,P011*%
X178275000Y-78950000D03*
%TO.P,S25,2*%
%TO.N,fifth_num*%
X166725000Y-76750000D03*
%TD*%
D14*
%TO.P,D1,1*%
%TO.N,P113*%
X107800000Y-157310000D03*
D15*
X107800000Y-155150000D03*
%TO.P,D1,2*%
%TO.N,first_mod*%
X107800000Y-151850000D03*
D16*
X107800000Y-149690000D03*
%TD*%
D13*
%TO.P,S11,1*%
%TO.N,P024*%
X140775000Y-148950000D03*
%TO.P,S11,2*%
%TO.N,third_mod*%
X129225000Y-146750000D03*
%TD*%
D14*
%TO.P,D22,1*%
%TO.N,P115*%
X201550000Y-136560000D03*
D15*
X201550000Y-134400000D03*
%TO.P,D22,2*%
%TO.N,sixth_bottom*%
X201550000Y-131100000D03*
D16*
X201550000Y-128940000D03*
%TD*%
D21*
%TO.N,P011*%
X177600000Y-82400000D03*
X178200000Y-94400000D03*
X177400000Y-100000000D03*
X174400000Y-103000000D03*
%TO.N,P100*%
X159800000Y-80800000D03*
X161800000Y-89000000D03*
%TO.N,P024*%
X140600000Y-75200000D03*
X140600000Y-71200000D03*
%TO.N,P011*%
X178200000Y-76600000D03*
%TO.N,P017*%
X197200000Y-79200000D03*
X197000000Y-76600000D03*
%TO.N,P113*%
X189600000Y-87200000D03*
%TO.N,P002*%
X179600000Y-100200000D03*
%TO.N,GND*%
X199000000Y-87000000D03*
%TO.N,RST*%
X199200000Y-88325000D03*
%TO.N,pos*%
X196200000Y-96000000D03*
X199200000Y-96000000D03*
%TD*%
D22*
%TO.N,GND*%
X157284620Y-96000000D02*
X169934620Y-83350000D01*
X169934620Y-83350000D02*
X192350000Y-83350000D01*
X192825000Y-83825000D02*
X194885000Y-83825000D01*
X192350000Y-83350000D02*
X192825000Y-83825000D01*
X149250000Y-96000000D02*
X157284620Y-96000000D01*
X194885000Y-83825000D02*
X196180000Y-85120000D01*
%TO.N,P113*%
X189600000Y-87200000D02*
X188800000Y-87200000D01*
X186600000Y-83800000D02*
X179720000Y-83800000D01*
X188800000Y-87200000D02*
X187358700Y-85758700D01*
X187358700Y-85758700D02*
X187358700Y-84558700D01*
X187358700Y-84558700D02*
X186600000Y-83800000D01*
X179720000Y-83800000D02*
X178400000Y-85120000D01*
%TO.N,fifth_home*%
X166725000Y-112250000D02*
X166725000Y-107075000D01*
X166725000Y-107075000D02*
X172000000Y-101800000D01*
X172000000Y-101800000D02*
X180200000Y-101800000D01*
X180200000Y-101800000D02*
X182800000Y-104400000D01*
X182800000Y-104400000D02*
X182800000Y-108190000D01*
%TO.N,P011*%
X178275000Y-81725000D02*
X178275000Y-78950000D01*
X178275000Y-96700000D02*
X178275000Y-94475000D01*
X178275000Y-94475000D02*
X178200000Y-94400000D01*
X177600000Y-82400000D02*
X178275000Y-81725000D01*
X177400000Y-100000000D02*
X178275000Y-99125000D01*
X178275000Y-114450000D02*
X178275000Y-106875000D01*
X178275000Y-99125000D02*
X178275000Y-96700000D01*
X178275000Y-106875000D02*
X174400000Y-103000000D01*
X178275000Y-132200000D02*
X180209620Y-132200000D01*
X184600000Y-120775000D02*
X178275000Y-114450000D01*
X180209620Y-132200000D02*
X184600000Y-127809620D01*
X184600000Y-127809620D02*
X184600000Y-120775000D01*
X178275000Y-149950000D02*
X180209620Y-149950000D01*
X180209620Y-149950000D02*
X184200000Y-145959620D01*
X184200000Y-138125000D02*
X178275000Y-132200000D01*
X184200000Y-145959620D02*
X184200000Y-138125000D01*
%TO.N,P100*%
X159800000Y-80800000D02*
X159525000Y-80525000D01*
X159525000Y-80525000D02*
X159525000Y-72950000D01*
X159525000Y-90700000D02*
X160100000Y-90700000D01*
X160100000Y-90700000D02*
X161800000Y-89000000D01*
X159525000Y-108450000D02*
X161459620Y-108450000D01*
X165327500Y-104582120D02*
X165327500Y-101660842D01*
X151025000Y-92575000D02*
X157650000Y-92575000D01*
X161459620Y-108450000D02*
X165327500Y-104582120D01*
X162716658Y-99050000D02*
X148250000Y-99050000D01*
X165327500Y-101660842D02*
X162716658Y-99050000D01*
X148250000Y-99050000D02*
X148075000Y-98875000D01*
X148075000Y-98875000D02*
X148075000Y-95525000D01*
X148075000Y-95525000D02*
X151025000Y-92575000D01*
X157650000Y-92575000D02*
X159525000Y-90700000D01*
X159525000Y-126200000D02*
X161600000Y-126200000D01*
X161600000Y-126200000D02*
X165327500Y-122472500D01*
X165327500Y-122472500D02*
X165327500Y-114252500D01*
X165327500Y-114252500D02*
X159525000Y-108450000D01*
X159525000Y-143950000D02*
X162459620Y-143950000D01*
X162459620Y-143950000D02*
X168425000Y-137984620D01*
X168425000Y-137984620D02*
X168425000Y-134495532D01*
X166125000Y-132800000D02*
X159525000Y-126200000D01*
X168425000Y-134495532D02*
X166729468Y-132800000D01*
X166729468Y-132800000D02*
X166125000Y-132800000D01*
%TO.N,P020*%
X103275000Y-84950000D02*
X101400000Y-83075000D01*
X101225000Y-158000000D02*
X103275000Y-155950000D01*
X125400000Y-70400000D02*
X128000000Y-67800000D01*
X101400000Y-83075000D02*
X97525000Y-83075000D01*
X92740380Y-104575000D02*
X101400000Y-104575000D01*
X186020000Y-67420000D02*
X186020000Y-69880000D01*
X100800000Y-70400000D02*
X125400000Y-70400000D01*
X184400000Y-64000000D02*
X185800000Y-65400000D01*
X90100000Y-133625000D02*
X90100000Y-137500000D01*
X90100000Y-137500000D02*
X92675000Y-140075000D01*
X90100000Y-151375000D02*
X90100000Y-155184620D01*
X165000000Y-64000000D02*
X184400000Y-64000000D01*
X101400000Y-140075000D02*
X103275000Y-138200000D01*
X90425000Y-84625000D02*
X90100000Y-84300000D01*
X90100000Y-119700000D02*
X92725000Y-122325000D01*
X147000000Y-58400000D02*
X165200000Y-58400000D01*
X128000000Y-63400000D02*
X146800000Y-63400000D01*
X103275000Y-84950000D02*
X90100000Y-98125000D01*
X90100000Y-98125000D02*
X90100000Y-101934620D01*
X128000000Y-67800000D02*
X128000000Y-63400000D01*
X101400000Y-122325000D02*
X103275000Y-120450000D01*
X103275000Y-102700000D02*
X90100000Y-115875000D01*
X90100000Y-101934620D02*
X92740380Y-104575000D01*
X92675000Y-140075000D02*
X101400000Y-140075000D01*
X92725000Y-122325000D02*
X101400000Y-122325000D01*
X97525000Y-83075000D02*
X95975000Y-84625000D01*
X90100000Y-84300000D02*
X90100000Y-81100000D01*
X90100000Y-81100000D02*
X100800000Y-70400000D01*
X90100000Y-115875000D02*
X90100000Y-119700000D01*
X103275000Y-120450000D02*
X90100000Y-133625000D01*
X185800000Y-65400000D02*
X185800000Y-67200000D01*
X147000000Y-63200000D02*
X147000000Y-58400000D01*
X165200000Y-58400000D02*
X165200000Y-63800000D01*
X185800000Y-67200000D02*
X186020000Y-67420000D01*
X146800000Y-63400000D02*
X147000000Y-63200000D01*
X90100000Y-155184620D02*
X92915380Y-158000000D01*
X165200000Y-63800000D02*
X165000000Y-64000000D01*
X95975000Y-84625000D02*
X90425000Y-84625000D01*
X101400000Y-104575000D02*
X103275000Y-102700000D01*
X92915380Y-158000000D02*
X101225000Y-158000000D01*
X103275000Y-138200000D02*
X90100000Y-151375000D01*
%TO.N,first_mod*%
X94249100Y-151225900D02*
X98270901Y-151225900D01*
X98270901Y-151225900D02*
X99134501Y-152089500D01*
X105400500Y-152089500D02*
X107800000Y-149690000D01*
X99134501Y-152089500D02*
X105400500Y-152089500D01*
X107800000Y-149690000D02*
X107800000Y-151850000D01*
X91725000Y-153750000D02*
X94249100Y-151225900D01*
%TO.N,first_bottom*%
X91725000Y-136000000D02*
X93922500Y-133802500D01*
X93922500Y-133802500D02*
X95397500Y-133802500D01*
X107800000Y-124940000D02*
X107800000Y-127100000D01*
X95397500Y-133802500D02*
X104260000Y-124940000D01*
X104260000Y-124940000D02*
X107800000Y-124940000D01*
%TO.N,first_home*%
X95170001Y-116375000D02*
X99134501Y-112410500D01*
X106020500Y-112410500D02*
X107800000Y-114190000D01*
X99134501Y-112410500D02*
X106020500Y-112410500D01*
X93600000Y-116375000D02*
X95170001Y-116375000D01*
X91725000Y-118250000D02*
X93600000Y-116375000D01*
X107800000Y-114190000D02*
X107800000Y-116350000D01*
%TO.N,first_top*%
X93600000Y-98625000D02*
X95170001Y-98625000D01*
X107800000Y-96440000D02*
X107800000Y-98600000D01*
X91725000Y-100500000D02*
X93600000Y-98625000D01*
X106020500Y-94660500D02*
X107800000Y-96440000D01*
X95170001Y-98625000D02*
X99134501Y-94660500D01*
X99134501Y-94660500D02*
X106020500Y-94660500D01*
%TO.N,first_num*%
X107800000Y-71690000D02*
X107800000Y-73850000D01*
X94249100Y-80225900D02*
X95774100Y-80225900D01*
X104310000Y-71690000D02*
X107800000Y-71690000D01*
X91725000Y-82750000D02*
X94249100Y-80225900D01*
X95774100Y-80225900D02*
X104310000Y-71690000D01*
%TO.N,P022*%
X112625000Y-137625000D02*
X115075000Y-140075000D01*
X111490380Y-122325000D02*
X120150000Y-122325000D01*
X128600000Y-63850000D02*
X146986396Y-63850000D01*
X122025000Y-121390380D02*
X108850000Y-134565380D01*
X115075000Y-140075000D02*
X120150000Y-140075000D01*
X108850000Y-101934620D02*
X111490380Y-104575000D01*
X120150000Y-104575000D02*
X122025000Y-102700000D01*
X108850000Y-115875000D02*
X108850000Y-119684620D01*
X122025000Y-138200000D02*
X108850000Y-151375000D01*
X122025000Y-120450000D02*
X122025000Y-121390380D01*
X128600000Y-67836396D02*
X128600000Y-63850000D01*
X127600000Y-68836396D02*
X128600000Y-67836396D01*
X182800000Y-64600000D02*
X183480000Y-65280000D01*
X127600000Y-77184620D02*
X127600000Y-68836396D01*
X111490380Y-104575000D02*
X120150000Y-104575000D01*
X122025000Y-84950000D02*
X123959620Y-84950000D01*
X164963604Y-64600000D02*
X182800000Y-64600000D01*
X120150000Y-140075000D02*
X122025000Y-138200000D01*
X122025000Y-84950000D02*
X108850000Y-98125000D01*
X183480000Y-65280000D02*
X183480000Y-69880000D01*
X127827500Y-77412120D02*
X127600000Y-77184620D01*
X108850000Y-98125000D02*
X108850000Y-101934620D01*
X164750000Y-58850000D02*
X164550000Y-59050000D01*
X120150000Y-122325000D02*
X122025000Y-120450000D01*
X108850000Y-155250000D02*
X111600000Y-158000000D01*
X108850000Y-134565380D02*
X108850000Y-137434620D01*
X164550000Y-64186396D02*
X164963604Y-64600000D01*
X108850000Y-119684620D02*
X111490380Y-122325000D01*
X147450000Y-63386396D02*
X147450000Y-58850000D01*
X147450000Y-58850000D02*
X164750000Y-58850000D01*
X123959620Y-84950000D02*
X127827500Y-81082120D01*
X164550000Y-59050000D02*
X164550000Y-64186396D01*
X122025000Y-102700000D02*
X108850000Y-115875000D01*
X108850000Y-137434620D02*
X109040380Y-137625000D01*
X111600000Y-158000000D02*
X119975000Y-158000000D01*
X108850000Y-151375000D02*
X108850000Y-155250000D01*
X146986396Y-63850000D02*
X147450000Y-63386396D01*
X119975000Y-158000000D02*
X122025000Y-155950000D01*
X109040380Y-137625000D02*
X112625000Y-137625000D01*
X127827500Y-81082120D02*
X127827500Y-77412120D01*
%TO.N,second_mod*%
X124150500Y-152089500D02*
X126550000Y-149690000D01*
X112350000Y-151875000D02*
X117670001Y-151875000D01*
X117884501Y-152089500D02*
X124150500Y-152089500D01*
X110475000Y-153750000D02*
X112350000Y-151875000D01*
X126550000Y-149690000D02*
X126550000Y-151850000D01*
X117670001Y-151875000D02*
X117884501Y-152089500D01*
%TO.N,second_bottom*%
X110475000Y-136000000D02*
X112999100Y-133475900D01*
X115984600Y-133475900D02*
X116848200Y-134339500D01*
X116848200Y-134339500D02*
X124150500Y-134339500D01*
X112999100Y-133475900D02*
X115984600Y-133475900D01*
X124150500Y-134339500D02*
X126550000Y-131940000D01*
X126550000Y-131940000D02*
X126550000Y-134100000D01*
%TO.N,second_home*%
X112350000Y-116375000D02*
X117670001Y-116375000D01*
X117895001Y-116600000D02*
X124140000Y-116600000D01*
X126550000Y-114190000D02*
X126550000Y-116350000D01*
X110475000Y-118250000D02*
X112350000Y-116375000D01*
X124140000Y-116600000D02*
X126550000Y-114190000D01*
X117670001Y-116375000D02*
X117895001Y-116600000D01*
%TO.N,second_top*%
X110475000Y-100500000D02*
X110475000Y-97791316D01*
X110475000Y-97791316D02*
X113605816Y-94660500D01*
X113605816Y-94660500D02*
X124770500Y-94660500D01*
X126550000Y-96440000D02*
X126550000Y-98600000D01*
X124770500Y-94660500D02*
X126550000Y-96440000D01*
%TO.N,second_num*%
X113605816Y-76910500D02*
X124770500Y-76910500D01*
X124770500Y-76910500D02*
X126550000Y-78690000D01*
X110475000Y-82750000D02*
X110475000Y-80041316D01*
X110475000Y-80041316D02*
X113605816Y-76910500D01*
X126550000Y-78690000D02*
X126550000Y-80850000D01*
%TO.N,P024*%
X147172792Y-64300000D02*
X148000000Y-63472792D01*
X148000000Y-63472792D02*
X148000000Y-59300000D01*
X140775000Y-77950000D02*
X127600000Y-91125000D01*
X140775000Y-75375000D02*
X140600000Y-75200000D01*
X127600000Y-91125000D02*
X127600000Y-95000000D01*
X140775000Y-113450000D02*
X127600000Y-126625000D01*
X127600000Y-108875000D02*
X127600000Y-112800000D01*
X138900000Y-133075000D02*
X140775000Y-131200000D01*
X138900000Y-115325000D02*
X140775000Y-113450000D01*
X140600000Y-64300000D02*
X147172792Y-64300000D01*
X164100000Y-64372792D02*
X164777208Y-65050000D01*
X127600000Y-126625000D02*
X127600000Y-130600000D01*
X138900000Y-150825000D02*
X140775000Y-148950000D01*
X127600000Y-112800000D02*
X130125000Y-115325000D01*
X140775000Y-131200000D02*
X127600000Y-144375000D01*
X140775000Y-77950000D02*
X140775000Y-75375000D01*
X130075000Y-133075000D02*
X138900000Y-133075000D01*
X181400000Y-65050000D02*
X180940000Y-65510000D01*
X127600000Y-144375000D02*
X127600000Y-148184620D01*
X138900000Y-97575000D02*
X140775000Y-95700000D01*
X127600000Y-130600000D02*
X130075000Y-133075000D01*
X164777208Y-65050000D02*
X181400000Y-65050000D01*
X130240380Y-150825000D02*
X138900000Y-150825000D01*
X180940000Y-65510000D02*
X180940000Y-69880000D01*
X127600000Y-148184620D02*
X130240380Y-150825000D01*
X140775000Y-95700000D02*
X127600000Y-108875000D01*
X127600000Y-95000000D02*
X130175000Y-97575000D01*
X130125000Y-115325000D02*
X138900000Y-115325000D01*
X148000000Y-59300000D02*
X164100000Y-59300000D01*
X140600000Y-71200000D02*
X140600000Y-64300000D01*
X164100000Y-59300000D02*
X164100000Y-64372792D01*
X130175000Y-97575000D02*
X138900000Y-97575000D01*
%TO.N,third_mod*%
X142900500Y-145089500D02*
X145300000Y-142690000D01*
X131100000Y-144875000D02*
X136420001Y-144875000D01*
X129225000Y-146750000D02*
X131100000Y-144875000D01*
X136634501Y-145089500D02*
X142900500Y-145089500D01*
X136420001Y-144875000D02*
X136634501Y-145089500D01*
X145300000Y-142690000D02*
X145300000Y-144850000D01*
%TO.N,third_bottom*%
X145300000Y-124940000D02*
X145300000Y-127100000D01*
X131225000Y-127000000D02*
X136295001Y-127000000D01*
X136634501Y-127339500D02*
X142900500Y-127339500D01*
X129225000Y-129000000D02*
X131225000Y-127000000D01*
X142900500Y-127339500D02*
X145300000Y-124940000D01*
X136295001Y-127000000D02*
X136634501Y-127339500D01*
%TO.N,third_home*%
X131100000Y-109375000D02*
X136420001Y-109375000D01*
X136634501Y-109589500D02*
X138365499Y-109589500D01*
X145300000Y-102654999D02*
X145300000Y-100190000D01*
X129225000Y-111250000D02*
X131100000Y-109375000D01*
X145300000Y-100190000D02*
X145300000Y-102350000D01*
X138365499Y-109589500D02*
X145300000Y-102654999D01*
X136420001Y-109375000D02*
X136634501Y-109589500D01*
%TO.N,third_top*%
X129225000Y-93500000D02*
X131100000Y-91625000D01*
X142900500Y-91839500D02*
X145300000Y-89440000D01*
X131100000Y-91625000D02*
X135825000Y-91625000D01*
X145300000Y-89440000D02*
X145300000Y-91600000D01*
X135825000Y-91625000D02*
X136039500Y-91839500D01*
X136039500Y-91839500D02*
X142900500Y-91839500D01*
%TO.N,third_num*%
X145300000Y-71690000D02*
X145300000Y-73850000D01*
X131547500Y-73427500D02*
X135972501Y-73427500D01*
X135972501Y-73427500D02*
X136634501Y-74089500D01*
X129225000Y-75750000D02*
X131547500Y-73427500D01*
X142900500Y-74089500D02*
X145300000Y-71690000D01*
X136634501Y-74089500D02*
X142900500Y-74089500D01*
%TO.N,P100*%
X161459620Y-72950000D02*
X166200000Y-68209620D01*
X159525000Y-72950000D02*
X161459620Y-72950000D01*
X177400000Y-65600000D02*
X178400000Y-66600000D01*
X166200000Y-68209620D02*
X166200000Y-65600000D01*
X178400000Y-66600000D02*
X178400000Y-69880000D01*
X166200000Y-65600000D02*
X177400000Y-65600000D01*
%TO.N,fourth_mod*%
X162650500Y-140089500D02*
X164050000Y-138690000D01*
X147975000Y-141750000D02*
X149850000Y-139875000D01*
X154875000Y-139875000D02*
X155089500Y-140089500D01*
X164050000Y-138690000D02*
X164050000Y-140850000D01*
X149850000Y-139875000D02*
X154875000Y-139875000D01*
X155089500Y-140089500D02*
X162650500Y-140089500D01*
%TO.N,fourth_bottom*%
X149850000Y-122125000D02*
X155325000Y-122125000D01*
X155600000Y-122400000D02*
X161590000Y-122400000D01*
X161590000Y-122400000D02*
X164050000Y-119940000D01*
X147975000Y-124000000D02*
X149850000Y-122125000D01*
X155325000Y-122125000D02*
X155600000Y-122400000D01*
X164050000Y-119940000D02*
X164050000Y-122100000D01*
%TO.N,fourth_home*%
X147975000Y-106250000D02*
X149850000Y-104375000D01*
X164050000Y-102190000D02*
X164050000Y-104350000D01*
X149850000Y-104375000D02*
X155170001Y-104375000D01*
X155170001Y-104375000D02*
X155384501Y-104589500D01*
X155384501Y-104589500D02*
X161650500Y-104589500D01*
X161650500Y-104589500D02*
X164050000Y-102190000D01*
%TO.N,fourth_top*%
X161890000Y-87600000D02*
X164050000Y-85440000D01*
X154625000Y-86625000D02*
X155600000Y-87600000D01*
X155600000Y-87600000D02*
X161890000Y-87600000D01*
X149850000Y-86625000D02*
X154625000Y-86625000D01*
X147975000Y-88500000D02*
X149850000Y-86625000D01*
X164050000Y-85440000D02*
X164050000Y-87600000D01*
%TO.N,fourth_num*%
X149850000Y-68875000D02*
X155075000Y-68875000D01*
X147975000Y-70750000D02*
X149850000Y-68875000D01*
X155289500Y-69089500D02*
X161650500Y-69089500D01*
X155075000Y-68875000D02*
X155289500Y-69089500D01*
X164050000Y-66690000D02*
X164050000Y-68850000D01*
X161650500Y-69089500D02*
X164050000Y-66690000D01*
%TO.N,P011*%
X178275000Y-76675000D02*
X178200000Y-76600000D01*
X178275000Y-78950000D02*
X178275000Y-76675000D01*
%TO.N,fifth_mod*%
X174245001Y-146200000D02*
X180290000Y-146200000D01*
X182800000Y-143690000D02*
X182800000Y-145850000D01*
X168675000Y-145800000D02*
X173845001Y-145800000D01*
X180290000Y-146200000D02*
X182800000Y-143690000D01*
X166725000Y-147750000D02*
X168675000Y-145800000D01*
X173845001Y-145800000D02*
X174245001Y-146200000D01*
%TO.N,fifth_bottom*%
X166725000Y-130000000D02*
X168600000Y-128125000D01*
X174134501Y-128339500D02*
X180400500Y-128339500D01*
X182800000Y-125940000D02*
X182800000Y-128100000D01*
X173920001Y-128125000D02*
X174134501Y-128339500D01*
X168600000Y-128125000D02*
X173920001Y-128125000D01*
X180400500Y-128339500D02*
X182800000Y-125940000D01*
%TO.N,fifth_home*%
X182800000Y-108190000D02*
X182800000Y-110350000D01*
%TO.N,fifth_top*%
X173920001Y-92625000D02*
X174295001Y-93000000D01*
X166725000Y-94500000D02*
X168600000Y-92625000D01*
X180240000Y-93000000D02*
X182800000Y-90440000D01*
X174295001Y-93000000D02*
X180240000Y-93000000D01*
X182800000Y-90440000D02*
X182800000Y-92600000D01*
X168600000Y-92625000D02*
X173920001Y-92625000D01*
%TO.N,fifth_num*%
X180400500Y-75089500D02*
X182800000Y-72690000D01*
X169898350Y-74200000D02*
X173245001Y-74200000D01*
X173245001Y-74200000D02*
X174134501Y-75089500D01*
X182800000Y-72690000D02*
X182800000Y-74850000D01*
X166725000Y-76750000D02*
X167348350Y-76750000D01*
X167348350Y-76750000D02*
X169898350Y-74200000D01*
X174134501Y-75089500D02*
X180400500Y-75089500D01*
%TO.N,P017*%
X202827500Y-131372500D02*
X202827500Y-128410842D01*
X197025000Y-79375000D02*
X197025000Y-81950000D01*
X199000000Y-135200000D02*
X202827500Y-131372500D01*
X197025000Y-122608342D02*
X197025000Y-117450000D01*
X198959620Y-152950000D02*
X202827500Y-149082120D01*
X202827500Y-128410842D02*
X197025000Y-122608342D01*
X197025000Y-99700000D02*
X197381300Y-99343700D01*
X199700000Y-120125000D02*
X202284620Y-120125000D01*
X197025000Y-152950000D02*
X198959620Y-152950000D01*
X197200000Y-79200000D02*
X197025000Y-79375000D01*
X202827500Y-141002500D02*
X197025000Y-135200000D01*
X197025000Y-101000000D02*
X197025000Y-99700000D01*
X192590500Y-73910500D02*
X194615499Y-73910500D01*
X202827500Y-119582120D02*
X202827500Y-105410842D01*
X197381300Y-99343700D02*
X197381300Y-82306300D01*
X202284620Y-120125000D02*
X202827500Y-119582120D01*
X197025000Y-117450000D02*
X199700000Y-120125000D01*
X194615499Y-73910500D02*
X197000000Y-76295001D01*
X197000000Y-76295001D02*
X197000000Y-76600000D01*
X197381300Y-82306300D02*
X197025000Y-81950000D01*
X188560000Y-69880000D02*
X192590500Y-73910500D01*
X202827500Y-149082120D02*
X202827500Y-141002500D01*
X201816658Y-104400000D02*
X200425000Y-104400000D01*
X200425000Y-104400000D02*
X197025000Y-101000000D01*
X197025000Y-135200000D02*
X199000000Y-135200000D01*
X202827500Y-105410842D02*
X201816658Y-104400000D01*
%TO.N,sixth_mod*%
X199150500Y-149089500D02*
X201550000Y-146690000D01*
X192395001Y-148600000D02*
X192884501Y-149089500D01*
X201550000Y-146690000D02*
X201550000Y-148850000D01*
X187625000Y-148600000D02*
X192395001Y-148600000D01*
X185475000Y-150750000D02*
X187625000Y-148600000D01*
X192884501Y-149089500D02*
X199150500Y-149089500D01*
%TO.N,sixth_bottom*%
X191139500Y-131339500D02*
X199150500Y-131339500D01*
X201550000Y-128940000D02*
X201550000Y-131100000D01*
X199150500Y-131339500D02*
X201550000Y-128940000D01*
X190925000Y-131125000D02*
X191139500Y-131339500D01*
X187350000Y-131125000D02*
X190925000Y-131125000D01*
X185475000Y-133000000D02*
X187350000Y-131125000D01*
%TO.N,sixth_home*%
X185475000Y-115250000D02*
X187350000Y-113375000D01*
X195225000Y-115825000D02*
X200185000Y-115825000D01*
X201550000Y-119350000D02*
X201550000Y-117190000D01*
X192775000Y-113375000D02*
X195225000Y-115825000D01*
X187350000Y-113375000D02*
X192775000Y-113375000D01*
X200185000Y-115825000D02*
X201550000Y-117190000D01*
%TO.N,sixth_top*%
X193915000Y-105940000D02*
X201550000Y-105940000D01*
X201550000Y-105940000D02*
X201550000Y-108100000D01*
X185475000Y-97500000D02*
X193915000Y-105940000D01*
%TO.N,sixth_num*%
X192475000Y-77875000D02*
X192689500Y-78089500D01*
X185475000Y-79750000D02*
X187350000Y-77875000D01*
X192689500Y-78089500D02*
X199150500Y-78089500D01*
X199150500Y-78089500D02*
X201550000Y-75690000D01*
X201550000Y-75690000D02*
X201550000Y-77850000D01*
X187350000Y-77875000D02*
X192475000Y-77875000D01*
%TO.N,P113*%
X182800000Y-151310000D02*
X182800000Y-149150000D01*
X201550000Y-154310000D02*
X201550000Y-152150000D01*
X164050000Y-146310000D02*
X164050000Y-144150000D01*
X107800000Y-157310000D02*
X107800000Y-155150000D01*
X145300000Y-150310000D02*
X145300000Y-148150000D01*
X126550000Y-157310000D02*
X126550000Y-155150000D01*
%TO.N,P002*%
X184200000Y-92709620D02*
X184200000Y-85840000D01*
X183309620Y-93600000D02*
X184200000Y-92709620D01*
X180600000Y-93600000D02*
X183309620Y-93600000D01*
X184200000Y-85840000D02*
X183480000Y-85120000D01*
X179900000Y-99900000D02*
X179900000Y-97009620D01*
X182800000Y-115810000D02*
X182800000Y-113650000D01*
X179600000Y-100200000D02*
X179900000Y-99900000D01*
X201550000Y-124810000D02*
X201550000Y-122650000D01*
X164050000Y-109810000D02*
X164050000Y-107650000D01*
X107800000Y-121810000D02*
X107800000Y-119650000D01*
X126550000Y-121810000D02*
X126550000Y-119650000D01*
X179900000Y-97009620D02*
X180600000Y-96309620D01*
X145300000Y-107810000D02*
X145300000Y-105650000D01*
X180600000Y-96309620D02*
X180600000Y-93600000D01*
%TO.N,P029*%
X164050000Y-93060000D02*
X164050000Y-90900000D01*
X201550000Y-113560000D02*
X201550000Y-111400000D01*
X126550000Y-104060000D02*
X126550000Y-101900000D01*
X107800000Y-104060000D02*
X107800000Y-101900000D01*
X182800000Y-98060000D02*
X182800000Y-95900000D01*
X145300000Y-97060000D02*
X145300000Y-94900000D01*
%TO.N,P115*%
X182800000Y-133560000D02*
X182800000Y-131400000D01*
X126550000Y-139560000D02*
X126550000Y-137400000D01*
X107800000Y-132560000D02*
X107800000Y-130400000D01*
X164050000Y-127560000D02*
X164050000Y-125400000D01*
X201550000Y-136560000D02*
X201550000Y-134400000D01*
X145300000Y-132560000D02*
X145300000Y-130400000D01*
%TO.N,P031*%
X145300000Y-79310000D02*
X145300000Y-77150000D01*
X126550000Y-86310000D02*
X126550000Y-84150000D01*
X201550000Y-83310000D02*
X201550000Y-81150000D01*
X182800000Y-80310000D02*
X182800000Y-78150000D01*
X164050000Y-74310000D02*
X164050000Y-72150000D01*
X107800000Y-79310000D02*
X107800000Y-77150000D01*
%TO.N,RAW*%
X197831300Y-86008700D02*
X198720000Y-85120000D01*
X200475000Y-100500000D02*
X200475000Y-99075000D01*
X197831300Y-96431300D02*
X197831300Y-86008700D01*
X200475000Y-99075000D02*
X197831300Y-96431300D01*
%TO.N,GND*%
X203100000Y-88825000D02*
X203100000Y-93075000D01*
X203600000Y-88325000D02*
X203100000Y-88825000D01*
X203600000Y-88325000D02*
X203600000Y-87550000D01*
X203600000Y-87550000D02*
X203050000Y-87000000D01*
X203050000Y-87000000D02*
X199000000Y-87000000D01*
X203100000Y-93075000D02*
X203600000Y-93575000D01*
%TO.N,RST*%
X202400000Y-93075000D02*
X202400000Y-88825000D01*
X202400000Y-88825000D02*
X201900000Y-88325000D01*
X199200000Y-88325000D02*
X201900000Y-88325000D01*
X201900000Y-93575000D02*
X202400000Y-93075000D01*
%TO.N,pos*%
X192045001Y-95000000D02*
X193045001Y-96000000D01*
X181600000Y-95000000D02*
X192045001Y-95000000D01*
X165400000Y-98000000D02*
X168000000Y-100600000D01*
X181400000Y-99425305D02*
X181400000Y-95200000D01*
X199200000Y-96000000D02*
X199200000Y-96225000D01*
X149250000Y-98000000D02*
X165400000Y-98000000D01*
X193045001Y-96000000D02*
X196200000Y-96000000D01*
X181400000Y-95200000D02*
X181600000Y-95000000D01*
X179900305Y-100925000D02*
X181400000Y-99425305D01*
X149250000Y-98000000D02*
X149850000Y-98600000D01*
X168000000Y-100600000D02*
X168325000Y-100925000D01*
X199200000Y-96225000D02*
X200475000Y-97500000D01*
X168325000Y-100925000D02*
X179900305Y-100925000D01*
%TD*%
M02*
