M48
; DRILL file {KiCad 7.0.8} date 2024 July 17, Wednesday 12:42:54
; FORMAT={-:-/ absolute / inch / decimal}
; #@! TF.CreationDate,2024-07-17T12:42:54-03:00
; #@! TF.GenerationSoftware,Kicad,Pcbnew,7.0.8
; #@! TF.FileFunction,Plated,1,2,PTH
FMAT,2
INCH
; #@! TA.AperFunction,Plated,PTH,ViaDrill
T1C0.0157
; #@! TA.AperFunction,Plated,PTH,ComponentDrill
T2C0.0295
; #@! TA.AperFunction,Plated,PTH,ComponentDrill
T3C0.0390
; #@! TA.AperFunction,Plated,PTH,ComponentDrill
T4C0.0430
%
G90
G05
T1
X5.5354Y-2.8031
X5.5354Y-2.9606
X6.2913Y-3.1811
X6.3701Y-3.5039
X6.8661Y-4.0551
X6.9843Y-3.937
X6.9921Y-3.2441
X7.0157Y-3.0157
X7.0157Y-3.7165
X7.0709Y-3.9449
X7.4646Y-3.4331
X7.7244Y-3.7795
X7.7559Y-3.0157
X7.7638Y-3.1181
X7.8346Y-3.4252
X7.8425Y-3.4774
X7.8425Y-3.7795
T2
X5.876Y-3.7795
X5.876Y-3.8583
T3
X4.2441Y-2.8224
X4.2441Y-3.1224
X4.2441Y-3.7969
X4.2441Y-4.0969
X4.2441Y-4.4957
X4.2441Y-4.7957
X4.2441Y-4.9189
X4.2441Y-5.2189
X4.2441Y-5.8933
X4.2441Y-6.1933
X4.9823Y-3.098
X4.9823Y-3.398
X4.9823Y-3.7969
X4.9823Y-4.0969
X4.9823Y-4.4957
X4.9823Y-4.7957
X4.9823Y-5.1945
X4.9823Y-5.4945
X4.9823Y-5.8933
X4.9823Y-6.1933
X5.7205Y-2.8224
X5.7205Y-3.1224
X5.7205Y-3.5213
X5.7205Y-3.8213
X5.7205Y-3.9445
X5.7205Y-4.2445
X5.7205Y-4.9189
X5.7205Y-5.2189
X5.7205Y-5.6177
X5.7205Y-5.9177
X6.4587Y-2.6256
X6.4587Y-2.9256
X6.4587Y-3.3638
X6.4587Y-3.6638
X6.4587Y-4.0232
X6.4587Y-4.3232
X6.4587Y-4.722
X6.4587Y-5.022
X6.4587Y-5.4602
X6.4587Y-5.7602
X7.1969Y-2.8618
X7.1969Y-3.1618
X7.1969Y-3.5606
X7.1969Y-3.8606
X7.1969Y-4.2594
X7.1969Y-4.5594
X7.1969Y-4.9583
X7.1969Y-5.2583
X7.1969Y-5.6571
X7.1969Y-5.9571
X7.935Y-2.9799
X7.935Y-3.2799
X7.935Y-4.1709
X7.935Y-4.4709
X7.935Y-4.6138
X7.935Y-4.9138
X7.935Y-5.0764
X7.935Y-5.3764
X7.935Y-5.7752
X7.935Y-6.0752
T4
X6.7236Y-2.7512
X6.7236Y-3.3512
X6.8236Y-2.7512
X6.8236Y-3.3512
X6.9236Y-2.7512
X6.9236Y-3.3512
X7.0236Y-2.7512
X7.0236Y-3.3512
X7.1236Y-2.7512
X7.1236Y-3.3512
X7.2236Y-2.7512
X7.2236Y-3.3512
X7.3236Y-2.7512
X7.3236Y-3.3512
X7.4236Y-2.7512
X7.4236Y-3.3512
X7.5236Y-2.7512
X7.5236Y-3.3512
X7.6236Y-2.7512
X7.6236Y-3.3512
X7.7236Y-2.7512
X7.7236Y-3.3512
X7.8236Y-2.7512
X7.8236Y-3.3512
T0
M30
