M48
; DRILL file {KiCad 7.0.8} date 2024 July 17, Wednesday 12:42:54
; FORMAT={-:-/ absolute / inch / decimal}
; #@! TF.CreationDate,2024-07-17T12:42:54-03:00
; #@! TF.GenerationSoftware,Kicad,Pcbnew,7.0.8
; #@! TF.FileFunction,NonPlated,1,2,NPTH
FMAT,2
INCH
; #@! TA.AperFunction,NonPlated,NPTH,ComponentDrill
T1C0.0295
; #@! TA.AperFunction,NonPlated,NPTH,ComponentDrill
T2C0.0354
; #@! TA.AperFunction,NonPlated,NPTH,ComponentDrill
T3C0.0670
; #@! TA.AperFunction,NonPlated,NPTH,ComponentDrill
T4C0.1181
; #@! TA.AperFunction,NonPlated,NPTH,ComponentDrill
T5C0.1350
; #@! TA.AperFunction,NonPlated,NPTH,ComponentDrill
T6C0.1575
%
G90
G05
T1
X7.9281Y-3.5807
X8.0364Y-3.5807
T2
X7.9744Y-3.8681
X7.9744Y-3.9862
T3
X3.7205Y-3.1102
X3.7205Y-3.8091
X3.7205Y-4.5079
X3.7205Y-5.2067
X3.7205Y-5.9055
X4.1535Y-3.1102
X4.1535Y-3.8091
X4.1535Y-4.5079
X4.1535Y-5.2067
X4.1535Y-5.9055
X4.4587Y-3.1102
X4.4587Y-3.8091
X4.4587Y-4.5079
X4.4587Y-5.2067
X4.4587Y-5.9055
X4.8917Y-3.1102
X4.8917Y-3.8091
X4.8917Y-4.5079
X4.8917Y-5.2067
X4.8917Y-5.9055
X5.1969Y-2.8346
X5.1969Y-3.5335
X5.1969Y-4.2323
X5.1969Y-4.9311
X5.1969Y-5.6299
X5.6299Y-2.8346
X5.6299Y-3.5335
X5.6299Y-4.2323
X5.6299Y-4.9311
X5.6299Y-5.6299
X5.935Y-2.6378
X5.935Y-3.3366
X5.935Y-4.0354
X5.935Y-4.7343
X5.935Y-5.4331
X6.3681Y-2.6378
X6.3681Y-3.3366
X6.3681Y-4.0354
X6.3681Y-4.7343
X6.3681Y-5.4331
X6.6732Y-2.874
X6.6732Y-3.5728
X6.6732Y-4.2717
X6.6732Y-4.9705
X6.6732Y-5.6693
X7.1063Y-2.874
X7.1063Y-3.5728
X7.1063Y-4.2717
X7.1063Y-4.9705
X7.1063Y-5.6693
X7.4114Y-2.9921
X7.4114Y-3.6909
X7.4114Y-4.3898
X7.4114Y-5.0886
X7.4114Y-5.7874
X7.8445Y-2.9921
X7.8445Y-3.6909
X7.8445Y-4.3898
X7.8445Y-5.0886
X7.8445Y-5.7874
T4
X3.7402Y-3.2579
X3.7402Y-3.9567
X3.7402Y-4.6555
X3.7402Y-5.3543
X3.7402Y-6.0531
X3.937Y-3.3445
X3.937Y-4.0433
X3.937Y-4.7421
X3.937Y-5.4409
X3.937Y-6.1398
X4.4783Y-3.2579
X4.4783Y-3.9567
X4.4783Y-4.6555
X4.4783Y-5.3543
X4.4783Y-6.0531
X4.6752Y-3.3445
X4.6752Y-4.0433
X4.6752Y-4.7421
X4.6752Y-5.4409
X4.6752Y-6.1398
X5.2165Y-2.9823
X5.2165Y-3.6811
X5.2165Y-4.3799
X5.2165Y-5.0787
X5.2165Y-5.7776
X5.4134Y-3.0689
X5.4134Y-3.7677
X5.4134Y-4.4665
X5.4134Y-5.1654
X5.4134Y-5.8642
X5.9547Y-2.7854
X5.9547Y-3.4843
X5.9547Y-4.1831
X5.9547Y-4.8819
X5.9547Y-5.5807
X6.1516Y-2.872
X6.1516Y-3.5709
X6.1516Y-4.2697
X6.1516Y-4.9685
X6.1516Y-5.6673
X6.6929Y-3.0217
X6.6929Y-3.7205
X6.6929Y-4.4193
X6.6929Y-5.1181
X6.6929Y-5.8169
X6.8898Y-3.1083
X6.8898Y-3.8071
X6.8898Y-4.5059
X6.8898Y-5.2047
X6.8898Y-5.9035
X7.4311Y-3.1398
X7.4311Y-3.8386
X7.4311Y-4.5374
X7.4311Y-5.2362
X7.4311Y-5.935
X7.628Y-3.2264
X7.628Y-3.9252
X7.628Y-4.624
X7.628Y-5.3228
X7.628Y-6.0217
T5
X3.937Y-3.1102
X3.937Y-3.8091
X3.937Y-4.5079
X3.937Y-5.2067
X3.937Y-5.9055
X4.6752Y-3.1102
X4.6752Y-3.8091
X4.6752Y-4.5079
X4.6752Y-5.2067
X4.6752Y-5.9055
X5.4134Y-2.8346
X5.4134Y-3.5335
X5.4134Y-4.2323
X5.4134Y-4.9311
X5.4134Y-5.6299
X6.1516Y-2.6378
X6.1516Y-3.3366
X6.1516Y-4.0354
X6.1516Y-4.7343
X6.1516Y-5.4331
X6.8898Y-2.874
X6.8898Y-3.5728
X6.8898Y-4.2717
X6.8898Y-4.9705
X6.8898Y-5.6693
X7.628Y-2.9921
X7.628Y-3.6909
X7.628Y-4.3898
X7.628Y-5.0886
X7.628Y-5.7874
T6
X4.2913Y-5.5413
X4.3209Y-3.4449
X5.7972Y-4.3996
X6.5354Y-3.2382
X6.5354Y-5.3346
T0
M30
