0
SECTION
2
HEADER
9
$INSUNITS
70
4
0
ENDSEC
0
SECTION
2
TABLES
0
TABLE
2
LTYPE
0
LTYPE
72
65
70
64
2
CONTINUOUS
3
______
73
0
40
0
0
ENDTAB
0
TABLE
2
LAYER
0
ENDTAB
0
ENDSEC
0
SECTION
2
ENTITIES
0
LINE
8
0
10
89
20
-158.5
11
89
21
-70.5
0
LINE
8
0
10
91
20
-68.5
11
123.9528389
21
-68.5
0
LINE
8
0
10
125.9414572
20
-66.7130662
11
126.3085428
21
-63.2869338
0
LINE
8
0
10
128.2971611
20
-61.5
11
142.7776252
21
-61.5
0
LINE
8
0
10
144.7554979
20
-59.796681
11
144.9945021
21
-58.203319
0
LINE
8
0
10
146.9723748
20
-56.5
11
165.4844355
21
-56.5
0
LINE
8
0
10
167.4689913
20
-58.2519306
11
167.7810087
21
-60.7480694
0
LINE
8
0
10
169.7655645
20
-62.5
11
184.4384977
21
-62.5
0
LINE
8
0
10
186.3787674
20
-64.0148678
11
186.7501
21
-65.5
0
LINE
8
0
10
186.7501
20
-65.5
11
202.75
21
-65.5
0
LINE
8
0
10
204.75
20
-67.5
11
204.75
21
-155.5
0
LINE
8
0
10
202.75
20
-157.5
11
185.6298035
21
-157.5
0
LINE
8
0
10
184.1554952
20
-156.8514493
11
182.5945048
21
-155.1485507
0
LINE
8
0
10
181.1201965
20
-154.5
11
165.7655645
21
-154.5
0
LINE
8
0
10
163.7810087
20
-152.7480694
11
163.4689913
21
-150.2519306
0
LINE
8
0
10
161.4844355
20
-148.5
11
150.9723748
21
-148.5
0
LINE
8
0
10
148.9945021
20
-150.203319
11
148.7554979
21
-151.796681
0
LINE
8
0
10
146.7776252
20
-153.5
11
132.2971611
21
-153.5
0
LINE
8
0
10
130.3085428
20
-155.2869338
11
129.9414572
21
-158.7130662
0
LINE
8
0
10
91
20
-160.5
11
127.9528389
21
-160.5
0
ARC
8
0
10
91
20
-70.5
40
2
50
90
51
180
0
ARC
8
0
10
123.9528389
20
-66.5
40
2
50
270
51
353.8844981
0
ARC
8
0
10
128.2971611
20
-63.5
40
2
50
90
51
173.8844981
0
ARC
8
0
10
142.7776252
20
-59.5
40
2
50
270
51
351.4692321
0
ARC
8
0
10
146.9723748
20
-58.5
40
2
50
90
51
171.4692321
0
ARC
8
0
10
165.4844355
20
-58.5
40
2
50
7.1250142
51
90
0
ARC
8
0
10
169.7655645
20
-60.5
40
2
50
187.1250142
51
270
0
ARC
8
0
10
184.4384977
20
-64.5
40
2
50
14.038043
51
90
0
ARC
8
0
10
202.75
20
-67.5
40
2
50
0
51
90
0
ARC
8
0
10
202.75
20
-155.5
40
2
50
270
51
0
0
ARC
8
0
10
185.6298035
20
-155.5
40
2
50
222.5104474
51
270
0
ARC
8
0
10
181.1201965
20
-156.5
40
2
50
42.5104474
51
90
0
ARC
8
0
10
165.7655645
20
-152.5
40
2
50
187.1250142
51
270
0
ARC
8
0
10
161.4844355
20
-150.5
40
2
50
7.1250142
51
90
0
ARC
8
0
10
150.9723748
20
-150.5
40
2
50
90
51
171.4692321
0
ARC
8
0
10
146.7776252
20
-151.5
40
2
50
270
51
351.4692321
0
ARC
8
0
10
132.2971611
20
-155.5
40
2
50
90
51
173.8844981
0
ARC
8
0
10
127.9528389
20
-158.5
40
2
50
270
51
353.8844981
0
ARC
8
0
10
91
20
-158.5
40
2
50
180
51
270
0
ENDSEC
0
EOF