0
SECTION
2
HEADER
9
$INSUNITS
70
4
0
ENDSEC
0
SECTION
2
TABLES
0
TABLE
2
LTYPE
0
LTYPE
72
65
70
64
2
CONTINUOUS
3
______
73
0
40
0
0
ENDTAB
0
TABLE
2
LAYER
0
ENDTAB
0
ENDSEC
0
SECTION
2
ENTITIES
0
LINE
8
0
10
92.75
20
-158.25
11
107.25
21
-158.25
0
LINE
8
0
10
108.75
20
-156.75
11
108.75
21
-143.25
0
LINE
8
0
10
107.25
20
-141.75
11
92.75
21
-141.75
0
LINE
8
0
10
91.25
20
-143.25
11
91.25
21
-156.75
0
LINE
8
0
10
92.75
20
-140.5
11
107.25
21
-140.5
0
LINE
8
0
10
108.75
20
-139
11
108.75
21
-125.5
0
LINE
8
0
10
107.25
20
-124
11
92.75
21
-124
0
LINE
8
0
10
91.25
20
-125.5
11
91.25
21
-139
0
LINE
8
0
10
92.75
20
-122.75
11
107.25
21
-122.75
0
LINE
8
0
10
108.75
20
-121.25
11
108.75
21
-107.75
0
LINE
8
0
10
107.25
20
-106.25
11
92.75
21
-106.25
0
LINE
8
0
10
91.25
20
-107.75
11
91.25
21
-121.25
0
LINE
8
0
10
92.75
20
-105
11
107.25
21
-105
0
LINE
8
0
10
108.75
20
-103.5
11
108.75
21
-90
0
LINE
8
0
10
107.25
20
-88.5
11
92.75
21
-88.5
0
LINE
8
0
10
91.25
20
-90
11
91.25
21
-103.5
0
LINE
8
0
10
92.75
20
-87.25
11
107.25
21
-87.25
0
LINE
8
0
10
108.75
20
-85.75
11
108.75
21
-72.25
0
LINE
8
0
10
107.25
20
-70.75
11
92.75
21
-70.75
0
LINE
8
0
10
91.25
20
-72.25
11
91.25
21
-85.75
0
LINE
8
0
10
111.5
20
-158.25
11
126
21
-158.25
0
LINE
8
0
10
127.5
20
-156.75
11
127.5
21
-143.25
0
LINE
8
0
10
126
20
-141.75
11
111.5
21
-141.75
0
LINE
8
0
10
110
20
-143.25
11
110
21
-156.75
0
LINE
8
0
10
111.5
20
-140.5
11
126
21
-140.5
0
LINE
8
0
10
127.5
20
-139
11
127.5
21
-125.5
0
LINE
8
0
10
126
20
-124
11
111.5
21
-124
0
LINE
8
0
10
110
20
-125.5
11
110
21
-139
0
LINE
8
0
10
111.5
20
-122.75
11
126
21
-122.75
0
LINE
8
0
10
127.5
20
-121.25
11
127.5
21
-107.75
0
LINE
8
0
10
126
20
-106.25
11
111.5
21
-106.25
0
LINE
8
0
10
110
20
-107.75
11
110
21
-121.25
0
LINE
8
0
10
111.5
20
-105
11
126
21
-105
0
LINE
8
0
10
127.5
20
-103.5
11
127.5
21
-90
0
LINE
8
0
10
126
20
-88.5
11
111.5
21
-88.5
0
LINE
8
0
10
110
20
-90
11
110
21
-103.5
0
LINE
8
0
10
111.5
20
-87.25
11
126
21
-87.25
0
LINE
8
0
10
127.5
20
-85.75
11
127.5
21
-72.25
0
LINE
8
0
10
126
20
-70.75
11
111.5
21
-70.75
0
LINE
8
0
10
110
20
-72.25
11
110
21
-85.75
0
LINE
8
0
10
130.25
20
-151.25
11
144.75
21
-151.25
0
LINE
8
0
10
146.25
20
-149.75
11
146.25
21
-136.25
0
LINE
8
0
10
144.75
20
-134.75
11
130.25
21
-134.75
0
LINE
8
0
10
128.75
20
-136.25
11
128.75
21
-149.75
0
LINE
8
0
10
130.25
20
-133.5
11
144.75
21
-133.5
0
LINE
8
0
10
146.25
20
-132
11
146.25
21
-118.5
0
LINE
8
0
10
144.75
20
-117
11
130.25
21
-117
0
LINE
8
0
10
128.75
20
-118.5
11
128.75
21
-132
0
LINE
8
0
10
130.25
20
-115.75
11
144.75
21
-115.75
0
LINE
8
0
10
146.25
20
-114.25
11
146.25
21
-100.75
0
LINE
8
0
10
144.75
20
-99.25
11
130.25
21
-99.25
0
LINE
8
0
10
128.75
20
-100.75
11
128.75
21
-114.25
0
LINE
8
0
10
130.25
20
-98
11
144.75
21
-98
0
LINE
8
0
10
146.25
20
-96.5
11
146.25
21
-83
0
LINE
8
0
10
144.75
20
-81.5
11
130.25
21
-81.5
0
LINE
8
0
10
128.75
20
-83
11
128.75
21
-96.5
0
LINE
8
0
10
130.25
20
-80.25
11
144.75
21
-80.25
0
LINE
8
0
10
146.25
20
-78.75
11
146.25
21
-65.25
0
LINE
8
0
10
144.75
20
-63.75
11
130.25
21
-63.75
0
LINE
8
0
10
128.75
20
-65.25
11
128.75
21
-78.75
0
LINE
8
0
10
149
20
-146.25
11
163.5
21
-146.25
0
LINE
8
0
10
165
20
-144.75
11
165
21
-131.25
0
LINE
8
0
10
163.5
20
-129.75
11
149
21
-129.75
0
LINE
8
0
10
147.5
20
-131.25
11
147.5
21
-144.75
0
LINE
8
0
10
149
20
-128.5
11
163.5
21
-128.5
0
LINE
8
0
10
165
20
-127
11
165
21
-113.5
0
LINE
8
0
10
163.5
20
-112
11
149
21
-112
0
LINE
8
0
10
147.5
20
-113.5
11
147.5
21
-127
0
LINE
8
0
10
149
20
-110.75
11
163.5
21
-110.75
0
LINE
8
0
10
165
20
-109.25
11
165
21
-95.75
0
LINE
8
0
10
163.5
20
-94.25
11
149
21
-94.25
0
LINE
8
0
10
147.5
20
-95.75
11
147.5
21
-109.25
0
LINE
8
0
10
149
20
-93
11
163.5
21
-93
0
LINE
8
0
10
165
20
-91.5
11
165
21
-78
0
LINE
8
0
10
163.5
20
-76.5
11
149
21
-76.5
0
LINE
8
0
10
147.5
20
-78
11
147.5
21
-91.5
0
LINE
8
0
10
149
20
-75.25
11
163.5
21
-75.25
0
LINE
8
0
10
165
20
-73.75
11
165
21
-60.25
0
LINE
8
0
10
163.5
20
-58.75
11
149
21
-58.75
0
LINE
8
0
10
147.5
20
-60.25
11
147.5
21
-73.75
0
LINE
8
0
10
167.75
20
-152.25
11
182.25
21
-152.25
0
LINE
8
0
10
183.75
20
-150.75
11
183.75
21
-137.25
0
LINE
8
0
10
182.25
20
-135.75
11
167.75
21
-135.75
0
LINE
8
0
10
166.25
20
-137.25
11
166.25
21
-150.75
0
LINE
8
0
10
167.75
20
-134.5
11
182.25
21
-134.5
0
LINE
8
0
10
183.75
20
-133
11
183.75
21
-119.5
0
LINE
8
0
10
182.25
20
-118
11
167.75
21
-118
0
LINE
8
0
10
166.25
20
-119.5
11
166.25
21
-133
0
LINE
8
0
10
167.75
20
-116.75
11
182.25
21
-116.75
0
LINE
8
0
10
183.75
20
-115.25
11
183.75
21
-101.75
0
LINE
8
0
10
182.25
20
-100.25
11
167.75
21
-100.25
0
LINE
8
0
10
166.25
20
-101.75
11
166.25
21
-115.25
0
LINE
8
0
10
167.75
20
-99
11
182.25
21
-99
0
LINE
8
0
10
183.75
20
-97.5
11
183.75
21
-84
0
LINE
8
0
10
182.25
20
-82.5
11
167.75
21
-82.5
0
LINE
8
0
10
166.25
20
-84
11
166.25
21
-97.5
0
LINE
8
0
10
167.75
20
-81.25
11
182.25
21
-81.25
0
LINE
8
0
10
183.75
20
-79.75
11
183.75
21
-66.25
0
LINE
8
0
10
182.25
20
-64.75
11
167.75
21
-64.75
0
LINE
8
0
10
166.25
20
-66.25
11
166.25
21
-79.75
0
LINE
8
0
10
186.5
20
-155.25
11
201
21
-155.25
0
LINE
8
0
10
202.5
20
-153.75
11
202.5
21
-140.25
0
LINE
8
0
10
201
20
-138.75
11
186.5
21
-138.75
0
LINE
8
0
10
185
20
-140.25
11
185
21
-153.75
0
LINE
8
0
10
186.5
20
-137.5
11
201
21
-137.5
0
LINE
8
0
10
202.5
20
-136
11
202.5
21
-122.5
0
LINE
8
0
10
201
20
-121
11
186.5
21
-121
0
LINE
8
0
10
185
20
-122.5
11
185
21
-136
0
LINE
8
0
10
186.5
20
-119.75
11
201
21
-119.75
0
LINE
8
0
10
202.5
20
-118.25
11
202.5
21
-104.75
0
LINE
8
0
10
201
20
-103.25
11
186.5
21
-103.25
0
LINE
8
0
10
185
20
-104.75
11
185
21
-118.25
0
LINE
8
0
10
186.5
20
-102
11
201
21
-102
0
LINE
8
0
10
202.5
20
-100.5
11
202.5
21
-87
0
LINE
8
0
10
201
20
-85.5
11
186.5
21
-85.5
0
LINE
8
0
10
185
20
-87
11
185
21
-100.5
0
LINE
8
0
10
186.5
20
-84.25
11
201
21
-84.25
0
LINE
8
0
10
202.5
20
-82.75
11
202.5
21
-69.25
0
LINE
8
0
10
201
20
-67.75
11
186.5
21
-67.75
0
LINE
8
0
10
185
20
-69.25
11
185
21
-82.75
0
LINE
8
0
10
340.25
20
-158.25
11
354.75
21
-158.25
0
LINE
8
0
10
356.25
20
-156.75
11
356.25
21
-143.25
0
LINE
8
0
10
354.75
20
-141.75
11
340.25
21
-141.75
0
LINE
8
0
10
338.75
20
-143.25
11
338.75
21
-156.75
0
LINE
8
0
10
340.25
20
-140.5
11
354.75
21
-140.5
0
LINE
8
0
10
356.25
20
-139
11
356.25
21
-125.5
0
LINE
8
0
10
354.75
20
-124
11
340.25
21
-124
0
LINE
8
0
10
338.75
20
-125.5
11
338.75
21
-139
0
LINE
8
0
10
340.25
20
-122.75
11
354.75
21
-122.75
0
LINE
8
0
10
356.25
20
-121.25
11
356.25
21
-107.75
0
LINE
8
0
10
354.75
20
-106.25
11
340.25
21
-106.25
0
LINE
8
0
10
338.75
20
-107.75
11
338.75
21
-121.25
0
LINE
8
0
10
340.25
20
-105
11
354.75
21
-105
0
LINE
8
0
10
356.25
20
-103.5
11
356.25
21
-90
0
LINE
8
0
10
354.75
20
-88.5
11
340.25
21
-88.5
0
LINE
8
0
10
338.75
20
-90
11
338.75
21
-103.5
0
LINE
8
0
10
340.25
20
-87.25
11
354.75
21
-87.25
0
LINE
8
0
10
356.25
20
-85.75
11
356.25
21
-72.25
0
LINE
8
0
10
354.75
20
-70.75
11
340.25
21
-70.75
0
LINE
8
0
10
338.75
20
-72.25
11
338.75
21
-85.75
0
LINE
8
0
10
321.5
20
-158.25
11
336
21
-158.25
0
LINE
8
0
10
337.5
20
-156.75
11
337.5
21
-143.25
0
LINE
8
0
10
336
20
-141.75
11
321.5
21
-141.75
0
LINE
8
0
10
320
20
-143.25
11
320
21
-156.75
0
LINE
8
0
10
321.5
20
-140.5
11
336
21
-140.5
0
LINE
8
0
10
337.5
20
-139
11
337.5
21
-125.5
0
LINE
8
0
10
336
20
-124
11
321.5
21
-124
0
LINE
8
0
10
320
20
-125.5
11
320
21
-139
0
LINE
8
0
10
321.5
20
-122.75
11
336
21
-122.75
0
LINE
8
0
10
337.5
20
-121.25
11
337.5
21
-107.75
0
LINE
8
0
10
336
20
-106.25
11
321.5
21
-106.25
0
LINE
8
0
10
320
20
-107.75
11
320
21
-121.25
0
LINE
8
0
10
321.5
20
-105
11
336
21
-105
0
LINE
8
0
10
337.5
20
-103.5
11
337.5
21
-90
0
LINE
8
0
10
336
20
-88.5
11
321.5
21
-88.5
0
LINE
8
0
10
320
20
-90
11
320
21
-103.5
0
LINE
8
0
10
321.5
20
-87.25
11
336
21
-87.25
0
LINE
8
0
10
337.5
20
-85.75
11
337.5
21
-72.25
0
LINE
8
0
10
336
20
-70.75
11
321.5
21
-70.75
0
LINE
8
0
10
320
20
-72.25
11
320
21
-85.75
0
LINE
8
0
10
302.75
20
-151.25
11
317.25
21
-151.25
0
LINE
8
0
10
318.75
20
-149.75
11
318.75
21
-136.25
0
LINE
8
0
10
317.25
20
-134.75
11
302.75
21
-134.75
0
LINE
8
0
10
301.25
20
-136.25
11
301.25
21
-149.75
0
LINE
8
0
10
302.75
20
-133.5
11
317.25
21
-133.5
0
LINE
8
0
10
318.75
20
-132
11
318.75
21
-118.5
0
LINE
8
0
10
317.25
20
-117
11
302.75
21
-117
0
LINE
8
0
10
301.25
20
-118.5
11
301.25
21
-132
0
LINE
8
0
10
302.75
20
-115.75
11
317.25
21
-115.75
0
LINE
8
0
10
318.75
20
-114.25
11
318.75
21
-100.75
0
LINE
8
0
10
317.25
20
-99.25
11
302.75
21
-99.25
0
LINE
8
0
10
301.25
20
-100.75
11
301.25
21
-114.25
0
LINE
8
0
10
302.75
20
-98
11
317.25
21
-98
0
LINE
8
0
10
318.75
20
-96.5
11
318.75
21
-83
0
LINE
8
0
10
317.25
20
-81.5
11
302.75
21
-81.5
0
LINE
8
0
10
301.25
20
-83
11
301.25
21
-96.5
0
LINE
8
0
10
302.75
20
-80.25
11
317.25
21
-80.25
0
LINE
8
0
10
318.75
20
-78.75
11
318.75
21
-65.25
0
LINE
8
0
10
317.25
20
-63.75
11
302.75
21
-63.75
0
LINE
8
0
10
301.25
20
-65.25
11
301.25
21
-78.75
0
LINE
8
0
10
284
20
-146.25
11
298.5
21
-146.25
0
LINE
8
0
10
300
20
-144.75
11
300
21
-131.25
0
LINE
8
0
10
298.5
20
-129.75
11
284
21
-129.75
0
LINE
8
0
10
282.5
20
-131.25
11
282.5
21
-144.75
0
LINE
8
0
10
284
20
-128.5
11
298.5
21
-128.5
0
LINE
8
0
10
300
20
-127
11
300
21
-113.5
0
LINE
8
0
10
298.5
20
-112
11
284
21
-112
0
LINE
8
0
10
282.5
20
-113.5
11
282.5
21
-127
0
LINE
8
0
10
284
20
-110.75
11
298.5
21
-110.75
0
LINE
8
0
10
300
20
-109.25
11
300
21
-95.75
0
LINE
8
0
10
298.5
20
-94.25
11
284
21
-94.25
0
LINE
8
0
10
282.5
20
-95.75
11
282.5
21
-109.25
0
LINE
8
0
10
284
20
-93
11
298.5
21
-93
0
LINE
8
0
10
300
20
-91.5
11
300
21
-78
0
LINE
8
0
10
298.5
20
-76.5
11
284
21
-76.5
0
LINE
8
0
10
282.5
20
-78
11
282.5
21
-91.5
0
LINE
8
0
10
284
20
-75.25
11
298.5
21
-75.25
0
LINE
8
0
10
300
20
-73.75
11
300
21
-60.25
0
LINE
8
0
10
298.5
20
-58.75
11
284
21
-58.75
0
LINE
8
0
10
282.5
20
-60.25
11
282.5
21
-73.75
0
LINE
8
0
10
265.25
20
-152.25
11
279.75
21
-152.25
0
LINE
8
0
10
281.25
20
-150.75
11
281.25
21
-137.25
0
LINE
8
0
10
279.75
20
-135.75
11
265.25
21
-135.75
0
LINE
8
0
10
263.75
20
-137.25
11
263.75
21
-150.75
0
LINE
8
0
10
265.25
20
-134.5
11
279.75
21
-134.5
0
LINE
8
0
10
281.25
20
-133
11
281.25
21
-119.5
0
LINE
8
0
10
279.75
20
-118
11
265.25
21
-118
0
LINE
8
0
10
263.75
20
-119.5
11
263.75
21
-133
0
LINE
8
0
10
265.25
20
-116.75
11
279.75
21
-116.75
0
LINE
8
0
10
281.25
20
-115.25
11
281.25
21
-101.75
0
LINE
8
0
10
279.75
20
-100.25
11
265.25
21
-100.25
0
LINE
8
0
10
263.75
20
-101.75
11
263.75
21
-115.25
0
LINE
8
0
10
265.25
20
-99
11
279.75
21
-99
0
LINE
8
0
10
281.25
20
-97.5
11
281.25
21
-84
0
LINE
8
0
10
279.75
20
-82.5
11
265.25
21
-82.5
0
LINE
8
0
10
263.75
20
-84
11
263.75
21
-97.5
0
LINE
8
0
10
265.25
20
-81.25
11
279.75
21
-81.25
0
LINE
8
0
10
281.25
20
-79.75
11
281.25
21
-66.25
0
LINE
8
0
10
279.75
20
-64.75
11
265.25
21
-64.75
0
LINE
8
0
10
263.75
20
-66.25
11
263.75
21
-79.75
0
LINE
8
0
10
246.5
20
-155.25
11
261
21
-155.25
0
LINE
8
0
10
262.5
20
-153.75
11
262.5
21
-140.25
0
LINE
8
0
10
261
20
-138.75
11
246.5
21
-138.75
0
LINE
8
0
10
245
20
-140.25
11
245
21
-153.75
0
LINE
8
0
10
246.5
20
-137.5
11
261
21
-137.5
0
LINE
8
0
10
262.5
20
-136
11
262.5
21
-122.5
0
LINE
8
0
10
261
20
-121
11
246.5
21
-121
0
LINE
8
0
10
245
20
-122.5
11
245
21
-136
0
LINE
8
0
10
246.5
20
-119.75
11
261
21
-119.75
0
LINE
8
0
10
262.5
20
-118.25
11
262.5
21
-104.75
0
LINE
8
0
10
261
20
-103.25
11
246.5
21
-103.25
0
LINE
8
0
10
245
20
-104.75
11
245
21
-118.25
0
LINE
8
0
10
246.5
20
-102
11
261
21
-102
0
LINE
8
0
10
262.5
20
-100.5
11
262.5
21
-87
0
LINE
8
0
10
261
20
-85.5
11
246.5
21
-85.5
0
LINE
8
0
10
245
20
-87
11
245
21
-100.5
0
LINE
8
0
10
246.5
20
-84.25
11
261
21
-84.25
0
LINE
8
0
10
262.5
20
-82.75
11
262.5
21
-69.25
0
LINE
8
0
10
261
20
-67.75
11
246.5
21
-67.75
0
LINE
8
0
10
245
20
-69.25
11
245
21
-82.75
0
ARC
8
0
10
107.25
20
-156.75
40
1.5
50
270
51
0
0
ARC
8
0
10
107.25
20
-143.25
40
1.5
50
0
51
90
0
ARC
8
0
10
92.75
20
-143.25
40
1.5
50
90
51
180
0
ARC
8
0
10
92.75
20
-156.75
40
1.5
50
180
51
270
0
ARC
8
0
10
107.25
20
-139
40
1.5
50
270
51
0
0
ARC
8
0
10
107.25
20
-125.5
40
1.5
50
0
51
90
0
ARC
8
0
10
92.75
20
-125.5
40
1.5
50
90
51
180
0
ARC
8
0
10
92.75
20
-139
40
1.5
50
180
51
270
0
ARC
8
0
10
107.25
20
-121.25
40
1.5
50
270
51
0
0
ARC
8
0
10
107.25
20
-107.75
40
1.5
50
0
51
90
0
ARC
8
0
10
92.75
20
-107.75
40
1.5
50
90
51
180
0
ARC
8
0
10
92.75
20
-121.25
40
1.5
50
180
51
270
0
ARC
8
0
10
107.25
20
-103.5
40
1.5
50
270
51
0
0
ARC
8
0
10
107.25
20
-90
40
1.5
50
0
51
90
0
ARC
8
0
10
92.75
20
-90
40
1.5
50
90
51
180
0
ARC
8
0
10
92.75
20
-103.5
40
1.5
50
180
51
270
0
ARC
8
0
10
107.25
20
-85.75
40
1.5
50
270
51
0
0
ARC
8
0
10
107.25
20
-72.25
40
1.5
50
0
51
90
0
ARC
8
0
10
92.75
20
-72.25
40
1.5
50
90
51
180
0
ARC
8
0
10
92.75
20
-85.75
40
1.5
50
180
51
270
0
ARC
8
0
10
126
20
-156.75
40
1.5
50
270
51
0
0
ARC
8
0
10
126
20
-143.25
40
1.5
50
0
51
90
0
ARC
8
0
10
111.5
20
-143.25
40
1.5
50
90
51
180
0
ARC
8
0
10
111.5
20
-156.75
40
1.5
50
180
51
270
0
ARC
8
0
10
126
20
-139
40
1.5
50
270
51
0
0
ARC
8
0
10
126
20
-125.5
40
1.5
50
0
51
90
0
ARC
8
0
10
111.5
20
-125.5
40
1.5
50
90
51
180
0
ARC
8
0
10
111.5
20
-139
40
1.5
50
180
51
270
0
ARC
8
0
10
126
20
-121.25
40
1.5
50
270
51
0
0
ARC
8
0
10
126
20
-107.75
40
1.5
50
0
51
90
0
ARC
8
0
10
111.5
20
-107.75
40
1.5
50
90
51
180
0
ARC
8
0
10
111.5
20
-121.25
40
1.5
50
180
51
270
0
ARC
8
0
10
126
20
-103.5
40
1.5
50
270
51
0
0
ARC
8
0
10
126
20
-90
40
1.5
50
0
51
90
0
ARC
8
0
10
111.5
20
-90
40
1.5
50
90
51
180
0
ARC
8
0
10
111.5
20
-103.5
40
1.5
50
180
51
270
0
ARC
8
0
10
126
20
-85.75
40
1.5
50
270
51
0
0
ARC
8
0
10
126
20
-72.25
40
1.5
50
0
51
90
0
ARC
8
0
10
111.5
20
-72.25
40
1.5
50
90
51
180
0
ARC
8
0
10
111.5
20
-85.75
40
1.5
50
180
51
270
0
ARC
8
0
10
144.75
20
-149.75
40
1.5
50
270
51
0
0
ARC
8
0
10
144.75
20
-136.25
40
1.5
50
0
51
90
0
ARC
8
0
10
130.25
20
-136.25
40
1.5
50
90
51
180
0
ARC
8
0
10
130.25
20
-149.75
40
1.5
50
180
51
270
0
ARC
8
0
10
144.75
20
-132
40
1.5
50
270
51
0
0
ARC
8
0
10
144.75
20
-118.5
40
1.5
50
0
51
90
0
ARC
8
0
10
130.25
20
-118.5
40
1.5
50
90
51
180
0
ARC
8
0
10
130.25
20
-132
40
1.5
50
180
51
270
0
ARC
8
0
10
144.75
20
-114.25
40
1.5
50
270
51
0
0
ARC
8
0
10
144.75
20
-100.75
40
1.5
50
0
51
90
0
ARC
8
0
10
130.25
20
-100.75
40
1.5
50
90
51
180
0
ARC
8
0
10
130.25
20
-114.25
40
1.5
50
180
51
270
0
ARC
8
0
10
144.75
20
-96.5
40
1.5
50
270
51
0
0
ARC
8
0
10
144.75
20
-83
40
1.5
50
0
51
90
0
ARC
8
0
10
130.25
20
-83
40
1.5
50
90
51
180
0
ARC
8
0
10
130.25
20
-96.5
40
1.5
50
180
51
270
0
ARC
8
0
10
144.75
20
-78.75
40
1.5
50
270
51
0
0
ARC
8
0
10
144.75
20
-65.25
40
1.5
50
0
51
90
0
ARC
8
0
10
130.25
20
-65.25
40
1.5
50
90
51
180
0
ARC
8
0
10
130.25
20
-78.75
40
1.5
50
180
51
270
0
ARC
8
0
10
163.5
20
-144.75
40
1.5
50
270
51
0
0
ARC
8
0
10
163.5
20
-131.25
40
1.5
50
0
51
90
0
ARC
8
0
10
149
20
-131.25
40
1.5
50
90
51
180
0
ARC
8
0
10
149
20
-144.75
40
1.5
50
180
51
270
0
ARC
8
0
10
163.5
20
-127
40
1.5
50
270
51
0
0
ARC
8
0
10
163.5
20
-113.5
40
1.5
50
0
51
90
0
ARC
8
0
10
149
20
-113.5
40
1.5
50
90
51
180
0
ARC
8
0
10
149
20
-127
40
1.5
50
180
51
270
0
ARC
8
0
10
163.5
20
-109.25
40
1.5
50
270
51
0
0
ARC
8
0
10
163.5
20
-95.75
40
1.5
50
0
51
90
0
ARC
8
0
10
149
20
-95.75
40
1.5
50
90
51
180
0
ARC
8
0
10
149
20
-109.25
40
1.5
50
180
51
270
0
ARC
8
0
10
163.5
20
-91.5
40
1.5
50
270
51
0
0
ARC
8
0
10
163.5
20
-78
40
1.5
50
0
51
90
0
ARC
8
0
10
149
20
-78
40
1.5
50
90
51
180
0
ARC
8
0
10
149
20
-91.5
40
1.5
50
180
51
270
0
ARC
8
0
10
163.5
20
-73.75
40
1.5
50
270
51
0
0
ARC
8
0
10
163.5
20
-60.25
40
1.5
50
0
51
90
0
ARC
8
0
10
149
20
-60.25
40
1.5
50
90
51
180
0
ARC
8
0
10
149
20
-73.75
40
1.5
50
180
51
270
0
ARC
8
0
10
182.25
20
-150.75
40
1.5
50
270
51
0
0
ARC
8
0
10
182.25
20
-137.25
40
1.5
50
0
51
90
0
ARC
8
0
10
167.75
20
-137.25
40
1.5
50
90
51
180
0
ARC
8
0
10
167.75
20
-150.75
40
1.5
50
180
51
270
0
ARC
8
0
10
182.25
20
-133
40
1.5
50
270
51
0
0
ARC
8
0
10
182.25
20
-119.5
40
1.5
50
0
51
90
0
ARC
8
0
10
167.75
20
-119.5
40
1.5
50
90
51
180
0
ARC
8
0
10
167.75
20
-133
40
1.5
50
180
51
270
0
ARC
8
0
10
182.25
20
-115.25
40
1.5
50
270
51
0
0
ARC
8
0
10
182.25
20
-101.75
40
1.5
50
0
51
90
0
ARC
8
0
10
167.75
20
-101.75
40
1.5
50
90
51
180
0
ARC
8
0
10
167.75
20
-115.25
40
1.5
50
180
51
270
0
ARC
8
0
10
182.25
20
-97.5
40
1.5
50
270
51
0
0
ARC
8
0
10
182.25
20
-84
40
1.5
50
0
51
90
0
ARC
8
0
10
167.75
20
-84
40
1.5
50
90
51
180
0
ARC
8
0
10
167.75
20
-97.5
40
1.5
50
180
51
270
0
ARC
8
0
10
182.25
20
-79.75
40
1.5
50
270
51
0
0
ARC
8
0
10
182.25
20
-66.25
40
1.5
50
0
51
90
0
ARC
8
0
10
167.75
20
-66.25
40
1.5
50
90
51
180
0
ARC
8
0
10
167.75
20
-79.75
40
1.5
50
180
51
270
0
ARC
8
0
10
201
20
-153.75
40
1.5
50
270
51
0
0
ARC
8
0
10
201
20
-140.25
40
1.5
50
0
51
90
0
ARC
8
0
10
186.5
20
-140.25
40
1.5
50
90
51
180
0
ARC
8
0
10
186.5
20
-153.75
40
1.5
50
180
51
270
0
ARC
8
0
10
201
20
-136
40
1.5
50
270
51
0
0
ARC
8
0
10
201
20
-122.5
40
1.5
50
0
51
90
0
ARC
8
0
10
186.5
20
-122.5
40
1.5
50
90
51
180
0
ARC
8
0
10
186.5
20
-136
40
1.5
50
180
51
270
0
ARC
8
0
10
201
20
-118.25
40
1.5
50
270
51
0
0
ARC
8
0
10
201
20
-104.75
40
1.5
50
0
51
90
0
ARC
8
0
10
186.5
20
-104.75
40
1.5
50
90
51
180
0
ARC
8
0
10
186.5
20
-118.25
40
1.5
50
180
51
270
0
ARC
8
0
10
201
20
-100.5
40
1.5
50
270
51
0
0
ARC
8
0
10
201
20
-87
40
1.5
50
0
51
90
0
ARC
8
0
10
186.5
20
-87
40
1.5
50
90
51
180
0
ARC
8
0
10
186.5
20
-100.5
40
1.5
50
180
51
270
0
ARC
8
0
10
201
20
-82.75
40
1.5
50
270
51
0
0
ARC
8
0
10
201
20
-69.25
40
1.5
50
0
51
90
0
ARC
8
0
10
186.5
20
-69.25
40
1.5
50
90
51
180
0
ARC
8
0
10
186.5
20
-82.75
40
1.5
50
180
51
270
0
ARC
8
0
10
354.75
20
-156.75
40
1.5
50
270
51
0
0
ARC
8
0
10
354.75
20
-143.25
40
1.5
50
0
51
90
0
ARC
8
0
10
340.25
20
-143.25
40
1.5
50
90
51
180
0
ARC
8
0
10
340.25
20
-156.75
40
1.5
50
180
51
270
0
ARC
8
0
10
354.75
20
-139
40
1.5
50
270
51
0
0
ARC
8
0
10
354.75
20
-125.5
40
1.5
50
0
51
90
0
ARC
8
0
10
340.25
20
-125.5
40
1.5
50
90
51
180
0
ARC
8
0
10
340.25
20
-139
40
1.5
50
180
51
270
0
ARC
8
0
10
354.75
20
-121.25
40
1.5
50
270
51
0
0
ARC
8
0
10
354.75
20
-107.75
40
1.5
50
0
51
90
0
ARC
8
0
10
340.25
20
-107.75
40
1.5
50
90
51
180
0
ARC
8
0
10
340.25
20
-121.25
40
1.5
50
180
51
270
0
ARC
8
0
10
354.75
20
-103.5
40
1.5
50
270
51
0
0
ARC
8
0
10
354.75
20
-90
40
1.5
50
0
51
90
0
ARC
8
0
10
340.25
20
-90
40
1.5
50
90
51
180
0
ARC
8
0
10
340.25
20
-103.5
40
1.5
50
180
51
270
0
ARC
8
0
10
354.75
20
-85.75
40
1.5
50
270
51
0
0
ARC
8
0
10
354.75
20
-72.25
40
1.5
50
0
51
90
0
ARC
8
0
10
340.25
20
-72.25
40
1.5
50
90
51
180
0
ARC
8
0
10
340.25
20
-85.75
40
1.5
50
180
51
270
0
ARC
8
0
10
336
20
-156.75
40
1.5
50
270
51
0
0
ARC
8
0
10
336
20
-143.25
40
1.5
50
0
51
90
0
ARC
8
0
10
321.5
20
-143.25
40
1.5
50
90
51
180
0
ARC
8
0
10
321.5
20
-156.75
40
1.5
50
180
51
270
0
ARC
8
0
10
336
20
-139
40
1.5
50
270
51
0
0
ARC
8
0
10
336
20
-125.5
40
1.5
50
0
51
90
0
ARC
8
0
10
321.5
20
-125.5
40
1.5
50
90
51
180
0
ARC
8
0
10
321.5
20
-139
40
1.5
50
180
51
270
0
ARC
8
0
10
336
20
-121.25
40
1.5
50
270
51
0
0
ARC
8
0
10
336
20
-107.75
40
1.5
50
0
51
90
0
ARC
8
0
10
321.5
20
-107.75
40
1.5
50
90
51
180
0
ARC
8
0
10
321.5
20
-121.25
40
1.5
50
180
51
270
0
ARC
8
0
10
336
20
-103.5
40
1.5
50
270
51
0
0
ARC
8
0
10
336
20
-90
40
1.5
50
0
51
90
0
ARC
8
0
10
321.5
20
-90
40
1.5
50
90
51
180
0
ARC
8
0
10
321.5
20
-103.5
40
1.5
50
180
51
270
0
ARC
8
0
10
336
20
-85.75
40
1.5
50
270
51
0
0
ARC
8
0
10
336
20
-72.25
40
1.5
50
0
51
90
0
ARC
8
0
10
321.5
20
-72.25
40
1.5
50
90
51
180
0
ARC
8
0
10
321.5
20
-85.75
40
1.5
50
180
51
270
0
ARC
8
0
10
317.25
20
-149.75
40
1.5
50
270
51
0
0
ARC
8
0
10
317.25
20
-136.25
40
1.5
50
0
51
90
0
ARC
8
0
10
302.75
20
-136.25
40
1.5
50
90
51
180
0
ARC
8
0
10
302.75
20
-149.75
40
1.5
50
180
51
270
0
ARC
8
0
10
317.25
20
-132
40
1.5
50
270
51
0
0
ARC
8
0
10
317.25
20
-118.5
40
1.5
50
0
51
90
0
ARC
8
0
10
302.75
20
-118.5
40
1.5
50
90
51
180
0
ARC
8
0
10
302.75
20
-132
40
1.5
50
180
51
270
0
ARC
8
0
10
317.25
20
-114.25
40
1.5
50
270
51
0
0
ARC
8
0
10
317.25
20
-100.75
40
1.5
50
0
51
90
0
ARC
8
0
10
302.75
20
-100.75
40
1.5
50
90
51
180
0
ARC
8
0
10
302.75
20
-114.25
40
1.5
50
180
51
270
0
ARC
8
0
10
317.25
20
-96.5
40
1.5
50
270
51
0
0
ARC
8
0
10
317.25
20
-83
40
1.5
50
0
51
90
0
ARC
8
0
10
302.75
20
-83
40
1.5
50
90
51
180
0
ARC
8
0
10
302.75
20
-96.5
40
1.5
50
180
51
270
0
ARC
8
0
10
317.25
20
-78.75
40
1.5
50
270
51
0
0
ARC
8
0
10
317.25
20
-65.25
40
1.5
50
0
51
90
0
ARC
8
0
10
302.75
20
-65.25
40
1.5
50
90
51
180
0
ARC
8
0
10
302.75
20
-78.75
40
1.5
50
180
51
270
0
ARC
8
0
10
298.5
20
-144.75
40
1.5
50
270
51
0
0
ARC
8
0
10
298.5
20
-131.25
40
1.5
50
0
51
90
0
ARC
8
0
10
284
20
-131.25
40
1.5
50
90
51
180
0
ARC
8
0
10
284
20
-144.75
40
1.5
50
180
51
270
0
ARC
8
0
10
298.5
20
-127
40
1.5
50
270
51
0
0
ARC
8
0
10
298.5
20
-113.5
40
1.5
50
0
51
90
0
ARC
8
0
10
284
20
-113.5
40
1.5
50
90
51
180
0
ARC
8
0
10
284
20
-127
40
1.5
50
180
51
270
0
ARC
8
0
10
298.5
20
-109.25
40
1.5
50
270
51
0
0
ARC
8
0
10
298.5
20
-95.75
40
1.5
50
0
51
90
0
ARC
8
0
10
284
20
-95.75
40
1.5
50
90
51
180
0
ARC
8
0
10
284
20
-109.25
40
1.5
50
180
51
270
0
ARC
8
0
10
298.5
20
-91.5
40
1.5
50
270
51
0
0
ARC
8
0
10
298.5
20
-78
40
1.5
50
0
51
90
0
ARC
8
0
10
284
20
-78
40
1.5
50
90
51
180
0
ARC
8
0
10
284
20
-91.5
40
1.5
50
180
51
270
0
ARC
8
0
10
298.5
20
-73.75
40
1.5
50
270
51
0
0
ARC
8
0
10
298.5
20
-60.25
40
1.5
50
0
51
90
0
ARC
8
0
10
284
20
-60.25
40
1.5
50
90
51
180
0
ARC
8
0
10
284
20
-73.75
40
1.5
50
180
51
270
0
ARC
8
0
10
279.75
20
-150.75
40
1.5
50
270
51
0
0
ARC
8
0
10
279.75
20
-137.25
40
1.5
50
0
51
90
0
ARC
8
0
10
265.25
20
-137.25
40
1.5
50
90
51
180
0
ARC
8
0
10
265.25
20
-150.75
40
1.5
50
180
51
270
0
ARC
8
0
10
279.75
20
-133
40
1.5
50
270
51
0
0
ARC
8
0
10
279.75
20
-119.5
40
1.5
50
0
51
90
0
ARC
8
0
10
265.25
20
-119.5
40
1.5
50
90
51
180
0
ARC
8
0
10
265.25
20
-133
40
1.5
50
180
51
270
0
ARC
8
0
10
279.75
20
-115.25
40
1.5
50
270
51
0
0
ARC
8
0
10
279.75
20
-101.75
40
1.5
50
0
51
90
0
ARC
8
0
10
265.25
20
-101.75
40
1.5
50
90
51
180
0
ARC
8
0
10
265.25
20
-115.25
40
1.5
50
180
51
270
0
ARC
8
0
10
279.75
20
-97.5
40
1.5
50
270
51
0
0
ARC
8
0
10
279.75
20
-84
40
1.5
50
0
51
90
0
ARC
8
0
10
265.25
20
-84
40
1.5
50
90
51
180
0
ARC
8
0
10
265.25
20
-97.5
40
1.5
50
180
51
270
0
ARC
8
0
10
279.75
20
-79.75
40
1.5
50
270
51
0
0
ARC
8
0
10
279.75
20
-66.25
40
1.5
50
0
51
90
0
ARC
8
0
10
265.25
20
-66.25
40
1.5
50
90
51
180
0
ARC
8
0
10
265.25
20
-79.75
40
1.5
50
180
51
270
0
ARC
8
0
10
261
20
-153.75
40
1.5
50
270
51
0
0
ARC
8
0
10
261
20
-140.25
40
1.5
50
0
51
90
0
ARC
8
0
10
246.5
20
-140.25
40
1.5
50
90
51
180
0
ARC
8
0
10
246.5
20
-153.75
40
1.5
50
180
51
270
0
ARC
8
0
10
261
20
-136
40
1.5
50
270
51
0
0
ARC
8
0
10
261
20
-122.5
40
1.5
50
0
51
90
0
ARC
8
0
10
246.5
20
-122.5
40
1.5
50
90
51
180
0
ARC
8
0
10
246.5
20
-136
40
1.5
50
180
51
270
0
ARC
8
0
10
261
20
-118.25
40
1.5
50
270
51
0
0
ARC
8
0
10
261
20
-104.75
40
1.5
50
0
51
90
0
ARC
8
0
10
246.5
20
-104.75
40
1.5
50
90
51
180
0
ARC
8
0
10
246.5
20
-118.25
40
1.5
50
180
51
270
0
ARC
8
0
10
261
20
-100.5
40
1.5
50
270
51
0
0
ARC
8
0
10
261
20
-87
40
1.5
50
0
51
90
0
ARC
8
0
10
246.5
20
-87
40
1.5
50
90
51
180
0
ARC
8
0
10
246.5
20
-100.5
40
1.5
50
180
51
270
0
ARC
8
0
10
261
20
-82.75
40
1.5
50
270
51
0
0
ARC
8
0
10
261
20
-69.25
40
1.5
50
0
51
90
0
ARC
8
0
10
246.5
20
-69.25
40
1.5
50
90
51
180
0
ARC
8
0
10
246.5
20
-82.75
40
1.5
50
180
51
270
0
ENDSEC
0
EOF