0
SECTION
2
HEADER
9
$INSUNITS
70
4
0
ENDSEC
0
SECTION
2
TABLES
0
TABLE
2
LTYPE
0
LTYPE
72
65
70
64
2
CONTINUOUS
3
______
73
0
40
0
0
ENDTAB
0
TABLE
2
LAYER
0
ENDTAB
0
ENDSEC
0
SECTION
2
ENTITIES
0
LINE
8
0
10
104.2334063
20
-8.5822042
11
97.8199514
21
-23.2961462
0
LINE
8
0
10
97.604579
20
-23.672579
11
86.9175445
21
-38.3820202
0
LINE
8
0
10
84.1239399
20
-38.8244835
11
71.2996217
21
-29.5070709
0
LINE
8
0
10
71.0481743
20
-29.3514092
11
68.8433314
21
-28.2026517
0
LINE
8
0
10
68.5372423
20
-28.0742343
11
55.1393729
21
-23.7210027
0
LINE
8
0
10
54.8563813
20
-23.6513787
11
52.3663289
21
-23.228263
0
LINE
8
0
10
52.0312865
20
-23.2
11
35.5349125
21
-23.2
0
LINE
8
0
10
33.6879191
20
-21.9672126
11
29.3120809
21
-11.4327874
0
LINE
8
0
10
-8.8
20
-10.2
11
27.4650875
21
-10.2
0
LINE
8
0
10
-10.8
20
-8.2
11
-10.8
21
42.2
0
LINE
8
0
10
-8.8
20
44.2
11
5.9068288
21
44.2
0
LINE
8
0
10
7.7306718
20
45.3792706
11
8.4693282
21
47.0207294
0
LINE
8
0
10
10.2931712
20
48.2
11
24.6438349
21
48.2
0
LINE
8
0
10
25.6763229
20
48.4871168
11
28.312767
21
50.0763068
0
LINE
8
0
10
29.3688644
20
50.3632842
11
42.6943615
21
50.2059693
0
LINE
8
0
10
43.6420379
20
49.9544234
11
46.3469664
21
48.4516854
0
LINE
8
0
10
47.3182522
20
48.2
11
62.1092752
21
48.2
0
LINE
8
0
10
63.5958635
20
47.5379295
11
64.8
21
46.2
0
LINE
8
0
10
64.8
20
46.2
11
79.7958372
21
46.2
0
LINE
8
0
10
81.563413
20
45.1357754
11
82.236587
21
43.8642246
0
LINE
8
0
10
84.0041628
20
42.8
11
102.4
21
42.8
0
LINE
8
0
10
104.4
20
40.8
11
104.4
21
-7.7830664
0
ARC
8
0
10
95.9865451
20
-22.4970084
40
2
50
323.999998
51
336.4487674
0
ARC
8
0
10
85.2995105
20
-37.2064496
40
2
50
233.999998
51
323.999998
0
ARC
8
0
10
70.1240511
20
-31.1251048
40
2
50
53.999998
51
62.4797828
0
ARC
8
0
10
67.9192083
20
-29.9763473
40
2
50
62.4797828
51
71.9999994
0
ARC
8
0
10
54.5213389
20
-25.6231157
40
2
50
71.9999994
51
80.3562727
0
ARC
8
0
10
52.0312865
20
-25.2
40
2
50
80.3562727
51
90
0
ARC
8
0
10
35.5349125
20
-21.2
40
2
50
202.5572455
51
270
0
ARC
8
0
10
27.4650875
20
-12.2
40
2
50
22.5572455
51
90
0
ARC
8
0
10
-8.8
20
-8.2
40
2
50
180
51
270
0
ARC
8
0
10
-8.8
20
42.2
40
2
50
90
51
180
0
ARC
8
0
10
5.9068288
20
46.2
40
2
50
270
51
335.7722534
0
ARC
8
0
10
10.2931712
20
46.2
40
2
50
90
51
155.7722534
0
ARC
8
0
10
24.6438349
20
50.2
40
2
50
270
51
301.0806406
0
ARC
8
0
10
29.345255
20
48.3634236
40
2
50
89.3236248
51
121.0806406
0
ARC
8
0
10
42.6707521
20
48.2061087
40
2
50
60.9453981
51
89.3236248
0
ARC
8
0
10
47.3182522
20
50.2
40
2
50
240.9453981
51
270
0
ARC
8
0
10
62.1092752
20
46.2
40
2
50
41.9872129
51
90
0
ARC
8
0
10
79.7958372
20
44.2
40
2
50
27.8972704
51
90
0
ARC
8
0
10
84.0041628
20
44.8
40
2
50
207.8972704
51
270
0
ARC
8
0
10
102.4
20
40.8
40
2
50
0
51
90
0
ARC
8
0
10
102.4
20
-7.7830664
40
2
50
336.4487674
51
0
0
LINE
8
0
10
-6.75
20
-8.25
11
6.75
21
-8.25
0
LINE
8
0
10
8.75
20
-6.25
11
8.75
21
6.25
0
LINE
8
0
10
6.75
20
8.25
11
-6.75
21
8.25
0
LINE
8
0
10
-8.75
20
6.25
11
-8.75
21
-6.25
0
LINE
8
0
10
-6.75
20
8.75
11
6.75
21
8.75
0
LINE
8
0
10
8.75
20
10.75
11
8.75
21
23.25
0
LINE
8
0
10
6.75
20
25.25
11
-6.75
21
25.25
0
LINE
8
0
10
-8.75
20
23.25
11
-8.75
21
10.75
0
LINE
8
0
10
-6.75
20
25.75
11
6.75
21
25.75
0
LINE
8
0
10
8.75
20
27.75
11
8.75
21
40.25
0
LINE
8
0
10
6.75
20
42.25
11
-6.75
21
42.25
0
LINE
8
0
10
-8.75
20
40.25
11
-8.75
21
27.75
0
LINE
8
0
10
11.25
20
-4.25
11
24.75
21
-4.25
0
LINE
8
0
10
26.75
20
-2.25
11
26.75
21
10.25
0
LINE
8
0
10
24.75
20
12.25
11
11.25
21
12.25
0
LINE
8
0
10
9.25
20
10.25
11
9.25
21
-2.25
0
LINE
8
0
10
11.25
20
12.75
11
24.75
21
12.75
0
LINE
8
0
10
26.75
20
14.75
11
26.75
21
27.25
0
LINE
8
0
10
24.75
20
29.25
11
11.25
21
29.25
0
LINE
8
0
10
9.25
20
27.25
11
9.25
21
14.75
0
LINE
8
0
10
11.25
20
29.75
11
24.75
21
29.75
0
LINE
8
0
10
26.75
20
31.75
11
26.75
21
44.25
0
LINE
8
0
10
24.75
20
46.25
11
11.25
21
46.25
0
LINE
8
0
10
9.25
20
44.25
11
9.25
21
31.75
0
LINE
8
0
10
29.25
20
-2.25
11
42.75
21
-2.25
0
LINE
8
0
10
44.75
20
-0.25
11
44.75
21
12.25
0
LINE
8
0
10
42.75
20
14.25
11
29.25
21
14.25
0
LINE
8
0
10
27.25
20
12.25
11
27.25
21
-0.25
0
LINE
8
0
10
29.25
20
14.75
11
42.75
21
14.75
0
LINE
8
0
10
44.75
20
16.75
11
44.75
21
29.25
0
LINE
8
0
10
42.75
20
31.25
11
29.25
21
31.25
0
LINE
8
0
10
27.25
20
29.25
11
27.25
21
16.75
0
LINE
8
0
10
29.25
20
31.75
11
42.75
21
31.75
0
LINE
8
0
10
44.75
20
33.75
11
44.75
21
46.25
0
LINE
8
0
10
42.75
20
48.25
11
29.25
21
48.25
0
LINE
8
0
10
27.25
20
46.25
11
27.25
21
33.75
0
LINE
8
0
10
47.25
20
-4.25
11
60.75
21
-4.25
0
LINE
8
0
10
62.75
20
-2.25
11
62.75
21
10.25
0
LINE
8
0
10
60.75
20
12.25
11
47.25
21
12.25
0
LINE
8
0
10
45.25
20
10.25
11
45.25
21
-2.25
0
LINE
8
0
10
47.25
20
12.75
11
60.75
21
12.75
0
LINE
8
0
10
62.75
20
14.75
11
62.75
21
27.25
0
LINE
8
0
10
60.75
20
29.25
11
47.25
21
29.25
0
LINE
8
0
10
45.25
20
27.25
11
45.25
21
14.75
0
LINE
8
0
10
47.25
20
29.75
11
60.75
21
29.75
0
LINE
8
0
10
62.75
20
31.75
11
62.75
21
44.25
0
LINE
8
0
10
60.75
20
46.25
11
47.25
21
46.25
0
LINE
8
0
10
45.25
20
44.25
11
45.25
21
31.75
0
LINE
8
0
10
65.25
20
-6.25
11
78.75
21
-6.25
0
LINE
8
0
10
80.75
20
-4.25
11
80.75
21
8.25
0
LINE
8
0
10
78.75
20
10.25
11
65.25
21
10.25
0
LINE
8
0
10
63.25
20
8.25
11
63.25
21
-4.25
0
LINE
8
0
10
65.25
20
10.75
11
78.75
21
10.75
0
LINE
8
0
10
80.75
20
12.75
11
80.75
21
25.25
0
LINE
8
0
10
78.75
20
27.25
11
65.25
21
27.25
0
LINE
8
0
10
63.25
20
25.25
11
63.25
21
12.75
0
LINE
8
0
10
65.25
20
27.75
11
78.75
21
27.75
0
LINE
8
0
10
80.75
20
29.75
11
80.75
21
42.25
0
LINE
8
0
10
78.75
20
44.25
11
65.25
21
44.25
0
LINE
8
0
10
63.25
20
42.25
11
63.25
21
29.75
0
LINE
8
0
10
38.25
20
-21.25
11
51.75
21
-21.25
0
LINE
8
0
10
53.75
20
-19.25
11
53.75
21
-6.75
0
LINE
8
0
10
51.75
20
-4.75
11
38.25
21
-4.75
0
LINE
8
0
10
36.25
20
-6.75
11
36.25
21
-19.25
0
LINE
8
0
10
56.0309783
20
-21.9603516
11
68.8702413
21
-26.132081
0
LINE
8
0
10
71.3903883
20
-24.848002
11
75.2531007
21
-12.9597954
0
LINE
8
0
10
73.9690217
20
-10.4396484
11
61.1297587
21
-6.267919
0
LINE
8
0
10
58.6096117
20
-7.551998
11
54.7468993
21
-19.4402046
0
LINE
8
0
10
72.6899069
20
-28.1068397
11
83.6116363
21
-36.0419406
0
LINE
8
0
10
86.4052409
20
-35.5994773
11
93.7525565
21
-25.4867648
0
LINE
8
0
10
93.3100931
20
-22.6931603
11
82.3883637
21
-14.7580594
0
LINE
8
0
10
79.5947591
20
-15.2005227
11
72.2474435
21
-25.3132352
0
ARC
8
0
10
69.4882753
20
-24.229968
40
2
50
251.9999994
51
341.9999994
0
ARC
8
0
10
73.3509877
20
-12.3417614
40
2
50
341.9999994
51
71.9999994
0
ARC
8
0
10
60.5117247
20
-8.170032
40
2
50
71.9999994
51
161.9999994
0
ARC
8
0
10
56.6490123
20
-20.0582386
40
2
50
161.9999994
51
251.9999994
0
ARC
8
0
10
84.7872069
20
-34.4239067
40
2
50
233.999998
51
323.999998
0
ARC
8
0
10
92.1345225
20
-24.3111943
40
2
50
323.999998
51
53.999998
0
ARC
8
0
10
81.2127931
20
-16.3760933
40
2
50
53.999998
51
143.999998
0
ARC
8
0
10
73.8654775
20
-26.4888057
40
2
50
143.999998
51
233.999998
0
ARC
8
0
10
6.75
20
-6.25
40
2
50
270
51
0
0
ARC
8
0
10
6.75
20
6.25
40
2
50
0
51
90
0
ARC
8
0
10
-6.75
20
6.25
40
2
50
90
51
180
0
ARC
8
0
10
-6.75
20
-6.25
40
2
50
180
51
270
0
ARC
8
0
10
6.75
20
10.75
40
2
50
270
51
0
0
ARC
8
0
10
6.75
20
23.25
40
2
50
0
51
90
0
ARC
8
0
10
-6.75
20
23.25
40
2
50
90
51
180
0
ARC
8
0
10
-6.75
20
10.75
40
2
50
180
51
270
0
ARC
8
0
10
6.75
20
27.75
40
2
50
270
51
0
0
ARC
8
0
10
6.75
20
40.25
40
2
50
0
51
90
0
ARC
8
0
10
-6.75
20
40.25
40
2
50
90
51
180
0
ARC
8
0
10
-6.75
20
27.75
40
2
50
180
51
270
0
ARC
8
0
10
24.75
20
-2.25
40
2
50
270
51
0
0
ARC
8
0
10
24.75
20
10.25
40
2
50
0
51
90
0
ARC
8
0
10
11.25
20
10.25
40
2
50
90
51
180
0
ARC
8
0
10
11.25
20
-2.25
40
2
50
180
51
270
0
ARC
8
0
10
24.75
20
14.75
40
2
50
270
51
0
0
ARC
8
0
10
24.75
20
27.25
40
2
50
0
51
90
0
ARC
8
0
10
11.25
20
27.25
40
2
50
90
51
180
0
ARC
8
0
10
11.25
20
14.75
40
2
50
180
51
270
0
ARC
8
0
10
24.75
20
31.75
40
2
50
270
51
0
0
ARC
8
0
10
24.75
20
44.25
40
2
50
0
51
90
0
ARC
8
0
10
11.25
20
44.25
40
2
50
90
51
180
0
ARC
8
0
10
11.25
20
31.75
40
2
50
180
51
270
0
ARC
8
0
10
42.75
20
-0.25
40
2
50
270
51
0
0
ARC
8
0
10
42.75
20
12.25
40
2
50
0
51
90
0
ARC
8
0
10
29.25
20
12.25
40
2
50
90
51
180
0
ARC
8
0
10
29.25
20
-0.25
40
2
50
180
51
270
0
ARC
8
0
10
42.75
20
16.75
40
2
50
270
51
0
0
ARC
8
0
10
42.75
20
29.25
40
2
50
0
51
90
0
ARC
8
0
10
29.25
20
29.25
40
2
50
90
51
180
0
ARC
8
0
10
29.25
20
16.75
40
2
50
180
51
270
0
ARC
8
0
10
42.75
20
33.75
40
2
50
270
51
0
0
ARC
8
0
10
42.75
20
46.25
40
2
50
0
51
90
0
ARC
8
0
10
29.25
20
46.25
40
2
50
90
51
180
0
ARC
8
0
10
29.25
20
33.75
40
2
50
180
51
270
0
ARC
8
0
10
60.75
20
-2.25
40
2
50
270
51
0
0
ARC
8
0
10
60.75
20
10.25
40
2
50
0
51
90
0
ARC
8
0
10
47.25
20
10.25
40
2
50
90
51
180
0
ARC
8
0
10
47.25
20
-2.25
40
2
50
180
51
270
0
ARC
8
0
10
60.75
20
14.75
40
2
50
270
51
0
0
ARC
8
0
10
60.75
20
27.25
40
2
50
0
51
90
0
ARC
8
0
10
47.25
20
27.25
40
2
50
90
51
180
0
ARC
8
0
10
47.25
20
14.75
40
2
50
180
51
270
0
ARC
8
0
10
60.75
20
31.75
40
2
50
270
51
0
0
ARC
8
0
10
60.75
20
44.25
40
2
50
0
51
90
0
ARC
8
0
10
47.25
20
44.25
40
2
50
90
51
180
0
ARC
8
0
10
47.25
20
31.75
40
2
50
180
51
270
0
ARC
8
0
10
78.75
20
-4.25
40
2
50
270
51
0
0
ARC
8
0
10
78.75
20
8.25
40
2
50
0
51
90
0
ARC
8
0
10
65.25
20
8.25
40
2
50
90
51
180
0
ARC
8
0
10
65.25
20
-4.25
40
2
50
180
51
270
0
ARC
8
0
10
78.75
20
12.75
40
2
50
270
51
0
0
ARC
8
0
10
78.75
20
25.25
40
2
50
0
51
90
0
ARC
8
0
10
65.25
20
25.25
40
2
50
90
51
180
0
ARC
8
0
10
65.25
20
12.75
40
2
50
180
51
270
0
ARC
8
0
10
78.75
20
29.75
40
2
50
270
51
0
0
ARC
8
0
10
78.75
20
42.25
40
2
50
0
51
90
0
ARC
8
0
10
65.25
20
42.25
40
2
50
90
51
180
0
ARC
8
0
10
65.25
20
29.75
40
2
50
180
51
270
0
ARC
8
0
10
51.75
20
-19.25
40
2
50
270
51
0
0
ARC
8
0
10
51.75
20
-6.75
40
2
50
0
51
90
0
ARC
8
0
10
38.25
20
-6.75
40
2
50
90
51
180
0
ARC
8
0
10
38.25
20
-19.25
40
2
50
180
51
270
0
ENDSEC
0
EOF