0
SECTION
2
HEADER
9
$INSUNITS
70
4
0
ENDSEC
0
SECTION
2
TABLES
0
TABLE
2
LTYPE
0
LTYPE
72
65
70
64
2
CONTINUOUS
3
______
73
0
40
0
0
ENDTAB
0
TABLE
2
LAYER
0
ENDTAB
0
ENDSEC
0
SECTION
2
ENTITIES
0
LINE
8
0
10
93
20
-158.5
11
107
21
-158.5
0
LINE
8
0
10
109
20
-156.5
11
109
21
-143.5
0
LINE
8
0
10
107
20
-141.5
11
93
21
-141.5
0
LINE
8
0
10
91
20
-143.5
11
91
21
-156.5
0
LINE
8
0
10
93
20
-140.75
11
107
21
-140.75
0
LINE
8
0
10
109
20
-138.75
11
109
21
-125.75
0
LINE
8
0
10
107
20
-123.75
11
93
21
-123.75
0
LINE
8
0
10
91
20
-125.75
11
91
21
-138.75
0
LINE
8
0
10
93
20
-123
11
107
21
-123
0
LINE
8
0
10
109
20
-121
11
109
21
-108
0
LINE
8
0
10
107
20
-106
11
93
21
-106
0
LINE
8
0
10
91
20
-108
11
91
21
-121
0
LINE
8
0
10
93
20
-105.25
11
107
21
-105.25
0
LINE
8
0
10
109
20
-103.25
11
109
21
-90.25
0
LINE
8
0
10
107
20
-88.25
11
93
21
-88.25
0
LINE
8
0
10
91
20
-90.25
11
91
21
-103.25
0
LINE
8
0
10
93
20
-87.5
11
107
21
-87.5
0
LINE
8
0
10
109
20
-85.5
11
109
21
-72.5
0
LINE
8
0
10
107
20
-70.5
11
93
21
-70.5
0
LINE
8
0
10
91
20
-72.5
11
91
21
-85.5
0
LINE
8
0
10
111.75
20
-158.5
11
125.75
21
-158.5
0
LINE
8
0
10
127.75
20
-156.5
11
127.75
21
-143.5
0
LINE
8
0
10
125.75
20
-141.5
11
111.75
21
-141.5
0
LINE
8
0
10
109.75
20
-143.5
11
109.75
21
-156.5
0
LINE
8
0
10
111.75
20
-140.75
11
125.75
21
-140.75
0
LINE
8
0
10
127.75
20
-138.75
11
127.75
21
-125.75
0
LINE
8
0
10
125.75
20
-123.75
11
111.75
21
-123.75
0
LINE
8
0
10
109.75
20
-125.75
11
109.75
21
-138.75
0
LINE
8
0
10
111.75
20
-123
11
125.75
21
-123
0
LINE
8
0
10
127.75
20
-121
11
127.75
21
-108
0
LINE
8
0
10
125.75
20
-106
11
111.75
21
-106
0
LINE
8
0
10
109.75
20
-108
11
109.75
21
-121
0
LINE
8
0
10
111.75
20
-105.25
11
125.75
21
-105.25
0
LINE
8
0
10
127.75
20
-103.25
11
127.75
21
-90.25
0
LINE
8
0
10
125.75
20
-88.25
11
111.75
21
-88.25
0
LINE
8
0
10
109.75
20
-90.25
11
109.75
21
-103.25
0
LINE
8
0
10
111.75
20
-87.5
11
125.75
21
-87.5
0
LINE
8
0
10
127.75
20
-85.5
11
127.75
21
-72.5
0
LINE
8
0
10
125.75
20
-70.5
11
111.75
21
-70.5
0
LINE
8
0
10
109.75
20
-72.5
11
109.75
21
-85.5
0
LINE
8
0
10
130.5
20
-151.5
11
144.5
21
-151.5
0
LINE
8
0
10
146.5
20
-149.5
11
146.5
21
-136.5
0
LINE
8
0
10
144.5
20
-134.5
11
130.5
21
-134.5
0
LINE
8
0
10
128.5
20
-136.5
11
128.5
21
-149.5
0
LINE
8
0
10
130.5
20
-133.75
11
144.5
21
-133.75
0
LINE
8
0
10
146.5
20
-131.75
11
146.5
21
-118.75
0
LINE
8
0
10
144.5
20
-116.75
11
130.5
21
-116.75
0
LINE
8
0
10
128.5
20
-118.75
11
128.5
21
-131.75
0
LINE
8
0
10
130.5
20
-116
11
144.5
21
-116
0
LINE
8
0
10
146.5
20
-114
11
146.5
21
-101
0
LINE
8
0
10
144.5
20
-99
11
130.5
21
-99
0
LINE
8
0
10
128.5
20
-101
11
128.5
21
-114
0
LINE
8
0
10
130.5
20
-98.25
11
144.5
21
-98.25
0
LINE
8
0
10
146.5
20
-96.25
11
146.5
21
-83.25
0
LINE
8
0
10
144.5
20
-81.25
11
130.5
21
-81.25
0
LINE
8
0
10
128.5
20
-83.25
11
128.5
21
-96.25
0
LINE
8
0
10
130.5
20
-80.5
11
144.5
21
-80.5
0
LINE
8
0
10
146.5
20
-78.5
11
146.5
21
-65.5
0
LINE
8
0
10
144.5
20
-63.5
11
130.5
21
-63.5
0
LINE
8
0
10
128.5
20
-65.5
11
128.5
21
-78.5
0
LINE
8
0
10
149.25
20
-146.5
11
163.25
21
-146.5
0
LINE
8
0
10
165.25
20
-144.5
11
165.25
21
-131.5
0
LINE
8
0
10
163.25
20
-129.5
11
149.25
21
-129.5
0
LINE
8
0
10
147.25
20
-131.5
11
147.25
21
-144.5
0
LINE
8
0
10
149.25
20
-128.75
11
163.25
21
-128.75
0
LINE
8
0
10
165.25
20
-126.75
11
165.25
21
-113.75
0
LINE
8
0
10
163.25
20
-111.75
11
149.25
21
-111.75
0
LINE
8
0
10
147.25
20
-113.75
11
147.25
21
-126.75
0
LINE
8
0
10
149.25
20
-111
11
163.25
21
-111
0
LINE
8
0
10
165.25
20
-109
11
165.25
21
-96
0
LINE
8
0
10
163.25
20
-94
11
149.25
21
-94
0
LINE
8
0
10
147.25
20
-96
11
147.25
21
-109
0
LINE
8
0
10
149.25
20
-93.25
11
163.25
21
-93.25
0
LINE
8
0
10
165.25
20
-91.25
11
165.25
21
-78.25
0
LINE
8
0
10
163.25
20
-76.25
11
149.25
21
-76.25
0
LINE
8
0
10
147.25
20
-78.25
11
147.25
21
-91.25
0
LINE
8
0
10
149.25
20
-75.5
11
163.25
21
-75.5
0
LINE
8
0
10
165.25
20
-73.5
11
165.25
21
-60.5
0
LINE
8
0
10
163.25
20
-58.5
11
149.25
21
-58.5
0
LINE
8
0
10
147.25
20
-60.5
11
147.25
21
-73.5
0
LINE
8
0
10
168
20
-152.5
11
182
21
-152.5
0
LINE
8
0
10
184
20
-150.5
11
184
21
-137.5
0
LINE
8
0
10
182
20
-135.5
11
168
21
-135.5
0
LINE
8
0
10
166
20
-137.5
11
166
21
-150.5
0
LINE
8
0
10
168
20
-134.75
11
182
21
-134.75
0
LINE
8
0
10
184
20
-132.75
11
184
21
-119.75
0
LINE
8
0
10
182
20
-117.75
11
168
21
-117.75
0
LINE
8
0
10
166
20
-119.75
11
166
21
-132.75
0
LINE
8
0
10
168
20
-117
11
182
21
-117
0
LINE
8
0
10
184
20
-115
11
184
21
-102
0
LINE
8
0
10
182
20
-100
11
168
21
-100
0
LINE
8
0
10
166
20
-102
11
166
21
-115
0
LINE
8
0
10
168
20
-99.25
11
182
21
-99.25
0
LINE
8
0
10
184
20
-97.25
11
184
21
-84.25
0
LINE
8
0
10
182
20
-82.25
11
168
21
-82.25
0
LINE
8
0
10
166
20
-84.25
11
166
21
-97.25
0
LINE
8
0
10
168
20
-81.5
11
182
21
-81.5
0
LINE
8
0
10
184
20
-79.5
11
184
21
-66.5
0
LINE
8
0
10
182
20
-64.5
11
168
21
-64.5
0
LINE
8
0
10
166
20
-66.5
11
166
21
-79.5
0
LINE
8
0
10
186.75
20
-155.5
11
200.75
21
-155.5
0
LINE
8
0
10
202.75
20
-153.5
11
202.75
21
-140.5
0
LINE
8
0
10
200.75
20
-138.5
11
186.75
21
-138.5
0
LINE
8
0
10
184.75
20
-140.5
11
184.75
21
-153.5
0
LINE
8
0
10
186.75
20
-137.75
11
200.75
21
-137.75
0
LINE
8
0
10
202.75
20
-135.75
11
202.75
21
-122.75
0
LINE
8
0
10
200.75
20
-120.75
11
186.75
21
-120.75
0
LINE
8
0
10
184.75
20
-122.75
11
184.75
21
-135.75
0
LINE
8
0
10
186.75
20
-120
11
200.75
21
-120
0
LINE
8
0
10
202.75
20
-118
11
202.75
21
-105
0
LINE
8
0
10
200.75
20
-103
11
186.75
21
-103
0
LINE
8
0
10
184.75
20
-105
11
184.75
21
-118
0
LINE
8
0
10
186.75
20
-102.25
11
200.75
21
-102.25
0
LINE
8
0
10
202.75
20
-100.25
11
202.75
21
-87.25
0
LINE
8
0
10
200.75
20
-85.25
11
186.75
21
-85.25
0
LINE
8
0
10
184.75
20
-87.25
11
184.75
21
-100.25
0
LINE
8
0
10
186.75
20
-84.5
11
200.75
21
-84.5
0
LINE
8
0
10
202.75
20
-82.5
11
202.75
21
-69.5
0
LINE
8
0
10
200.75
20
-67.5
11
186.75
21
-67.5
0
LINE
8
0
10
184.75
20
-69.5
11
184.75
21
-82.5
0
LINE
8
0
10
340.5
20
-158.5
11
354.5
21
-158.5
0
LINE
8
0
10
356.5
20
-156.5
11
356.5
21
-143.5
0
LINE
8
0
10
354.5
20
-141.5
11
340.5
21
-141.5
0
LINE
8
0
10
338.5
20
-143.5
11
338.5
21
-156.5
0
LINE
8
0
10
340.5
20
-140.75
11
354.5
21
-140.75
0
LINE
8
0
10
356.5
20
-138.75
11
356.5
21
-125.75
0
LINE
8
0
10
354.5
20
-123.75
11
340.5
21
-123.75
0
LINE
8
0
10
338.5
20
-125.75
11
338.5
21
-138.75
0
LINE
8
0
10
340.5
20
-123
11
354.5
21
-123
0
LINE
8
0
10
356.5
20
-121
11
356.5
21
-108
0
LINE
8
0
10
354.5
20
-106
11
340.5
21
-106
0
LINE
8
0
10
338.5
20
-108
11
338.5
21
-121
0
LINE
8
0
10
340.5
20
-105.25
11
354.5
21
-105.25
0
LINE
8
0
10
356.5
20
-103.25
11
356.5
21
-90.25
0
LINE
8
0
10
354.5
20
-88.25
11
340.5
21
-88.25
0
LINE
8
0
10
338.5
20
-90.25
11
338.5
21
-103.25
0
LINE
8
0
10
340.5
20
-87.5
11
354.5
21
-87.5
0
LINE
8
0
10
356.5
20
-85.5
11
356.5
21
-72.5
0
LINE
8
0
10
354.5
20
-70.5
11
340.5
21
-70.5
0
LINE
8
0
10
338.5
20
-72.5
11
338.5
21
-85.5
0
LINE
8
0
10
321.75
20
-158.5
11
335.75
21
-158.5
0
LINE
8
0
10
337.75
20
-156.5
11
337.75
21
-143.5
0
LINE
8
0
10
335.75
20
-141.5
11
321.75
21
-141.5
0
LINE
8
0
10
319.75
20
-143.5
11
319.75
21
-156.5
0
LINE
8
0
10
321.75
20
-140.75
11
335.75
21
-140.75
0
LINE
8
0
10
337.75
20
-138.75
11
337.75
21
-125.75
0
LINE
8
0
10
335.75
20
-123.75
11
321.75
21
-123.75
0
LINE
8
0
10
319.75
20
-125.75
11
319.75
21
-138.75
0
LINE
8
0
10
321.75
20
-123
11
335.75
21
-123
0
LINE
8
0
10
337.75
20
-121
11
337.75
21
-108
0
LINE
8
0
10
335.75
20
-106
11
321.75
21
-106
0
LINE
8
0
10
319.75
20
-108
11
319.75
21
-121
0
LINE
8
0
10
321.75
20
-105.25
11
335.75
21
-105.25
0
LINE
8
0
10
337.75
20
-103.25
11
337.75
21
-90.25
0
LINE
8
0
10
335.75
20
-88.25
11
321.75
21
-88.25
0
LINE
8
0
10
319.75
20
-90.25
11
319.75
21
-103.25
0
LINE
8
0
10
321.75
20
-87.5
11
335.75
21
-87.5
0
LINE
8
0
10
337.75
20
-85.5
11
337.75
21
-72.5
0
LINE
8
0
10
335.75
20
-70.5
11
321.75
21
-70.5
0
LINE
8
0
10
319.75
20
-72.5
11
319.75
21
-85.5
0
LINE
8
0
10
303
20
-151.5
11
317
21
-151.5
0
LINE
8
0
10
319
20
-149.5
11
319
21
-136.5
0
LINE
8
0
10
317
20
-134.5
11
303
21
-134.5
0
LINE
8
0
10
301
20
-136.5
11
301
21
-149.5
0
LINE
8
0
10
303
20
-133.75
11
317
21
-133.75
0
LINE
8
0
10
319
20
-131.75
11
319
21
-118.75
0
LINE
8
0
10
317
20
-116.75
11
303
21
-116.75
0
LINE
8
0
10
301
20
-118.75
11
301
21
-131.75
0
LINE
8
0
10
303
20
-116
11
317
21
-116
0
LINE
8
0
10
319
20
-114
11
319
21
-101
0
LINE
8
0
10
317
20
-99
11
303
21
-99
0
LINE
8
0
10
301
20
-101
11
301
21
-114
0
LINE
8
0
10
303
20
-98.25
11
317
21
-98.25
0
LINE
8
0
10
319
20
-96.25
11
319
21
-83.25
0
LINE
8
0
10
317
20
-81.25
11
303
21
-81.25
0
LINE
8
0
10
301
20
-83.25
11
301
21
-96.25
0
LINE
8
0
10
303
20
-80.5
11
317
21
-80.5
0
LINE
8
0
10
319
20
-78.5
11
319
21
-65.5
0
LINE
8
0
10
317
20
-63.5
11
303
21
-63.5
0
LINE
8
0
10
301
20
-65.5
11
301
21
-78.5
0
LINE
8
0
10
284.25
20
-146.5
11
298.25
21
-146.5
0
LINE
8
0
10
300.25
20
-144.5
11
300.25
21
-131.5
0
LINE
8
0
10
298.25
20
-129.5
11
284.25
21
-129.5
0
LINE
8
0
10
282.25
20
-131.5
11
282.25
21
-144.5
0
LINE
8
0
10
284.25
20
-128.75
11
298.25
21
-128.75
0
LINE
8
0
10
300.25
20
-126.75
11
300.25
21
-113.75
0
LINE
8
0
10
298.25
20
-111.75
11
284.25
21
-111.75
0
LINE
8
0
10
282.25
20
-113.75
11
282.25
21
-126.75
0
LINE
8
0
10
284.25
20
-111
11
298.25
21
-111
0
LINE
8
0
10
300.25
20
-109
11
300.25
21
-96
0
LINE
8
0
10
298.25
20
-94
11
284.25
21
-94
0
LINE
8
0
10
282.25
20
-96
11
282.25
21
-109
0
LINE
8
0
10
284.25
20
-93.25
11
298.25
21
-93.25
0
LINE
8
0
10
300.25
20
-91.25
11
300.25
21
-78.25
0
LINE
8
0
10
298.25
20
-76.25
11
284.25
21
-76.25
0
LINE
8
0
10
282.25
20
-78.25
11
282.25
21
-91.25
0
LINE
8
0
10
284.25
20
-75.5
11
298.25
21
-75.5
0
LINE
8
0
10
300.25
20
-73.5
11
300.25
21
-60.5
0
LINE
8
0
10
298.25
20
-58.5
11
284.25
21
-58.5
0
LINE
8
0
10
282.25
20
-60.5
11
282.25
21
-73.5
0
LINE
8
0
10
265.5
20
-152.5
11
279.5
21
-152.5
0
LINE
8
0
10
281.5
20
-150.5
11
281.5
21
-137.5
0
LINE
8
0
10
279.5
20
-135.5
11
265.5
21
-135.5
0
LINE
8
0
10
263.5
20
-137.5
11
263.5
21
-150.5
0
LINE
8
0
10
265.5
20
-134.75
11
279.5
21
-134.75
0
LINE
8
0
10
281.5
20
-132.75
11
281.5
21
-119.75
0
LINE
8
0
10
279.5
20
-117.75
11
265.5
21
-117.75
0
LINE
8
0
10
263.5
20
-119.75
11
263.5
21
-132.75
0
LINE
8
0
10
265.5
20
-117
11
279.5
21
-117
0
LINE
8
0
10
281.5
20
-115
11
281.5
21
-102
0
LINE
8
0
10
279.5
20
-100
11
265.5
21
-100
0
LINE
8
0
10
263.5
20
-102
11
263.5
21
-115
0
LINE
8
0
10
265.5
20
-99.25
11
279.5
21
-99.25
0
LINE
8
0
10
281.5
20
-97.25
11
281.5
21
-84.25
0
LINE
8
0
10
279.5
20
-82.25
11
265.5
21
-82.25
0
LINE
8
0
10
263.5
20
-84.25
11
263.5
21
-97.25
0
LINE
8
0
10
265.5
20
-81.5
11
279.5
21
-81.5
0
LINE
8
0
10
281.5
20
-79.5
11
281.5
21
-66.5
0
LINE
8
0
10
279.5
20
-64.5
11
265.5
21
-64.5
0
LINE
8
0
10
263.5
20
-66.5
11
263.5
21
-79.5
0
LINE
8
0
10
246.75
20
-155.5
11
260.75
21
-155.5
0
LINE
8
0
10
262.75
20
-153.5
11
262.75
21
-140.5
0
LINE
8
0
10
260.75
20
-138.5
11
246.75
21
-138.5
0
LINE
8
0
10
244.75
20
-140.5
11
244.75
21
-153.5
0
LINE
8
0
10
246.75
20
-137.75
11
260.75
21
-137.75
0
LINE
8
0
10
262.75
20
-135.75
11
262.75
21
-122.75
0
LINE
8
0
10
260.75
20
-120.75
11
246.75
21
-120.75
0
LINE
8
0
10
244.75
20
-122.75
11
244.75
21
-135.75
0
LINE
8
0
10
246.75
20
-120
11
260.75
21
-120
0
LINE
8
0
10
262.75
20
-118
11
262.75
21
-105
0
LINE
8
0
10
260.75
20
-103
11
246.75
21
-103
0
LINE
8
0
10
244.75
20
-105
11
244.75
21
-118
0
LINE
8
0
10
246.75
20
-102.25
11
260.75
21
-102.25
0
LINE
8
0
10
262.75
20
-100.25
11
262.75
21
-87.25
0
LINE
8
0
10
260.75
20
-85.25
11
246.75
21
-85.25
0
LINE
8
0
10
244.75
20
-87.25
11
244.75
21
-100.25
0
LINE
8
0
10
246.75
20
-84.5
11
260.75
21
-84.5
0
LINE
8
0
10
262.75
20
-82.5
11
262.75
21
-69.5
0
LINE
8
0
10
260.75
20
-67.5
11
246.75
21
-67.5
0
LINE
8
0
10
244.75
20
-69.5
11
244.75
21
-82.5
0
ARC
8
0
10
107
20
-156.5
40
2
50
270
51
0
0
ARC
8
0
10
107
20
-143.5
40
2
50
0
51
90
0
ARC
8
0
10
93
20
-143.5
40
2
50
90
51
180
0
ARC
8
0
10
93
20
-156.5
40
2
50
180
51
270
0
ARC
8
0
10
107
20
-138.75
40
2
50
270
51
0
0
ARC
8
0
10
107
20
-125.75
40
2
50
0
51
90
0
ARC
8
0
10
93
20
-125.75
40
2
50
90
51
180
0
ARC
8
0
10
93
20
-138.75
40
2
50
180
51
270
0
ARC
8
0
10
107
20
-121
40
2
50
270
51
0
0
ARC
8
0
10
107
20
-108
40
2
50
0
51
90
0
ARC
8
0
10
93
20
-108
40
2
50
90
51
180
0
ARC
8
0
10
93
20
-121
40
2
50
180
51
270
0
ARC
8
0
10
107
20
-103.25
40
2
50
270
51
0
0
ARC
8
0
10
107
20
-90.25
40
2
50
0
51
90
0
ARC
8
0
10
93
20
-90.25
40
2
50
90
51
180
0
ARC
8
0
10
93
20
-103.25
40
2
50
180
51
270
0
ARC
8
0
10
107
20
-85.5
40
2
50
270
51
0
0
ARC
8
0
10
107
20
-72.5
40
2
50
0
51
90
0
ARC
8
0
10
93
20
-72.5
40
2
50
90
51
180
0
ARC
8
0
10
93
20
-85.5
40
2
50
180
51
270
0
ARC
8
0
10
125.75
20
-156.5
40
2
50
270
51
0
0
ARC
8
0
10
125.75
20
-143.5
40
2
50
0
51
90
0
ARC
8
0
10
111.75
20
-143.5
40
2
50
90
51
180
0
ARC
8
0
10
111.75
20
-156.5
40
2
50
180
51
270
0
ARC
8
0
10
125.75
20
-138.75
40
2
50
270
51
0
0
ARC
8
0
10
125.75
20
-125.75
40
2
50
0
51
90
0
ARC
8
0
10
111.75
20
-125.75
40
2
50
90
51
180
0
ARC
8
0
10
111.75
20
-138.75
40
2
50
180
51
270
0
ARC
8
0
10
125.75
20
-121
40
2
50
270
51
0
0
ARC
8
0
10
125.75
20
-108
40
2
50
0
51
90
0
ARC
8
0
10
111.75
20
-108
40
2
50
90
51
180
0
ARC
8
0
10
111.75
20
-121
40
2
50
180
51
270
0
ARC
8
0
10
125.75
20
-103.25
40
2
50
270
51
0
0
ARC
8
0
10
125.75
20
-90.25
40
2
50
0
51
90
0
ARC
8
0
10
111.75
20
-90.25
40
2
50
90
51
180
0
ARC
8
0
10
111.75
20
-103.25
40
2
50
180
51
270
0
ARC
8
0
10
125.75
20
-85.5
40
2
50
270
51
0
0
ARC
8
0
10
125.75
20
-72.5
40
2
50
0
51
90
0
ARC
8
0
10
111.75
20
-72.5
40
2
50
90
51
180
0
ARC
8
0
10
111.75
20
-85.5
40
2
50
180
51
270
0
ARC
8
0
10
144.5
20
-149.5
40
2
50
270
51
0
0
ARC
8
0
10
144.5
20
-136.5
40
2
50
0
51
90
0
ARC
8
0
10
130.5
20
-136.5
40
2
50
90
51
180
0
ARC
8
0
10
130.5
20
-149.5
40
2
50
180
51
270
0
ARC
8
0
10
144.5
20
-131.75
40
2
50
270
51
0
0
ARC
8
0
10
144.5
20
-118.75
40
2
50
0
51
90
0
ARC
8
0
10
130.5
20
-118.75
40
2
50
90
51
180
0
ARC
8
0
10
130.5
20
-131.75
40
2
50
180
51
270
0
ARC
8
0
10
144.5
20
-114
40
2
50
270
51
0
0
ARC
8
0
10
144.5
20
-101
40
2
50
0
51
90
0
ARC
8
0
10
130.5
20
-101
40
2
50
90
51
180
0
ARC
8
0
10
130.5
20
-114
40
2
50
180
51
270
0
ARC
8
0
10
144.5
20
-96.25
40
2
50
270
51
0
0
ARC
8
0
10
144.5
20
-83.25
40
2
50
0
51
90
0
ARC
8
0
10
130.5
20
-83.25
40
2
50
90
51
180
0
ARC
8
0
10
130.5
20
-96.25
40
2
50
180
51
270
0
ARC
8
0
10
144.5
20
-78.5
40
2
50
270
51
0
0
ARC
8
0
10
144.5
20
-65.5
40
2
50
0
51
90
0
ARC
8
0
10
130.5
20
-65.5
40
2
50
90
51
180
0
ARC
8
0
10
130.5
20
-78.5
40
2
50
180
51
270
0
ARC
8
0
10
163.25
20
-144.5
40
2
50
270
51
0
0
ARC
8
0
10
163.25
20
-131.5
40
2
50
0
51
90
0
ARC
8
0
10
149.25
20
-131.5
40
2
50
90
51
180
0
ARC
8
0
10
149.25
20
-144.5
40
2
50
180
51
270
0
ARC
8
0
10
163.25
20
-126.75
40
2
50
270
51
0
0
ARC
8
0
10
163.25
20
-113.75
40
2
50
0
51
90
0
ARC
8
0
10
149.25
20
-113.75
40
2
50
90
51
180
0
ARC
8
0
10
149.25
20
-126.75
40
2
50
180
51
270
0
ARC
8
0
10
163.25
20
-109
40
2
50
270
51
0
0
ARC
8
0
10
163.25
20
-96
40
2
50
0
51
90
0
ARC
8
0
10
149.25
20
-96
40
2
50
90
51
180
0
ARC
8
0
10
149.25
20
-109
40
2
50
180
51
270
0
ARC
8
0
10
163.25
20
-91.25
40
2
50
270
51
0
0
ARC
8
0
10
163.25
20
-78.25
40
2
50
0
51
90
0
ARC
8
0
10
149.25
20
-78.25
40
2
50
90
51
180
0
ARC
8
0
10
149.25
20
-91.25
40
2
50
180
51
270
0
ARC
8
0
10
163.25
20
-73.5
40
2
50
270
51
0
0
ARC
8
0
10
163.25
20
-60.5
40
2
50
0
51
90
0
ARC
8
0
10
149.25
20
-60.5
40
2
50
90
51
180
0
ARC
8
0
10
149.25
20
-73.5
40
2
50
180
51
270
0
ARC
8
0
10
182
20
-150.5
40
2
50
270
51
0
0
ARC
8
0
10
182
20
-137.5
40
2
50
0
51
90
0
ARC
8
0
10
168
20
-137.5
40
2
50
90
51
180
0
ARC
8
0
10
168
20
-150.5
40
2
50
180
51
270
0
ARC
8
0
10
182
20
-132.75
40
2
50
270
51
0
0
ARC
8
0
10
182
20
-119.75
40
2
50
0
51
90
0
ARC
8
0
10
168
20
-119.75
40
2
50
90
51
180
0
ARC
8
0
10
168
20
-132.75
40
2
50
180
51
270
0
ARC
8
0
10
182
20
-115
40
2
50
270
51
0
0
ARC
8
0
10
182
20
-102
40
2
50
0
51
90
0
ARC
8
0
10
168
20
-102
40
2
50
90
51
180
0
ARC
8
0
10
168
20
-115
40
2
50
180
51
270
0
ARC
8
0
10
182
20
-97.25
40
2
50
270
51
0
0
ARC
8
0
10
182
20
-84.25
40
2
50
0
51
90
0
ARC
8
0
10
168
20
-84.25
40
2
50
90
51
180
0
ARC
8
0
10
168
20
-97.25
40
2
50
180
51
270
0
ARC
8
0
10
182
20
-79.5
40
2
50
270
51
0
0
ARC
8
0
10
182
20
-66.5
40
2
50
0
51
90
0
ARC
8
0
10
168
20
-66.5
40
2
50
90
51
180
0
ARC
8
0
10
168
20
-79.5
40
2
50
180
51
270
0
ARC
8
0
10
200.75
20
-153.5
40
2
50
270
51
0
0
ARC
8
0
10
200.75
20
-140.5
40
2
50
0
51
90
0
ARC
8
0
10
186.75
20
-140.5
40
2
50
90
51
180
0
ARC
8
0
10
186.75
20
-153.5
40
2
50
180
51
270
0
ARC
8
0
10
200.75
20
-135.75
40
2
50
270
51
0
0
ARC
8
0
10
200.75
20
-122.75
40
2
50
0
51
90
0
ARC
8
0
10
186.75
20
-122.75
40
2
50
90
51
180
0
ARC
8
0
10
186.75
20
-135.75
40
2
50
180
51
270
0
ARC
8
0
10
200.75
20
-118
40
2
50
270
51
0
0
ARC
8
0
10
200.75
20
-105
40
2
50
0
51
90
0
ARC
8
0
10
186.75
20
-105
40
2
50
90
51
180
0
ARC
8
0
10
186.75
20
-118
40
2
50
180
51
270
0
ARC
8
0
10
200.75
20
-100.25
40
2
50
270
51
0
0
ARC
8
0
10
200.75
20
-87.25
40
2
50
0
51
90
0
ARC
8
0
10
186.75
20
-87.25
40
2
50
90
51
180
0
ARC
8
0
10
186.75
20
-100.25
40
2
50
180
51
270
0
ARC
8
0
10
200.75
20
-82.5
40
2
50
270
51
0
0
ARC
8
0
10
200.75
20
-69.5
40
2
50
0
51
90
0
ARC
8
0
10
186.75
20
-69.5
40
2
50
90
51
180
0
ARC
8
0
10
186.75
20
-82.5
40
2
50
180
51
270
0
ARC
8
0
10
354.5
20
-156.5
40
2
50
270
51
0
0
ARC
8
0
10
354.5
20
-143.5
40
2
50
0
51
90
0
ARC
8
0
10
340.5
20
-143.5
40
2
50
90
51
180
0
ARC
8
0
10
340.5
20
-156.5
40
2
50
180
51
270
0
ARC
8
0
10
354.5
20
-138.75
40
2
50
270
51
0
0
ARC
8
0
10
354.5
20
-125.75
40
2
50
0
51
90
0
ARC
8
0
10
340.5
20
-125.75
40
2
50
90
51
180
0
ARC
8
0
10
340.5
20
-138.75
40
2
50
180
51
270
0
ARC
8
0
10
354.5
20
-121
40
2
50
270
51
0
0
ARC
8
0
10
354.5
20
-108
40
2
50
0
51
90
0
ARC
8
0
10
340.5
20
-108
40
2
50
90
51
180
0
ARC
8
0
10
340.5
20
-121
40
2
50
180
51
270
0
ARC
8
0
10
354.5
20
-103.25
40
2
50
270
51
0
0
ARC
8
0
10
354.5
20
-90.25
40
2
50
0
51
90
0
ARC
8
0
10
340.5
20
-90.25
40
2
50
90
51
180
0
ARC
8
0
10
340.5
20
-103.25
40
2
50
180
51
270
0
ARC
8
0
10
354.5
20
-85.5
40
2
50
270
51
0
0
ARC
8
0
10
354.5
20
-72.5
40
2
50
0
51
90
0
ARC
8
0
10
340.5
20
-72.5
40
2
50
90
51
180
0
ARC
8
0
10
340.5
20
-85.5
40
2
50
180
51
270
0
ARC
8
0
10
335.75
20
-156.5
40
2
50
270
51
0
0
ARC
8
0
10
335.75
20
-143.5
40
2
50
0
51
90
0
ARC
8
0
10
321.75
20
-143.5
40
2
50
90
51
180
0
ARC
8
0
10
321.75
20
-156.5
40
2
50
180
51
270
0
ARC
8
0
10
335.75
20
-138.75
40
2
50
270
51
0
0
ARC
8
0
10
335.75
20
-125.75
40
2
50
0
51
90
0
ARC
8
0
10
321.75
20
-125.75
40
2
50
90
51
180
0
ARC
8
0
10
321.75
20
-138.75
40
2
50
180
51
270
0
ARC
8
0
10
335.75
20
-121
40
2
50
270
51
0
0
ARC
8
0
10
335.75
20
-108
40
2
50
0
51
90
0
ARC
8
0
10
321.75
20
-108
40
2
50
90
51
180
0
ARC
8
0
10
321.75
20
-121
40
2
50
180
51
270
0
ARC
8
0
10
335.75
20
-103.25
40
2
50
270
51
0
0
ARC
8
0
10
335.75
20
-90.25
40
2
50
0
51
90
0
ARC
8
0
10
321.75
20
-90.25
40
2
50
90
51
180
0
ARC
8
0
10
321.75
20
-103.25
40
2
50
180
51
270
0
ARC
8
0
10
335.75
20
-85.5
40
2
50
270
51
0
0
ARC
8
0
10
335.75
20
-72.5
40
2
50
0
51
90
0
ARC
8
0
10
321.75
20
-72.5
40
2
50
90
51
180
0
ARC
8
0
10
321.75
20
-85.5
40
2
50
180
51
270
0
ARC
8
0
10
317
20
-149.5
40
2
50
270
51
0
0
ARC
8
0
10
317
20
-136.5
40
2
50
0
51
90
0
ARC
8
0
10
303
20
-136.5
40
2
50
90
51
180
0
ARC
8
0
10
303
20
-149.5
40
2
50
180
51
270
0
ARC
8
0
10
317
20
-131.75
40
2
50
270
51
0
0
ARC
8
0
10
317
20
-118.75
40
2
50
0
51
90
0
ARC
8
0
10
303
20
-118.75
40
2
50
90
51
180
0
ARC
8
0
10
303
20
-131.75
40
2
50
180
51
270
0
ARC
8
0
10
317
20
-114
40
2
50
270
51
0
0
ARC
8
0
10
317
20
-101
40
2
50
0
51
90
0
ARC
8
0
10
303
20
-101
40
2
50
90
51
180
0
ARC
8
0
10
303
20
-114
40
2
50
180
51
270
0
ARC
8
0
10
317
20
-96.25
40
2
50
270
51
0
0
ARC
8
0
10
317
20
-83.25
40
2
50
0
51
90
0
ARC
8
0
10
303
20
-83.25
40
2
50
90
51
180
0
ARC
8
0
10
303
20
-96.25
40
2
50
180
51
270
0
ARC
8
0
10
317
20
-78.5
40
2
50
270
51
0
0
ARC
8
0
10
317
20
-65.5
40
2
50
0
51
90
0
ARC
8
0
10
303
20
-65.5
40
2
50
90
51
180
0
ARC
8
0
10
303
20
-78.5
40
2
50
180
51
270
0
ARC
8
0
10
298.25
20
-144.5
40
2
50
270
51
0
0
ARC
8
0
10
298.25
20
-131.5
40
2
50
0
51
90
0
ARC
8
0
10
284.25
20
-131.5
40
2
50
90
51
180
0
ARC
8
0
10
284.25
20
-144.5
40
2
50
180
51
270
0
ARC
8
0
10
298.25
20
-126.75
40
2
50
270
51
0
0
ARC
8
0
10
298.25
20
-113.75
40
2
50
0
51
90
0
ARC
8
0
10
284.25
20
-113.75
40
2
50
90
51
180
0
ARC
8
0
10
284.25
20
-126.75
40
2
50
180
51
270
0
ARC
8
0
10
298.25
20
-109
40
2
50
270
51
0
0
ARC
8
0
10
298.25
20
-96
40
2
50
0
51
90
0
ARC
8
0
10
284.25
20
-96
40
2
50
90
51
180
0
ARC
8
0
10
284.25
20
-109
40
2
50
180
51
270
0
ARC
8
0
10
298.25
20
-91.25
40
2
50
270
51
0
0
ARC
8
0
10
298.25
20
-78.25
40
2
50
0
51
90
0
ARC
8
0
10
284.25
20
-78.25
40
2
50
90
51
180
0
ARC
8
0
10
284.25
20
-91.25
40
2
50
180
51
270
0
ARC
8
0
10
298.25
20
-73.5
40
2
50
270
51
0
0
ARC
8
0
10
298.25
20
-60.5
40
2
50
0
51
90
0
ARC
8
0
10
284.25
20
-60.5
40
2
50
90
51
180
0
ARC
8
0
10
284.25
20
-73.5
40
2
50
180
51
270
0
ARC
8
0
10
279.5
20
-150.5
40
2
50
270
51
0
0
ARC
8
0
10
279.5
20
-137.5
40
2
50
0
51
90
0
ARC
8
0
10
265.5
20
-137.5
40
2
50
90
51
180
0
ARC
8
0
10
265.5
20
-150.5
40
2
50
180
51
270
0
ARC
8
0
10
279.5
20
-132.75
40
2
50
270
51
0
0
ARC
8
0
10
279.5
20
-119.75
40
2
50
0
51
90
0
ARC
8
0
10
265.5
20
-119.75
40
2
50
90
51
180
0
ARC
8
0
10
265.5
20
-132.75
40
2
50
180
51
270
0
ARC
8
0
10
279.5
20
-115
40
2
50
270
51
0
0
ARC
8
0
10
279.5
20
-102
40
2
50
0
51
90
0
ARC
8
0
10
265.5
20
-102
40
2
50
90
51
180
0
ARC
8
0
10
265.5
20
-115
40
2
50
180
51
270
0
ARC
8
0
10
279.5
20
-97.25
40
2
50
270
51
0
0
ARC
8
0
10
279.5
20
-84.25
40
2
50
0
51
90
0
ARC
8
0
10
265.5
20
-84.25
40
2
50
90
51
180
0
ARC
8
0
10
265.5
20
-97.25
40
2
50
180
51
270
0
ARC
8
0
10
279.5
20
-79.5
40
2
50
270
51
0
0
ARC
8
0
10
279.5
20
-66.5
40
2
50
0
51
90
0
ARC
8
0
10
265.5
20
-66.5
40
2
50
90
51
180
0
ARC
8
0
10
265.5
20
-79.5
40
2
50
180
51
270
0
ARC
8
0
10
260.75
20
-153.5
40
2
50
270
51
0
0
ARC
8
0
10
260.75
20
-140.5
40
2
50
0
51
90
0
ARC
8
0
10
246.75
20
-140.5
40
2
50
90
51
180
0
ARC
8
0
10
246.75
20
-153.5
40
2
50
180
51
270
0
ARC
8
0
10
260.75
20
-135.75
40
2
50
270
51
0
0
ARC
8
0
10
260.75
20
-122.75
40
2
50
0
51
90
0
ARC
8
0
10
246.75
20
-122.75
40
2
50
90
51
180
0
ARC
8
0
10
246.75
20
-135.75
40
2
50
180
51
270
0
ARC
8
0
10
260.75
20
-118
40
2
50
270
51
0
0
ARC
8
0
10
260.75
20
-105
40
2
50
0
51
90
0
ARC
8
0
10
246.75
20
-105
40
2
50
90
51
180
0
ARC
8
0
10
246.75
20
-118
40
2
50
180
51
270
0
ARC
8
0
10
260.75
20
-100.25
40
2
50
270
51
0
0
ARC
8
0
10
260.75
20
-87.25
40
2
50
0
51
90
0
ARC
8
0
10
246.75
20
-87.25
40
2
50
90
51
180
0
ARC
8
0
10
246.75
20
-100.25
40
2
50
180
51
270
0
ARC
8
0
10
260.75
20
-82.5
40
2
50
270
51
0
0
ARC
8
0
10
260.75
20
-69.5
40
2
50
0
51
90
0
ARC
8
0
10
246.75
20
-69.5
40
2
50
90
51
180
0
ARC
8
0
10
246.75
20
-82.5
40
2
50
180
51
270
0
ENDSEC
0
EOF