0
SECTION
2
HEADER
9
$INSUNITS
70
4
0
ENDSEC
0
SECTION
2
TABLES
0
TABLE
2
LTYPE
0
LTYPE
72
65
70
64
2
CONTINUOUS
3
______
73
0
40
0
0
ENDTAB
0
TABLE
2
LAYER
0
ENDTAB
0
ENDSEC
0
SECTION
2
ENTITIES
0
LINE
8
0
10
49.5833626
20
-118.1418136
11
74.4882644
21
-49.7161584
0
LINE
8
0
10
76.7866422
20
-48.4445797
11
128.25726
21
-59.472194
0
LINE
8
0
10
128.5223076
20
-59.5484277
11
152.6945359
21
-68.3463993
0
LINE
8
0
10
152.9465763
20
-68.4583702
11
183.4043542
21
-84.5898088
0
LINE
8
0
10
184.3476588
20
-87.0412633
11
180.1058279
21
-98.695598
0
LINE
8
0
10
181.9852132
20
-101.3796382
11
190.9187942
21
-101.3796382
0
LINE
8
0
10
192.7981795
20
-98.695598
11
188.5563486
21
-87.0412633
0
LINE
8
0
10
189.4996532
20
-84.5898088
11
219.9574311
21
-68.4583702
0
LINE
8
0
10
220.2094715
20
-68.3463993
11
244.3816998
21
-59.5484277
0
LINE
8
0
10
244.6467474
20
-59.472194
11
296.1173652
21
-48.4445797
0
LINE
8
0
10
298.415743
20
-49.7161584
11
323.3206448
21
-118.1418136
0
LINE
8
0
10
322.684511
20
-120.3924826
11
294.3325022
21
-142.8921795
0
LINE
8
0
10
293.7982861
20
-143.1956492
11
244.5956813
21
-161.8504866
0
LINE
8
0
10
244.1074345
20
-162.1185504
11
210.2535717
21
-187.4192687
0
LINE
8
0
10
207.7707143
20
-187.3493229
11
190.3909611
21
-172.7659783
0
LINE
8
0
10
189.1053858
20
-172.2980672
11
183.7986216
21
-172.2980672
0
LINE
8
0
10
182.5130463
20
-172.7659783
11
165.1332931
21
-187.3493229
0
LINE
8
0
10
162.6504357
20
-187.4192687
11
128.7965729
21
-162.1185504
0
LINE
8
0
10
128.3083261
20
-161.8504866
11
79.1057213
21
-143.1956492
0
LINE
8
0
10
78.5715052
20
-142.8921795
11
50.2194964
21
-120.3924826
0
ARC
8
0
10
76.3676496
20
-50.4001986
40
2
50
77.9071637
51
160.0000019
0
ARC
8
0
10
127.8382674
20
-61.4278129
40
2
50
70.0000019
51
77.9071637
0
ARC
8
0
10
152.0104957
20
-70.2257845
40
2
50
62.0928362
51
70.0000019
0
ARC
8
0
10
182.4682736
20
-86.3572231
40
2
50
340.0000019
51
62.0928362
0
ARC
8
0
10
181.9852132
20
-99.3796382
40
2
50
160.0000019
51
270
0
ARC
8
0
10
190.9187942
20
-99.3796382
40
2
50
270
51
19.9999981
0
ARC
8
0
10
190.4357338
20
-86.3572231
40
2
50
117.9071638
51
199.9999981
0
ARC
8
0
10
220.8935117
20
-70.2257845
40
2
50
109.9999981
51
117.9071638
0
ARC
8
0
10
245.06574
20
-61.4278129
40
2
50
102.0928363
51
109.9999981
0
ARC
8
0
10
296.5363578
20
-50.4001986
40
2
50
19.9999981
51
102.0928363
0
ARC
8
0
10
321.4412595
20
-118.8258538
40
2
50
308.43495
51
19.9999981
0
ARC
8
0
10
293.0892507
20
-141.3255507
40
2
50
290.7638883
51
308.43495
0
ARC
8
0
10
245.3047167
20
-163.7205852
40
2
50
110.7638883
51
126.7726346
0
ARC
8
0
10
209.0562895
20
-185.817234
40
2
50
229.9999988
51
306.7726346
0
ARC
8
0
10
189.1053858
20
-174.2980672
40
2
50
49.9999988
51
90
0
ARC
8
0
10
183.7986216
20
-174.2980672
40
2
50
90
51
130.0000012
0
ARC
8
0
10
163.8477179
20
-185.817234
40
2
50
233.2273654
51
310.0000012
0
ARC
8
0
10
127.5992907
20
-163.7205852
40
2
50
53.2273654
51
69.2361117
0
ARC
8
0
10
79.8147567
20
-141.3255507
40
2
50
231.56505
51
249.2361117
0
ARC
8
0
10
51.4627479
20
-118.8258538
40
2
50
160.0000019
51
231.56505
0
ENDSEC
0
EOF