0
SECTION
2
HEADER
9
$INSUNITS
70
4
0
ENDSEC
0
SECTION
2
TABLES
0
TABLE
2
LTYPE
0
LTYPE
72
65
70
64
2
CONTINUOUS
3
______
73
0
40
0
0
ENDTAB
0
TABLE
2
LAYER
0
ENDTAB
0
ENDSEC
0
SECTION
2
ENTITIES
0
LINE
8
0
10
358.5
20
-158.5
11
358.5
21
-70.5
0
LINE
8
0
10
356.5
20
-68.5
11
323.5471611
21
-68.5
0
LINE
8
0
10
321.5585428
20
-66.7130662
11
321.1914572
21
-63.2869338
0
LINE
8
0
10
319.2028389
20
-61.5
11
304.7223748
21
-61.5
0
LINE
8
0
10
302.7445021
20
-59.796681
11
302.5054979
21
-58.203319
0
LINE
8
0
10
300.5276252
20
-56.5
11
282.0155645
21
-56.5
0
LINE
8
0
10
280.0310087
20
-58.2519306
11
279.7189913
21
-60.7480694
0
LINE
8
0
10
277.7344355
20
-62.5
11
263.0615023
21
-62.5
0
LINE
8
0
10
261.1212326
20
-64.0148678
11
260.7499
21
-65.5
0
LINE
8
0
10
260.7499
20
-65.5
11
244.75
21
-65.5
0
LINE
8
0
10
242.75
20
-67.5
11
242.75
21
-155.5
0
LINE
8
0
10
244.75
20
-157.5
11
261.8701965
21
-157.5
0
LINE
8
0
10
263.3445048
20
-156.8514493
11
264.9054952
21
-155.1485507
0
LINE
8
0
10
266.3798035
20
-154.5
11
281.7344355
21
-154.5
0
LINE
8
0
10
283.7189913
20
-152.7480694
11
284.0310087
21
-150.2519306
0
LINE
8
0
10
286.0155645
20
-148.5
11
296.5276252
21
-148.5
0
LINE
8
0
10
298.5054979
20
-150.203319
11
298.7445021
21
-151.796681
0
LINE
8
0
10
300.7223748
20
-153.5
11
315.2028389
21
-153.5
0
LINE
8
0
10
317.1914572
20
-155.2869338
11
317.5585428
21
-158.7130662
0
LINE
8
0
10
319.5471611
20
-160.5
11
356.5
21
-160.5
0
ARC
8
0
10
356.5
20
-70.5
40
2
50
0
51
90
0
ARC
8
0
10
323.5471611
20
-66.5
40
2
50
186.1155019
51
270
0
ARC
8
0
10
319.2028389
20
-63.5
40
2
50
6.1155019
51
90
0
ARC
8
0
10
304.7223748
20
-59.5
40
2
50
188.5307679
51
270
0
ARC
8
0
10
300.5276252
20
-58.5
40
2
50
8.5307679
51
90
0
ARC
8
0
10
282.0155645
20
-58.5
40
2
50
90
51
172.8749858
0
ARC
8
0
10
277.7344355
20
-60.5
40
2
50
270
51
352.8749858
0
ARC
8
0
10
263.0615023
20
-64.5
40
2
50
90
51
165.961957
0
ARC
8
0
10
244.75
20
-67.5
40
2
50
90
51
180
0
ARC
8
0
10
244.75
20
-155.5
40
2
50
180
51
270
0
ARC
8
0
10
261.8701965
20
-155.5
40
2
50
270
51
317.4895526
0
ARC
8
0
10
266.3798035
20
-156.5
40
2
50
90
51
137.4895526
0
ARC
8
0
10
281.7344355
20
-152.5
40
2
50
270
51
352.8749858
0
ARC
8
0
10
286.0155645
20
-150.5
40
2
50
90
51
172.8749858
0
ARC
8
0
10
296.5276252
20
-150.5
40
2
50
8.5307679
51
90
0
ARC
8
0
10
300.7223748
20
-151.5
40
2
50
188.5307679
51
270
0
ARC
8
0
10
315.2028389
20
-155.5
40
2
50
6.1155019
51
90
0
ARC
8
0
10
319.5471611
20
-158.5
40
2
50
186.1155019
51
270
0
ARC
8
0
10
356.5
20
-158.5
40
2
50
270
51
0
0
ENDSEC
0
EOF