0
SECTION
2
HEADER
9
$INSUNITS
70
4
0
ENDSEC
0
SECTION
2
TABLES
0
TABLE
2
LTYPE
0
LTYPE
72
65
70
64
2
CONTINUOUS
3
______
73
0
40
0
0
ENDTAB
0
TABLE
2
LAYER
0
ENDTAB
0
ENDSEC
0
SECTION
2
ENTITIES
0
LINE
8
0
10
93
20
-157
11
107
21
-157
0
LINE
8
0
10
107
20
-157
11
107
21
-143
0
LINE
8
0
10
107
20
-143
11
93
21
-143
0
LINE
8
0
10
93
20
-143
11
93
21
-157
0
LINE
8
0
10
93
20
-139.25
11
107
21
-139.25
0
LINE
8
0
10
107
20
-139.25
11
107
21
-125.25
0
LINE
8
0
10
107
20
-125.25
11
93
21
-125.25
0
LINE
8
0
10
93
20
-125.25
11
93
21
-139.25
0
LINE
8
0
10
93
20
-121.5
11
107
21
-121.5
0
LINE
8
0
10
107
20
-121.5
11
107
21
-107.5
0
LINE
8
0
10
107
20
-107.5
11
93
21
-107.5
0
LINE
8
0
10
93
20
-107.5
11
93
21
-121.5
0
LINE
8
0
10
93
20
-103.75
11
107
21
-103.75
0
LINE
8
0
10
107
20
-103.75
11
107
21
-89.75
0
LINE
8
0
10
107
20
-89.75
11
93
21
-89.75
0
LINE
8
0
10
93
20
-89.75
11
93
21
-103.75
0
LINE
8
0
10
93
20
-86
11
107
21
-86
0
LINE
8
0
10
107
20
-86
11
107
21
-72
0
LINE
8
0
10
107
20
-72
11
93
21
-72
0
LINE
8
0
10
93
20
-72
11
93
21
-86
0
LINE
8
0
10
111.75
20
-157
11
125.75
21
-157
0
LINE
8
0
10
125.75
20
-157
11
125.75
21
-143
0
LINE
8
0
10
125.75
20
-143
11
111.75
21
-143
0
LINE
8
0
10
111.75
20
-143
11
111.75
21
-157
0
LINE
8
0
10
111.75
20
-139.25
11
125.75
21
-139.25
0
LINE
8
0
10
125.75
20
-139.25
11
125.75
21
-125.25
0
LINE
8
0
10
125.75
20
-125.25
11
111.75
21
-125.25
0
LINE
8
0
10
111.75
20
-125.25
11
111.75
21
-139.25
0
LINE
8
0
10
111.75
20
-121.5
11
125.75
21
-121.5
0
LINE
8
0
10
125.75
20
-121.5
11
125.75
21
-107.5
0
LINE
8
0
10
125.75
20
-107.5
11
111.75
21
-107.5
0
LINE
8
0
10
111.75
20
-107.5
11
111.75
21
-121.5
0
LINE
8
0
10
111.75
20
-103.75
11
125.75
21
-103.75
0
LINE
8
0
10
125.75
20
-103.75
11
125.75
21
-89.75
0
LINE
8
0
10
125.75
20
-89.75
11
111.75
21
-89.75
0
LINE
8
0
10
111.75
20
-89.75
11
111.75
21
-103.75
0
LINE
8
0
10
111.75
20
-86
11
125.75
21
-86
0
LINE
8
0
10
125.75
20
-86
11
125.75
21
-72
0
LINE
8
0
10
125.75
20
-72
11
111.75
21
-72
0
LINE
8
0
10
111.75
20
-72
11
111.75
21
-86
0
LINE
8
0
10
130.5
20
-150
11
144.5
21
-150
0
LINE
8
0
10
144.5
20
-150
11
144.5
21
-136
0
LINE
8
0
10
144.5
20
-136
11
130.5
21
-136
0
LINE
8
0
10
130.5
20
-136
11
130.5
21
-150
0
LINE
8
0
10
130.5
20
-132.25
11
144.5
21
-132.25
0
LINE
8
0
10
144.5
20
-132.25
11
144.5
21
-118.25
0
LINE
8
0
10
144.5
20
-118.25
11
130.5
21
-118.25
0
LINE
8
0
10
130.5
20
-118.25
11
130.5
21
-132.25
0
LINE
8
0
10
130.5
20
-114.5
11
144.5
21
-114.5
0
LINE
8
0
10
144.5
20
-114.5
11
144.5
21
-100.5
0
LINE
8
0
10
144.5
20
-100.5
11
130.5
21
-100.5
0
LINE
8
0
10
130.5
20
-100.5
11
130.5
21
-114.5
0
LINE
8
0
10
130.5
20
-96.75
11
144.5
21
-96.75
0
LINE
8
0
10
144.5
20
-96.75
11
144.5
21
-82.75
0
LINE
8
0
10
144.5
20
-82.75
11
130.5
21
-82.75
0
LINE
8
0
10
130.5
20
-82.75
11
130.5
21
-96.75
0
LINE
8
0
10
130.5
20
-79
11
144.5
21
-79
0
LINE
8
0
10
144.5
20
-79
11
144.5
21
-65
0
LINE
8
0
10
144.5
20
-65
11
130.5
21
-65
0
LINE
8
0
10
130.5
20
-65
11
130.5
21
-79
0
LINE
8
0
10
149.25
20
-145
11
163.25
21
-145
0
LINE
8
0
10
163.25
20
-145
11
163.25
21
-131
0
LINE
8
0
10
163.25
20
-131
11
149.25
21
-131
0
LINE
8
0
10
149.25
20
-131
11
149.25
21
-145
0
LINE
8
0
10
149.25
20
-127.25
11
163.25
21
-127.25
0
LINE
8
0
10
163.25
20
-127.25
11
163.25
21
-113.25
0
LINE
8
0
10
163.25
20
-113.25
11
149.25
21
-113.25
0
LINE
8
0
10
149.25
20
-113.25
11
149.25
21
-127.25
0
LINE
8
0
10
149.25
20
-109.5
11
163.25
21
-109.5
0
LINE
8
0
10
163.25
20
-109.5
11
163.25
21
-95.5
0
LINE
8
0
10
163.25
20
-95.5
11
149.25
21
-95.5
0
LINE
8
0
10
149.25
20
-95.5
11
149.25
21
-109.5
0
LINE
8
0
10
149.25
20
-91.75
11
163.25
21
-91.75
0
LINE
8
0
10
163.25
20
-91.75
11
163.25
21
-77.75
0
LINE
8
0
10
163.25
20
-77.75
11
149.25
21
-77.75
0
LINE
8
0
10
149.25
20
-77.75
11
149.25
21
-91.75
0
LINE
8
0
10
149.25
20
-74
11
163.25
21
-74
0
LINE
8
0
10
163.25
20
-74
11
163.25
21
-60
0
LINE
8
0
10
163.25
20
-60
11
149.25
21
-60
0
LINE
8
0
10
149.25
20
-60
11
149.25
21
-74
0
LINE
8
0
10
168
20
-151
11
182
21
-151
0
LINE
8
0
10
182
20
-151
11
182
21
-137
0
LINE
8
0
10
182
20
-137
11
168
21
-137
0
LINE
8
0
10
168
20
-137
11
168
21
-151
0
LINE
8
0
10
168
20
-133.25
11
182
21
-133.25
0
LINE
8
0
10
182
20
-133.25
11
182
21
-119.25
0
LINE
8
0
10
182
20
-119.25
11
168
21
-119.25
0
LINE
8
0
10
168
20
-119.25
11
168
21
-133.25
0
LINE
8
0
10
168
20
-115.5
11
182
21
-115.5
0
LINE
8
0
10
182
20
-115.5
11
182
21
-101.5
0
LINE
8
0
10
182
20
-101.5
11
168
21
-101.5
0
LINE
8
0
10
168
20
-101.5
11
168
21
-115.5
0
LINE
8
0
10
168
20
-97.75
11
182
21
-97.75
0
LINE
8
0
10
182
20
-97.75
11
182
21
-83.75
0
LINE
8
0
10
182
20
-83.75
11
168
21
-83.75
0
LINE
8
0
10
168
20
-83.75
11
168
21
-97.75
0
LINE
8
0
10
168
20
-80
11
182
21
-80
0
LINE
8
0
10
182
20
-80
11
182
21
-66
0
LINE
8
0
10
182
20
-66
11
168
21
-66
0
LINE
8
0
10
168
20
-66
11
168
21
-80
0
LINE
8
0
10
186.75
20
-154
11
200.75
21
-154
0
LINE
8
0
10
200.75
20
-154
11
200.75
21
-140
0
LINE
8
0
10
200.75
20
-140
11
186.75
21
-140
0
LINE
8
0
10
186.75
20
-140
11
186.75
21
-154
0
LINE
8
0
10
186.75
20
-136.25
11
200.75
21
-136.25
0
LINE
8
0
10
200.75
20
-136.25
11
200.75
21
-122.25
0
LINE
8
0
10
200.75
20
-122.25
11
186.75
21
-122.25
0
LINE
8
0
10
186.75
20
-122.25
11
186.75
21
-136.25
0
LINE
8
0
10
186.75
20
-118.5
11
200.75
21
-118.5
0
LINE
8
0
10
200.75
20
-118.5
11
200.75
21
-104.5
0
LINE
8
0
10
200.75
20
-104.5
11
186.75
21
-104.5
0
LINE
8
0
10
186.75
20
-104.5
11
186.75
21
-118.5
0
LINE
8
0
10
186.75
20
-100.75
11
200.75
21
-100.75
0
LINE
8
0
10
200.75
20
-100.75
11
200.75
21
-86.75
0
LINE
8
0
10
200.75
20
-86.75
11
186.75
21
-86.75
0
LINE
8
0
10
186.75
20
-86.75
11
186.75
21
-100.75
0
LINE
8
0
10
186.75
20
-83
11
200.75
21
-83
0
LINE
8
0
10
200.75
20
-83
11
200.75
21
-69
0
LINE
8
0
10
200.75
20
-69
11
186.75
21
-69
0
LINE
8
0
10
186.75
20
-69
11
186.75
21
-83
0
LINE
8
0
10
340.5
20
-157
11
354.5
21
-157
0
LINE
8
0
10
354.5
20
-157
11
354.5
21
-143
0
LINE
8
0
10
354.5
20
-143
11
340.5
21
-143
0
LINE
8
0
10
340.5
20
-143
11
340.5
21
-157
0
LINE
8
0
10
340.5
20
-139.25
11
354.5
21
-139.25
0
LINE
8
0
10
354.5
20
-139.25
11
354.5
21
-125.25
0
LINE
8
0
10
354.5
20
-125.25
11
340.5
21
-125.25
0
LINE
8
0
10
340.5
20
-125.25
11
340.5
21
-139.25
0
LINE
8
0
10
340.5
20
-121.5
11
354.5
21
-121.5
0
LINE
8
0
10
354.5
20
-121.5
11
354.5
21
-107.5
0
LINE
8
0
10
354.5
20
-107.5
11
340.5
21
-107.5
0
LINE
8
0
10
340.5
20
-107.5
11
340.5
21
-121.5
0
LINE
8
0
10
340.5
20
-103.75
11
354.5
21
-103.75
0
LINE
8
0
10
354.5
20
-103.75
11
354.5
21
-89.75
0
LINE
8
0
10
354.5
20
-89.75
11
340.5
21
-89.75
0
LINE
8
0
10
340.5
20
-89.75
11
340.5
21
-103.75
0
LINE
8
0
10
340.5
20
-86
11
354.5
21
-86
0
LINE
8
0
10
354.5
20
-86
11
354.5
21
-72
0
LINE
8
0
10
354.5
20
-72
11
340.5
21
-72
0
LINE
8
0
10
340.5
20
-72
11
340.5
21
-86
0
LINE
8
0
10
321.75
20
-157
11
335.75
21
-157
0
LINE
8
0
10
335.75
20
-157
11
335.75
21
-143
0
LINE
8
0
10
335.75
20
-143
11
321.75
21
-143
0
LINE
8
0
10
321.75
20
-143
11
321.75
21
-157
0
LINE
8
0
10
321.75
20
-139.25
11
335.75
21
-139.25
0
LINE
8
0
10
335.75
20
-139.25
11
335.75
21
-125.25
0
LINE
8
0
10
335.75
20
-125.25
11
321.75
21
-125.25
0
LINE
8
0
10
321.75
20
-125.25
11
321.75
21
-139.25
0
LINE
8
0
10
321.75
20
-121.5
11
335.75
21
-121.5
0
LINE
8
0
10
335.75
20
-121.5
11
335.75
21
-107.5
0
LINE
8
0
10
335.75
20
-107.5
11
321.75
21
-107.5
0
LINE
8
0
10
321.75
20
-107.5
11
321.75
21
-121.5
0
LINE
8
0
10
321.75
20
-103.75
11
335.75
21
-103.75
0
LINE
8
0
10
335.75
20
-103.75
11
335.75
21
-89.75
0
LINE
8
0
10
335.75
20
-89.75
11
321.75
21
-89.75
0
LINE
8
0
10
321.75
20
-89.75
11
321.75
21
-103.75
0
LINE
8
0
10
321.75
20
-86
11
335.75
21
-86
0
LINE
8
0
10
335.75
20
-86
11
335.75
21
-72
0
LINE
8
0
10
335.75
20
-72
11
321.75
21
-72
0
LINE
8
0
10
321.75
20
-72
11
321.75
21
-86
0
LINE
8
0
10
303
20
-150
11
317
21
-150
0
LINE
8
0
10
317
20
-150
11
317
21
-136
0
LINE
8
0
10
317
20
-136
11
303
21
-136
0
LINE
8
0
10
303
20
-136
11
303
21
-150
0
LINE
8
0
10
303
20
-132.25
11
317
21
-132.25
0
LINE
8
0
10
317
20
-132.25
11
317
21
-118.25
0
LINE
8
0
10
317
20
-118.25
11
303
21
-118.25
0
LINE
8
0
10
303
20
-118.25
11
303
21
-132.25
0
LINE
8
0
10
303
20
-114.5
11
317
21
-114.5
0
LINE
8
0
10
317
20
-114.5
11
317
21
-100.5
0
LINE
8
0
10
317
20
-100.5
11
303
21
-100.5
0
LINE
8
0
10
303
20
-100.5
11
303
21
-114.5
0
LINE
8
0
10
303
20
-96.75
11
317
21
-96.75
0
LINE
8
0
10
317
20
-96.75
11
317
21
-82.75
0
LINE
8
0
10
317
20
-82.75
11
303
21
-82.75
0
LINE
8
0
10
303
20
-82.75
11
303
21
-96.75
0
LINE
8
0
10
303
20
-79
11
317
21
-79
0
LINE
8
0
10
317
20
-79
11
317
21
-65
0
LINE
8
0
10
317
20
-65
11
303
21
-65
0
LINE
8
0
10
303
20
-65
11
303
21
-79
0
LINE
8
0
10
284.25
20
-145
11
298.25
21
-145
0
LINE
8
0
10
298.25
20
-145
11
298.25
21
-131
0
LINE
8
0
10
298.25
20
-131
11
284.25
21
-131
0
LINE
8
0
10
284.25
20
-131
11
284.25
21
-145
0
LINE
8
0
10
284.25
20
-127.25
11
298.25
21
-127.25
0
LINE
8
0
10
298.25
20
-127.25
11
298.25
21
-113.25
0
LINE
8
0
10
298.25
20
-113.25
11
284.25
21
-113.25
0
LINE
8
0
10
284.25
20
-113.25
11
284.25
21
-127.25
0
LINE
8
0
10
284.25
20
-109.5
11
298.25
21
-109.5
0
LINE
8
0
10
298.25
20
-109.5
11
298.25
21
-95.5
0
LINE
8
0
10
298.25
20
-95.5
11
284.25
21
-95.5
0
LINE
8
0
10
284.25
20
-95.5
11
284.25
21
-109.5
0
LINE
8
0
10
284.25
20
-91.75
11
298.25
21
-91.75
0
LINE
8
0
10
298.25
20
-91.75
11
298.25
21
-77.75
0
LINE
8
0
10
298.25
20
-77.75
11
284.25
21
-77.75
0
LINE
8
0
10
284.25
20
-77.75
11
284.25
21
-91.75
0
LINE
8
0
10
284.25
20
-74
11
298.25
21
-74
0
LINE
8
0
10
298.25
20
-74
11
298.25
21
-60
0
LINE
8
0
10
298.25
20
-60
11
284.25
21
-60
0
LINE
8
0
10
284.25
20
-60
11
284.25
21
-74
0
LINE
8
0
10
265.5
20
-151
11
279.5
21
-151
0
LINE
8
0
10
279.5
20
-151
11
279.5
21
-137
0
LINE
8
0
10
279.5
20
-137
11
265.5
21
-137
0
LINE
8
0
10
265.5
20
-137
11
265.5
21
-151
0
LINE
8
0
10
265.5
20
-133.25
11
279.5
21
-133.25
0
LINE
8
0
10
279.5
20
-133.25
11
279.5
21
-119.25
0
LINE
8
0
10
279.5
20
-119.25
11
265.5
21
-119.25
0
LINE
8
0
10
265.5
20
-119.25
11
265.5
21
-133.25
0
LINE
8
0
10
265.5
20
-115.5
11
279.5
21
-115.5
0
LINE
8
0
10
279.5
20
-115.5
11
279.5
21
-101.5
0
LINE
8
0
10
279.5
20
-101.5
11
265.5
21
-101.5
0
LINE
8
0
10
265.5
20
-101.5
11
265.5
21
-115.5
0
LINE
8
0
10
265.5
20
-97.75
11
279.5
21
-97.75
0
LINE
8
0
10
279.5
20
-97.75
11
279.5
21
-83.75
0
LINE
8
0
10
279.5
20
-83.75
11
265.5
21
-83.75
0
LINE
8
0
10
265.5
20
-83.75
11
265.5
21
-97.75
0
LINE
8
0
10
265.5
20
-80
11
279.5
21
-80
0
LINE
8
0
10
279.5
20
-80
11
279.5
21
-66
0
LINE
8
0
10
279.5
20
-66
11
265.5
21
-66
0
LINE
8
0
10
265.5
20
-66
11
265.5
21
-80
0
LINE
8
0
10
246.75
20
-154
11
260.75
21
-154
0
LINE
8
0
10
260.75
20
-154
11
260.75
21
-140
0
LINE
8
0
10
260.75
20
-140
11
246.75
21
-140
0
LINE
8
0
10
246.75
20
-140
11
246.75
21
-154
0
LINE
8
0
10
246.75
20
-136.25
11
260.75
21
-136.25
0
LINE
8
0
10
260.75
20
-136.25
11
260.75
21
-122.25
0
LINE
8
0
10
260.75
20
-122.25
11
246.75
21
-122.25
0
LINE
8
0
10
246.75
20
-122.25
11
246.75
21
-136.25
0
LINE
8
0
10
246.75
20
-118.5
11
260.75
21
-118.5
0
LINE
8
0
10
260.75
20
-118.5
11
260.75
21
-104.5
0
LINE
8
0
10
260.75
20
-104.5
11
246.75
21
-104.5
0
LINE
8
0
10
246.75
20
-104.5
11
246.75
21
-118.5
0
LINE
8
0
10
246.75
20
-100.75
11
260.75
21
-100.75
0
LINE
8
0
10
260.75
20
-100.75
11
260.75
21
-86.75
0
LINE
8
0
10
260.75
20
-86.75
11
246.75
21
-86.75
0
LINE
8
0
10
246.75
20
-86.75
11
246.75
21
-100.75
0
LINE
8
0
10
246.75
20
-83
11
260.75
21
-83
0
LINE
8
0
10
260.75
20
-83
11
260.75
21
-69
0
LINE
8
0
10
260.75
20
-69
11
246.75
21
-69
0
LINE
8
0
10
246.75
20
-69
11
246.75
21
-83
0
ENDSEC
0
EOF