M48
; DRILL file {KiCad 7.0.8} date 2024 July 17, Wednesday 12:43:30
; FORMAT={-:-/ absolute / inch / decimal}
; #@! TF.CreationDate,2024-07-17T12:43:30-03:00
; #@! TF.GenerationSoftware,Kicad,Pcbnew,7.0.8
; #@! TF.FileFunction,NonPlated,1,2,NPTH
FMAT,2
INCH
; #@! TA.AperFunction,NonPlated,NPTH,ComponentDrill
T1C0.0295
; #@! TA.AperFunction,NonPlated,NPTH,ComponentDrill
T2C0.0354
; #@! TA.AperFunction,NonPlated,NPTH,ComponentDrill
T3C0.0670
; #@! TA.AperFunction,NonPlated,NPTH,ComponentDrill
T4C0.1181
; #@! TA.AperFunction,NonPlated,NPTH,ComponentDrill
T5C0.1350
; #@! TA.AperFunction,NonPlated,NPTH,ComponentDrill
T6C0.1575
%
G90
G05
T1
X9.5817Y-3.5807
X9.69Y-3.5807
T2
X9.6437Y-4.1043
X9.6437Y-4.2224
T3
X9.7736Y-2.9921
X9.7736Y-3.6909
X9.7736Y-4.3898
X9.7736Y-5.0886
X9.7736Y-5.7874
X10.2067Y-2.9921
X10.2067Y-3.6909
X10.2067Y-4.3898
X10.2067Y-5.0886
X10.2067Y-5.7874
X10.5118Y-2.874
X10.5118Y-3.5728
X10.5118Y-4.2717
X10.5118Y-4.9705
X10.5118Y-5.6693
X10.9449Y-2.874
X10.9449Y-3.5728
X10.9449Y-4.2717
X10.9449Y-4.9705
X10.9449Y-5.6693
X11.25Y-2.6378
X11.25Y-3.3366
X11.25Y-4.0354
X11.25Y-4.7343
X11.25Y-5.4331
X11.6831Y-2.6378
X11.6831Y-3.3366
X11.6831Y-4.0354
X11.6831Y-4.7343
X11.6831Y-5.4331
X11.9882Y-2.8346
X11.9882Y-3.5335
X11.9882Y-4.2323
X11.9882Y-4.9311
X11.9882Y-5.6299
X12.4213Y-2.8346
X12.4213Y-3.5335
X12.4213Y-4.2323
X12.4213Y-4.9311
X12.4213Y-5.6299
X12.7264Y-3.1102
X12.7264Y-3.8091
X12.7264Y-4.5079
X12.7264Y-5.2067
X12.7264Y-5.9055
X13.1594Y-3.1102
X13.1594Y-3.8091
X13.1594Y-4.5079
X13.1594Y-5.2067
X13.1594Y-5.9055
X13.4646Y-3.1102
X13.4646Y-3.8091
X13.4646Y-4.5079
X13.4646Y-5.2067
X13.4646Y-5.9055
X13.8976Y-3.1102
X13.8976Y-3.8091
X13.8976Y-4.5079
X13.8976Y-5.2067
X13.8976Y-5.9055
T4
X9.7933Y-3.1398
X9.7933Y-3.8386
X9.7933Y-4.5374
X9.7933Y-5.2362
X9.7933Y-5.935
X9.9902Y-3.2264
X9.9902Y-3.9252
X9.9902Y-4.624
X9.9902Y-5.3228
X9.9902Y-6.0217
X10.5315Y-3.0217
X10.5315Y-3.7205
X10.5315Y-4.4193
X10.5315Y-5.1181
X10.5315Y-5.8169
X10.7283Y-3.1083
X10.7283Y-3.8071
X10.7283Y-4.5059
X10.7283Y-5.2047
X10.7283Y-5.9035
X11.2697Y-2.7854
X11.2697Y-3.4843
X11.2697Y-4.1831
X11.2697Y-4.8819
X11.2697Y-5.5807
X11.4665Y-2.872
X11.4665Y-3.5709
X11.4665Y-4.2697
X11.4665Y-4.9685
X11.4665Y-5.6673
X12.0079Y-2.9823
X12.0079Y-3.6811
X12.0079Y-4.3799
X12.0079Y-5.0787
X12.0079Y-5.7776
X12.2047Y-3.0689
X12.2047Y-3.7677
X12.2047Y-4.4665
X12.2047Y-5.1654
X12.2047Y-5.8642
X12.7461Y-3.2579
X12.7461Y-3.9567
X12.7461Y-4.6555
X12.7461Y-5.3543
X12.7461Y-6.0531
X12.9429Y-3.3445
X12.9429Y-4.0433
X12.9429Y-4.7421
X12.9429Y-5.4409
X12.9429Y-6.1398
X13.4843Y-3.2579
X13.4843Y-3.9567
X13.4843Y-4.6555
X13.4843Y-5.3543
X13.4843Y-6.0531
X13.6811Y-3.3445
X13.6811Y-4.0433
X13.6811Y-4.7421
X13.6811Y-5.4409
X13.6811Y-6.1398
T5
X9.9902Y-2.9921
X9.9902Y-3.6909
X9.9902Y-4.3898
X9.9902Y-5.0886
X9.9902Y-5.7874
X10.7283Y-2.874
X10.7283Y-3.5728
X10.7283Y-4.2717
X10.7283Y-4.9705
X10.7283Y-5.6693
X11.4665Y-2.6378
X11.4665Y-3.3366
X11.4665Y-4.0354
X11.4665Y-4.7343
X11.4665Y-5.4331
X12.2047Y-2.8346
X12.2047Y-3.5335
X12.2047Y-4.2323
X12.2047Y-4.9311
X12.2047Y-5.6299
X12.9429Y-3.1102
X12.9429Y-3.8091
X12.9429Y-4.5079
X12.9429Y-5.2067
X12.9429Y-5.9055
X13.6811Y-3.1102
X13.6811Y-3.8091
X13.6811Y-4.5079
X13.6811Y-5.2067
X13.6811Y-5.9055
T6
X11.0827Y-3.2382
X11.0827Y-5.3346
X11.8504Y-4.5965
X13.2972Y-3.4449
X13.3268Y-5.5413
T0
M30
