%TF.GenerationSoftware,KiCad,Pcbnew,7.0.8*%
%TF.CreationDate,2024-07-17T12:43:32-03:00*%
%TF.ProjectId,right,72696768-742e-46b6-9963-61645f706362,v1.0.0*%
%TF.SameCoordinates,Original*%
%TF.FileFunction,Paste,Top*%
%TF.FilePolarity,Positive*%
%FSLAX46Y46*%
G04 Gerber Fmt 4.6, Leading zero omitted, Abs format (unit mm)*
G04 Created by KiCad (PCBNEW 7.0.8) date 2024-07-17 12:43:32*
%MOMM*%
%LPD*%
G01*
G04 APERTURE LIST*
%ADD10R,1.200000X0.900000*%
G04 APERTURE END LIST*
D10*
%TO.C,D9*%
X317800000Y-144850000D03*
X317800000Y-148150000D03*
%TD*%
%TO.C,D4*%
X355300000Y-98600000D03*
X355300000Y-101900000D03*
%TD*%
%TO.C,D20*%
X280300000Y-92600000D03*
X280300000Y-95900000D03*
%TD*%
%TO.C,D5*%
X355300000Y-80850000D03*
X355300000Y-84150000D03*
%TD*%
%TO.C,D13*%
X317800000Y-73850000D03*
X317800000Y-77150000D03*
%TD*%
%TO.C,D15*%
X299050000Y-122100000D03*
X299050000Y-125400000D03*
%TD*%
%TO.C,D6*%
X336550000Y-151850000D03*
X336550000Y-155150000D03*
%TD*%
%TO.C,D16*%
X299050000Y-86600000D03*
X299050000Y-89900000D03*
%TD*%
%TO.C,D14*%
X299050000Y-139850000D03*
X299050000Y-143150000D03*
%TD*%
%TO.C,D25*%
X336550000Y-128600000D03*
X336550000Y-131900000D03*
%TD*%
%TO.C,D17*%
X299050000Y-68850000D03*
X299050000Y-72150000D03*
%TD*%
%TO.C,D1*%
X355300000Y-151850000D03*
X355300000Y-155150000D03*
%TD*%
%TO.C,D18*%
X280300000Y-145850000D03*
X280300000Y-149150000D03*
%TD*%
%TO.C,D3*%
X355300000Y-116350000D03*
X355300000Y-119650000D03*
%TD*%
%TO.C,D23*%
X261550000Y-113350000D03*
X261550000Y-116650000D03*
%TD*%
%TO.C,D11*%
X317800000Y-109350000D03*
X317800000Y-112650000D03*
%TD*%
%TO.C,D21*%
X261550000Y-148850000D03*
X261550000Y-152150000D03*
%TD*%
%TO.C,D12*%
X317800000Y-91600000D03*
X317800000Y-94900000D03*
%TD*%
%TO.C,D29*%
X280300000Y-69350000D03*
X280300000Y-72650000D03*
%TD*%
%TO.C,D24*%
X261550000Y-95600000D03*
X261550000Y-98900000D03*
%TD*%
%TO.C,D19*%
X280300000Y-110350000D03*
X280300000Y-113650000D03*
%TD*%
%TO.C,D28*%
X280300000Y-122600000D03*
X280300000Y-125900000D03*
%TD*%
%TO.C,D22*%
X261550000Y-131100000D03*
X261550000Y-134400000D03*
%TD*%
%TO.C,D27*%
X299050000Y-98850000D03*
X299050000Y-102150000D03*
%TD*%
%TO.C,D8*%
X336550000Y-98600000D03*
X336550000Y-101900000D03*
%TD*%
%TO.C,D30*%
X261550000Y-75350000D03*
X261550000Y-78650000D03*
%TD*%
%TO.C,D7*%
X336550000Y-116350000D03*
X336550000Y-119650000D03*
%TD*%
%TO.C,D10*%
X317800000Y-127100000D03*
X317800000Y-130400000D03*
%TD*%
%TO.C,D26*%
X336550000Y-75350000D03*
X336550000Y-78650000D03*
%TD*%
%TO.C,D2*%
X355300000Y-134100000D03*
X355300000Y-137400000D03*
%TD*%
M02*
