%TF.GenerationSoftware,KiCad,Pcbnew,7.0.8*%
%TF.CreationDate,2024-07-17T12:43:32-03:00*%
%TF.ProjectId,right,72696768-742e-46b6-9963-61645f706362,v1.0.0*%
%TF.SameCoordinates,Original*%
%TF.FileFunction,Profile,NP*%
%FSLAX46Y46*%
G04 Gerber Fmt 4.6, Leading zero omitted, Abs format (unit mm)*
G04 Created by KiCad (PCBNEW 7.0.8) date 2024-07-17 12:43:32*
%MOMM*%
%LPD*%
G01*
G04 APERTURE LIST*
%TA.AperFunction,Profile*%
%ADD10C,0.150000*%
%TD*%
G04 APERTURE END LIST*
D10*
X356500000Y-68500000D02*
X323547161Y-68500000D01*
X317191419Y-155286938D02*
G75*
G03*
X315202839Y-153500000I-1988619J-213062D01*
G01*
X261870197Y-157499997D02*
G75*
G03*
X263344505Y-156851449I3J1999997D01*
G01*
X321558581Y-66713062D02*
G75*
G03*
X323547161Y-68500000I1988619J213062D01*
G01*
X358500000Y-158500000D02*
X358500000Y-70500000D01*
X266379803Y-154500000D02*
X281734436Y-154500000D01*
X261121233Y-64014868D02*
X260749900Y-65500000D01*
X298505498Y-150203319D02*
X298744502Y-151796681D01*
X282015564Y-56499965D02*
G75*
G03*
X280031009Y-58251931I36J-2000035D01*
G01*
X277734436Y-62500035D02*
G75*
G03*
X279718991Y-60748069I-36J2000035D01*
G01*
X321191419Y-63286938D02*
G75*
G03*
X319202839Y-61500000I-1988619J-213062D01*
G01*
X242750000Y-155500000D02*
G75*
G03*
X244750000Y-157500000I2000000J0D01*
G01*
X356500000Y-160500000D02*
G75*
G03*
X358500000Y-158500000I0J2000000D01*
G01*
X298505473Y-150203323D02*
G75*
G03*
X296527625Y-148500000I-1977873J-296677D01*
G01*
X244750000Y-65500000D02*
G75*
G03*
X242750000Y-67500000I0J-2000000D01*
G01*
X319547161Y-160500000D02*
X356500000Y-160500000D01*
X317558581Y-158713062D02*
G75*
G03*
X319547161Y-160500000I1988619J213062D01*
G01*
X286015564Y-148500000D02*
X296527625Y-148500000D01*
X298744527Y-151796677D02*
G75*
G03*
X300722375Y-153500000I1977873J296677D01*
G01*
X302505473Y-58203323D02*
G75*
G03*
X300527625Y-56500000I-1977873J-296677D01*
G01*
X358500000Y-70500000D02*
G75*
G03*
X356500000Y-68500000I-2000000J0D01*
G01*
X300722375Y-153500000D02*
X315202839Y-153500000D01*
X281734436Y-154500035D02*
G75*
G03*
X283718991Y-152748069I-36J2000035D01*
G01*
X286015564Y-148499965D02*
G75*
G03*
X284031009Y-150251931I36J-2000035D01*
G01*
X242750000Y-67500000D02*
X242750000Y-155500000D01*
X283718991Y-152748069D02*
X284031009Y-150251931D01*
X317191457Y-155286934D02*
X317558543Y-158713066D01*
X277734436Y-62500000D02*
X263061502Y-62500000D01*
X321558543Y-66713066D02*
X321191457Y-63286934D01*
X302744527Y-59796677D02*
G75*
G03*
X304722375Y-61500000I1977873J296677D01*
G01*
X266379803Y-154500003D02*
G75*
G03*
X264905495Y-155148551I-3J-1999997D01*
G01*
X260749900Y-65500000D02*
X244750000Y-65500000D01*
X302744502Y-59796681D02*
X302505498Y-58203319D01*
X263344505Y-156851449D02*
X264905495Y-155148551D01*
X319202839Y-61500000D02*
X304722375Y-61500000D01*
X280031009Y-58251931D02*
X279718991Y-60748069D01*
X244750000Y-157500000D02*
X261870197Y-157500000D01*
X300527625Y-56500000D02*
X282015564Y-56500000D01*
X263061502Y-62500002D02*
G75*
G03*
X261121232Y-64014868I-2J-1999998D01*
G01*
M02*
