%TF.GenerationSoftware,KiCad,Pcbnew,7.0.8*%
%TF.CreationDate,2024-07-17T12:43:32-03:00*%
%TF.ProjectId,right,72696768-742e-46b6-9963-61645f706362,v1.0.0*%
%TF.SameCoordinates,Original*%
%TF.FileFunction,Copper,L1,Top*%
%TF.FilePolarity,Positive*%
%FSLAX46Y46*%
G04 Gerber Fmt 4.6, Leading zero omitted, Abs format (unit mm)*
G04 Created by KiCad (PCBNEW 7.0.8) date 2024-07-17 12:43:32*
%MOMM*%
%LPD*%
G01*
G04 APERTURE LIST*
%TA.AperFunction,WasherPad*%
%ADD10C,1.000000*%
%TD*%
%TA.AperFunction,ComponentPad*%
%ADD11R,1.778000X1.778000*%
%TD*%
%TA.AperFunction,SMDPad,CuDef*%
%ADD12R,1.200000X0.900000*%
%TD*%
%TA.AperFunction,ComponentPad*%
%ADD13C,1.905000*%
%TD*%
%TA.AperFunction,ComponentPad*%
%ADD14C,1.752600*%
%TD*%
%TA.AperFunction,ComponentPad*%
%ADD15R,1.700000X1.200000*%
%TD*%
%TA.AperFunction,ComponentPad*%
%ADD16O,1.700000X1.200000*%
%TD*%
%TA.AperFunction,ViaPad*%
%ADD17C,0.800000*%
%TD*%
%TA.AperFunction,Conductor*%
%ADD18C,0.250000*%
%TD*%
G04 APERTURE END LIST*
D10*
%TO.P,T1,*%
%TO.N,*%
X244950000Y-107250000D03*
X244950000Y-104250000D03*
%TD*%
D11*
%TO.P,D9,1*%
%TO.N,P113*%
X317800000Y-142690000D03*
D12*
X317800000Y-144850000D03*
%TO.P,D9,2*%
%TO.N,mirror_third_mod*%
X317800000Y-148150000D03*
D13*
X317800000Y-150310000D03*
%TD*%
D11*
%TO.P,D4,1*%
%TO.N,P029*%
X355300000Y-96440000D03*
D12*
X355300000Y-98600000D03*
%TO.P,D4,2*%
%TO.N,mirror_first_top*%
X355300000Y-101900000D03*
D13*
X355300000Y-104060000D03*
%TD*%
D11*
%TO.P,D20,1*%
%TO.N,P029*%
X280300000Y-90440000D03*
D12*
X280300000Y-92600000D03*
%TO.P,D20,2*%
%TO.N,mirror_fifth_top*%
X280300000Y-95900000D03*
D13*
X280300000Y-98060000D03*
%TD*%
D11*
%TO.P,D5,1*%
%TO.N,P031*%
X355300000Y-78690000D03*
D12*
X355300000Y-80850000D03*
%TO.P,D5,2*%
%TO.N,mirror_first_num*%
X355300000Y-84150000D03*
D13*
X355300000Y-86310000D03*
%TD*%
D11*
%TO.P,D13,1*%
%TO.N,P031*%
X317800000Y-71690000D03*
D12*
X317800000Y-73850000D03*
%TO.P,D13,2*%
%TO.N,mirror_third_num*%
X317800000Y-77150000D03*
D13*
X317800000Y-79310000D03*
%TD*%
D11*
%TO.P,D15,1*%
%TO.N,P115*%
X299050000Y-119940000D03*
D12*
X299050000Y-122100000D03*
%TO.P,D15,2*%
%TO.N,mirror_fourth_bottom*%
X299050000Y-125400000D03*
D13*
X299050000Y-127560000D03*
%TD*%
D11*
%TO.P,D6,1*%
%TO.N,P113*%
X336550000Y-149690000D03*
D12*
X336550000Y-151850000D03*
%TO.P,D6,2*%
%TO.N,mirror_second_mod*%
X336550000Y-155150000D03*
D13*
X336550000Y-157310000D03*
%TD*%
D11*
%TO.P,D16,1*%
%TO.N,P029*%
X299050000Y-84440000D03*
D12*
X299050000Y-86600000D03*
%TO.P,D16,2*%
%TO.N,mirror_fourth_top*%
X299050000Y-89900000D03*
D13*
X299050000Y-92060000D03*
%TD*%
D11*
%TO.P,D14,1*%
%TO.N,P113*%
X299050000Y-137690000D03*
D12*
X299050000Y-139850000D03*
%TO.P,D14,2*%
%TO.N,mirror_fourth_mod*%
X299050000Y-143150000D03*
D13*
X299050000Y-145310000D03*
%TD*%
D11*
%TO.P,D25,1*%
%TO.N,P115*%
X336550000Y-126440000D03*
D12*
X336550000Y-128600000D03*
%TO.P,D25,2*%
%TO.N,mirror_second_bottom*%
X336550000Y-131900000D03*
D13*
X336550000Y-134060000D03*
%TD*%
D11*
%TO.P,D17,1*%
%TO.N,P031*%
X299050000Y-66690000D03*
D12*
X299050000Y-68850000D03*
%TO.P,D17,2*%
%TO.N,mirror_fourth_num*%
X299050000Y-72150000D03*
D13*
X299050000Y-74310000D03*
%TD*%
D11*
%TO.P,D1,1*%
%TO.N,P113*%
X355300000Y-149690000D03*
D12*
X355300000Y-151850000D03*
%TO.P,D1,2*%
%TO.N,mirror_first_mod*%
X355300000Y-155150000D03*
D13*
X355300000Y-157310000D03*
%TD*%
D11*
%TO.P,D18,1*%
%TO.N,P113*%
X280300000Y-143690000D03*
D12*
X280300000Y-145850000D03*
%TO.P,D18,2*%
%TO.N,mirror_fifth_mod*%
X280300000Y-149150000D03*
D13*
X280300000Y-151310000D03*
%TD*%
D11*
%TO.P,D3,1*%
%TO.N,P002*%
X355300000Y-114190000D03*
D12*
X355300000Y-116350000D03*
%TO.P,D3,2*%
%TO.N,mirror_first_home*%
X355300000Y-119650000D03*
D13*
X355300000Y-121810000D03*
%TD*%
D11*
%TO.P,D23,1*%
%TO.N,P002*%
X261550000Y-111190000D03*
D12*
X261550000Y-113350000D03*
%TO.P,D23,2*%
%TO.N,mirror_sixth_home*%
X261550000Y-116650000D03*
D13*
X261550000Y-118810000D03*
%TD*%
D11*
%TO.P,D11,1*%
%TO.N,P002*%
X317800000Y-107190000D03*
D12*
X317800000Y-109350000D03*
%TO.P,D11,2*%
%TO.N,mirror_third_home*%
X317800000Y-112650000D03*
D13*
X317800000Y-114810000D03*
%TD*%
D11*
%TO.P,D21,1*%
%TO.N,P113*%
X261550000Y-146690000D03*
D12*
X261550000Y-148850000D03*
%TO.P,D21,2*%
%TO.N,mirror_sixth_mod*%
X261550000Y-152150000D03*
D13*
X261550000Y-154310000D03*
%TD*%
D11*
%TO.P,D12,1*%
%TO.N,P029*%
X317800000Y-89440000D03*
D12*
X317800000Y-91600000D03*
%TO.P,D12,2*%
%TO.N,mirror_third_top*%
X317800000Y-94900000D03*
D13*
X317800000Y-97060000D03*
%TD*%
D11*
%TO.P,D29,1*%
%TO.N,P031*%
X280300000Y-67190000D03*
D12*
X280300000Y-69350000D03*
%TO.P,D29,2*%
%TO.N,mirror_fifth_num*%
X280300000Y-72650000D03*
D13*
X280300000Y-74810000D03*
%TD*%
D14*
%TO.P,MCU1,1*%
%TO.N,P006*%
X248780000Y-85120000D03*
%TO.P,MCU1,2*%
%TO.N,P008*%
X251320000Y-85120000D03*
%TO.P,MCU1,3*%
%TO.N,GND*%
X253860000Y-85120000D03*
%TO.P,MCU1,4*%
X256400000Y-85120000D03*
%TO.P,MCU1,5*%
%TO.N,P017*%
X258940000Y-85120000D03*
%TO.P,MCU1,6*%
%TO.N,P020*%
X261480000Y-85120000D03*
%TO.P,MCU1,7*%
%TO.N,P022*%
X264020000Y-85120000D03*
%TO.P,MCU1,8*%
%TO.N,P024*%
X266560000Y-85120000D03*
%TO.P,MCU1,9*%
%TO.N,P100*%
X269100000Y-85120000D03*
%TO.P,MCU1,10*%
%TO.N,P011*%
X271640000Y-85120000D03*
%TO.P,MCU1,11*%
%TO.N,P104*%
X274180000Y-85120000D03*
%TO.P,MCU1,12*%
%TO.N,P106*%
X276720000Y-85120000D03*
%TO.P,MCU1,13*%
%TO.N,P009*%
X276720000Y-69880000D03*
%TO.P,MCU1,14*%
%TO.N,P010*%
X274180000Y-69880000D03*
%TO.P,MCU1,15*%
%TO.N,P111*%
X271640000Y-69880000D03*
%TO.P,MCU1,16*%
%TO.N,P113*%
X269100000Y-69880000D03*
%TO.P,MCU1,17*%
%TO.N,P115*%
X266560000Y-69880000D03*
%TO.P,MCU1,18*%
%TO.N,P002*%
X264020000Y-69880000D03*
%TO.P,MCU1,19*%
%TO.N,P029*%
X261480000Y-69880000D03*
%TO.P,MCU1,20*%
%TO.N,P031*%
X258940000Y-69880000D03*
%TO.P,MCU1,21*%
%TO.N,VCC*%
X256400000Y-69880000D03*
%TO.P,MCU1,22*%
%TO.N,RST*%
X253860000Y-69880000D03*
%TO.P,MCU1,23*%
%TO.N,GND*%
X251320000Y-69880000D03*
%TO.P,MCU1,24*%
%TO.N,RAW*%
X248780000Y-69880000D03*
%TD*%
D11*
%TO.P,D24,1*%
%TO.N,P029*%
X261550000Y-93440000D03*
D12*
X261550000Y-95600000D03*
%TO.P,D24,2*%
%TO.N,mirror_sixth_top*%
X261550000Y-98900000D03*
D13*
X261550000Y-101060000D03*
%TD*%
D11*
%TO.P,D19,1*%
%TO.N,P002*%
X280300000Y-108190000D03*
D12*
X280300000Y-110350000D03*
%TO.P,D19,2*%
%TO.N,mirror_fifth_home*%
X280300000Y-113650000D03*
D13*
X280300000Y-115810000D03*
%TD*%
D11*
%TO.P,D28,1*%
%TO.N,P115*%
X280300000Y-120440000D03*
D12*
X280300000Y-122600000D03*
%TO.P,D28,2*%
%TO.N,mirror_fifth_bottom*%
X280300000Y-125900000D03*
D13*
X280300000Y-128060000D03*
%TD*%
D11*
%TO.P,D22,1*%
%TO.N,P115*%
X261550000Y-128940000D03*
D12*
X261550000Y-131100000D03*
%TO.P,D22,2*%
%TO.N,mirror_sixth_bottom*%
X261550000Y-134400000D03*
D13*
X261550000Y-136560000D03*
%TD*%
D15*
%TO.P,JST1,1*%
%TO.N,pos*%
X295250000Y-95500000D03*
D16*
%TO.P,JST1,2*%
%TO.N,GND*%
X295250000Y-97500000D03*
%TD*%
D11*
%TO.P,D27,1*%
%TO.N,P002*%
X299050000Y-96690000D03*
D12*
X299050000Y-98850000D03*
%TO.P,D27,2*%
%TO.N,mirror_fourth_home*%
X299050000Y-102150000D03*
D13*
X299050000Y-104310000D03*
%TD*%
D11*
%TO.P,D8,1*%
%TO.N,P029*%
X336550000Y-96440000D03*
D12*
X336550000Y-98600000D03*
%TO.P,D8,2*%
%TO.N,mirror_second_top*%
X336550000Y-101900000D03*
D13*
X336550000Y-104060000D03*
%TD*%
D11*
%TO.P,D30,1*%
%TO.N,P031*%
X261550000Y-73190000D03*
D12*
X261550000Y-75350000D03*
%TO.P,D30,2*%
%TO.N,mirror_sixth_num*%
X261550000Y-78650000D03*
D13*
X261550000Y-80810000D03*
%TD*%
D11*
%TO.P,D7,1*%
%TO.N,P002*%
X336550000Y-114190000D03*
D12*
X336550000Y-116350000D03*
%TO.P,D7,2*%
%TO.N,mirror_second_home*%
X336550000Y-119650000D03*
D13*
X336550000Y-121810000D03*
%TD*%
D11*
%TO.P,D10,1*%
%TO.N,P115*%
X317800000Y-124940000D03*
D12*
X317800000Y-127100000D03*
%TO.P,D10,2*%
%TO.N,mirror_third_bottom*%
X317800000Y-130400000D03*
D13*
X317800000Y-132560000D03*
%TD*%
D11*
%TO.P,D26,1*%
%TO.N,P031*%
X336550000Y-73190000D03*
D12*
X336550000Y-75350000D03*
%TO.P,D26,2*%
%TO.N,mirror_second_num*%
X336550000Y-78650000D03*
D13*
X336550000Y-80810000D03*
%TD*%
D11*
%TO.P,D2,1*%
%TO.N,P115*%
X355300000Y-131940000D03*
D12*
X355300000Y-134100000D03*
%TO.P,D2,2*%
%TO.N,mirror_first_bottom*%
X355300000Y-137400000D03*
D13*
X355300000Y-139560000D03*
%TD*%
D17*
%TO.N,P020*%
X257800000Y-77800000D03*
%TO.N,P022*%
X332000000Y-135400000D03*
X332000000Y-132600000D03*
%TO.N,P024*%
X293800000Y-80800000D03*
X278800000Y-80600000D03*
X275600000Y-83200000D03*
%TO.N,P100*%
X288000000Y-85400000D03*
X297000000Y-123800000D03*
X294800000Y-128400000D03*
X288200000Y-91600000D03*
%TO.N,P113*%
X271200000Y-66200000D03*
%TO.N,P115*%
X268800000Y-66400000D03*
%TO.N,P002*%
X279800000Y-78200000D03*
X287200000Y-83200000D03*
%TO.N,RAW*%
X251400000Y-97200000D03*
%TO.N,GND*%
X269800000Y-101200000D03*
%TO.N,RST*%
X247600000Y-88400000D03*
%TO.N,pos*%
X250800000Y-105600000D03*
%TD*%
D18*
%TO.N,P020*%
X257800000Y-77800000D02*
X257800000Y-81440000D01*
X257800000Y-81440000D02*
X261480000Y-85120000D01*
%TO.N,mirror_first_mod*%
X355300000Y-157310000D02*
X355300000Y-155150000D01*
%TO.N,mirror_first_bottom*%
X355300000Y-139560000D02*
X355300000Y-137400000D01*
%TO.N,mirror_first_home*%
X355300000Y-121810000D02*
X355300000Y-119650000D01*
%TO.N,mirror_first_top*%
X355300000Y-104060000D02*
X355300000Y-101900000D01*
%TO.N,mirror_first_num*%
X355300000Y-86310000D02*
X355300000Y-84150000D01*
%TO.N,P022*%
X332000000Y-132600000D02*
X332000000Y-135400000D01*
%TO.N,mirror_second_mod*%
X336550000Y-157310000D02*
X336550000Y-155150000D01*
%TO.N,mirror_second_bottom*%
X336550000Y-134060000D02*
X336550000Y-131900000D01*
%TO.N,mirror_second_home*%
X336550000Y-121810000D02*
X336550000Y-119650000D01*
%TO.N,mirror_second_top*%
X336550000Y-104060000D02*
X336550000Y-101900000D01*
%TO.N,mirror_second_num*%
X336550000Y-80810000D02*
X336550000Y-78650000D01*
%TO.N,P024*%
X293800000Y-80800000D02*
X292825000Y-79825000D01*
X279575000Y-79825000D02*
X278800000Y-80600000D01*
X268480000Y-83200000D02*
X266560000Y-85120000D01*
X275600000Y-83200000D02*
X268480000Y-83200000D01*
X292825000Y-79825000D02*
X279575000Y-79825000D01*
%TO.N,mirror_third_mod*%
X317800000Y-150310000D02*
X317800000Y-148150000D01*
%TO.N,mirror_third_bottom*%
X317800000Y-132560000D02*
X317800000Y-130400000D01*
%TO.N,mirror_third_home*%
X317800000Y-114810000D02*
X317800000Y-112650000D01*
%TO.N,mirror_third_top*%
X317800000Y-97060000D02*
X317800000Y-94900000D01*
%TO.N,mirror_third_num*%
X317800000Y-79310000D02*
X317800000Y-77150000D01*
%TO.N,P100*%
X288200000Y-85600000D02*
X288200000Y-91600000D01*
X296800000Y-127800000D02*
X296200000Y-128400000D01*
X297000000Y-127600000D02*
X296800000Y-127800000D01*
X288000000Y-85400000D02*
X288200000Y-85600000D01*
X296200000Y-128400000D02*
X294800000Y-128400000D01*
X297000000Y-123800000D02*
X297000000Y-127600000D01*
%TO.N,mirror_fourth_mod*%
X299050000Y-145310000D02*
X299050000Y-143150000D01*
%TO.N,mirror_fourth_bottom*%
X299050000Y-127560000D02*
X299050000Y-125400000D01*
%TO.N,mirror_fourth_home*%
X299050000Y-104310000D02*
X299050000Y-102150000D01*
%TO.N,mirror_fourth_top*%
X299050000Y-92060000D02*
X299050000Y-89900000D01*
%TO.N,mirror_fourth_num*%
X299050000Y-74310000D02*
X299050000Y-72150000D01*
%TO.N,mirror_fifth_mod*%
X280300000Y-151310000D02*
X280300000Y-149150000D01*
%TO.N,mirror_fifth_bottom*%
X280300000Y-128060000D02*
X280300000Y-125900000D01*
%TO.N,mirror_fifth_home*%
X280300000Y-115810000D02*
X280300000Y-113650000D01*
%TO.N,mirror_fifth_top*%
X280300000Y-98060000D02*
X280300000Y-95900000D01*
%TO.N,mirror_fifth_num*%
X280300000Y-74810000D02*
X280300000Y-72650000D01*
%TO.N,mirror_sixth_mod*%
X261550000Y-154310000D02*
X261550000Y-152150000D01*
%TO.N,mirror_sixth_bottom*%
X261550000Y-136560000D02*
X261550000Y-134400000D01*
%TO.N,mirror_sixth_home*%
X261550000Y-118810000D02*
X261550000Y-116650000D01*
%TO.N,mirror_sixth_top*%
X261550000Y-101060000D02*
X261550000Y-98900000D01*
%TO.N,mirror_sixth_num*%
X261550000Y-80810000D02*
X261550000Y-78650000D01*
%TO.N,P113*%
X266329500Y-141910500D02*
X261550000Y-146690000D01*
X297270500Y-135910500D02*
X284889500Y-135910500D01*
X312808120Y-64460500D02*
X272939500Y-64460500D01*
X319347620Y-71000000D02*
X312808120Y-64460500D01*
X329550000Y-142690000D02*
X317800000Y-142690000D01*
X356600000Y-147800000D02*
X356600000Y-77752380D01*
X280300000Y-140500000D02*
X280300000Y-143690000D01*
X356600000Y-73600000D02*
X354000000Y-71000000D01*
X280300000Y-143690000D02*
X280300000Y-145850000D01*
X355300000Y-149690000D02*
X355300000Y-151850000D01*
X355300000Y-149690000D02*
X352410000Y-146800000D01*
X280300000Y-143690000D02*
X278520500Y-141910500D01*
X312800000Y-137690000D02*
X299050000Y-137690000D01*
X355300000Y-149690000D02*
X356600000Y-148390000D01*
X299050000Y-137690000D02*
X299050000Y-139850000D01*
X335000000Y-71000000D02*
X319347620Y-71000000D01*
X299050000Y-137690000D02*
X297270500Y-135910500D01*
X339440000Y-146800000D02*
X336550000Y-149690000D01*
X272939500Y-64460500D02*
X271200000Y-66200000D01*
X261550000Y-146690000D02*
X261550000Y-148850000D01*
X336550000Y-149690000D02*
X329550000Y-142690000D01*
X284889500Y-135910500D02*
X280300000Y-140500000D01*
X354000000Y-71000000D02*
X335000000Y-71000000D01*
X278520500Y-141910500D02*
X266329500Y-141910500D01*
X352410000Y-146800000D02*
X339440000Y-146800000D01*
X317800000Y-142690000D02*
X317800000Y-144850000D01*
X356600000Y-148390000D02*
X356600000Y-147800000D01*
X317800000Y-142690000D02*
X312800000Y-137690000D01*
X336550000Y-149690000D02*
X336550000Y-151850000D01*
X356600000Y-77752380D02*
X356600000Y-73600000D01*
%TO.N,P115*%
X299050000Y-119940000D02*
X299050000Y-122100000D01*
X299050000Y-118930000D02*
X299050000Y-119940000D01*
X280300000Y-120440000D02*
X282740000Y-118000000D01*
X280300000Y-120440000D02*
X280300000Y-122600000D01*
X299050000Y-119940000D02*
X312800000Y-119940000D01*
X246425000Y-87861396D02*
X246425000Y-87375000D01*
X261550000Y-128940000D02*
X270050000Y-120440000D01*
X349800000Y-126440000D02*
X355300000Y-131940000D01*
X246425000Y-69538604D02*
X249563604Y-66400000D01*
X317800000Y-124940000D02*
X317800000Y-127100000D01*
X261550000Y-122550000D02*
X246875000Y-107875000D01*
X335050000Y-124940000D02*
X336550000Y-126440000D01*
X261550000Y-128940000D02*
X261550000Y-131100000D01*
X249563604Y-66400000D02*
X268800000Y-66400000D01*
X282740000Y-118000000D02*
X298120000Y-118000000D01*
X317800000Y-124940000D02*
X335050000Y-124940000D01*
X336550000Y-126440000D02*
X336550000Y-128600000D01*
X246875000Y-107875000D02*
X246875000Y-88311396D01*
X355300000Y-134100000D02*
X355300000Y-131940000D01*
X270050000Y-120440000D02*
X280300000Y-120440000D01*
X312800000Y-119940000D02*
X317800000Y-124940000D01*
X298120000Y-118000000D02*
X299050000Y-118930000D01*
X261550000Y-128940000D02*
X261550000Y-122550000D01*
X336550000Y-126440000D02*
X349800000Y-126440000D01*
X246875000Y-88311396D02*
X246425000Y-87861396D01*
X246425000Y-87375000D02*
X246425000Y-69538604D01*
%TO.N,P002*%
X288800000Y-84800000D02*
X287200000Y-83200000D01*
X310295001Y-93000000D02*
X306200000Y-88904999D01*
X276689500Y-75089500D02*
X270823184Y-75089500D01*
X261550000Y-111190000D02*
X261550000Y-113350000D01*
X329550000Y-107190000D02*
X317800000Y-107190000D01*
X299050000Y-96690000D02*
X299050000Y-98850000D01*
X270823184Y-75089500D02*
X266933684Y-71200000D01*
X279800000Y-78200000D02*
X276689500Y-75089500D01*
X315400000Y-93000000D02*
X310295001Y-93000000D01*
X317800000Y-107190000D02*
X315400000Y-104790000D01*
X266329500Y-106410500D02*
X261550000Y-111190000D01*
X355300000Y-114190000D02*
X355300000Y-116350000D01*
X266933684Y-71200000D02*
X265340000Y-71200000D01*
X282200000Y-102400000D02*
X280300000Y-104300000D01*
X291345001Y-87800000D02*
X288800000Y-85254999D01*
X317800000Y-107190000D02*
X307300000Y-96690000D01*
X280300000Y-104300000D02*
X280300000Y-108190000D01*
X317800000Y-107190000D02*
X317800000Y-109350000D01*
X299050000Y-96690000D02*
X295740000Y-100000000D01*
X284000000Y-102400000D02*
X282200000Y-102400000D01*
X336550000Y-114190000D02*
X329550000Y-107190000D01*
X306200000Y-88904999D02*
X306200000Y-87800000D01*
X336550000Y-114190000D02*
X336550000Y-116350000D01*
X307300000Y-96690000D02*
X299050000Y-96690000D01*
X278520500Y-106410500D02*
X266329500Y-106410500D01*
X288800000Y-85254999D02*
X288800000Y-84800000D01*
X353510000Y-112400000D02*
X338340000Y-112400000D01*
X355300000Y-114190000D02*
X353510000Y-112400000D01*
X280300000Y-108190000D02*
X278520500Y-106410500D01*
X265340000Y-71200000D02*
X264020000Y-69880000D01*
X306200000Y-87800000D02*
X291345001Y-87800000D01*
X295740000Y-100000000D02*
X286400000Y-100000000D01*
X315400000Y-104790000D02*
X315400000Y-93000000D01*
X286400000Y-100000000D02*
X284000000Y-102400000D01*
X280300000Y-108190000D02*
X280300000Y-110350000D01*
X338340000Y-112400000D02*
X336550000Y-114190000D01*
%TO.N,P029*%
X299050000Y-84440000D02*
X312800000Y-84440000D01*
X280300000Y-90440000D02*
X280300000Y-88100000D01*
X317800000Y-89440000D02*
X329550000Y-89440000D01*
X355300000Y-96440000D02*
X355300000Y-98600000D01*
X277942802Y-78942802D02*
X276000000Y-77000000D01*
X280300000Y-90440000D02*
X280300000Y-92600000D01*
X278520500Y-88660500D02*
X280300000Y-90440000D01*
X280300000Y-90440000D02*
X277942802Y-88082802D01*
X336550000Y-96440000D02*
X336550000Y-98600000D01*
X286000000Y-82400000D02*
X297010000Y-82400000D01*
X312800000Y-84440000D02*
X317800000Y-89440000D01*
X353520500Y-94660500D02*
X355300000Y-96440000D01*
X261550000Y-93440000D02*
X266329500Y-88660500D01*
X267801650Y-74400000D02*
X266000000Y-74400000D01*
X261550000Y-93440000D02*
X261550000Y-95600000D01*
X266329500Y-88660500D02*
X278520500Y-88660500D01*
X338329500Y-94660500D02*
X353520500Y-94660500D01*
X266000000Y-74400000D02*
X261480000Y-69880000D01*
X299050000Y-84440000D02*
X299050000Y-86600000D01*
X329550000Y-89440000D02*
X336550000Y-96440000D01*
X280300000Y-88100000D02*
X286000000Y-82400000D01*
X270401650Y-77000000D02*
X267801650Y-74400000D01*
X276000000Y-77000000D02*
X270401650Y-77000000D01*
X336550000Y-96440000D02*
X338329500Y-94660500D01*
X297010000Y-82400000D02*
X299050000Y-84440000D01*
X317800000Y-89440000D02*
X317800000Y-91600000D01*
X277942802Y-88082802D02*
X277942802Y-78942802D01*
%TO.N,P031*%
X282579500Y-64910500D02*
X280300000Y-67190000D01*
X299050000Y-66690000D02*
X299050000Y-68850000D01*
X280300000Y-67190000D02*
X280300000Y-69350000D01*
X336550000Y-73190000D02*
X336550000Y-75350000D01*
X317800000Y-71690000D02*
X317800000Y-73850000D01*
X319300000Y-73190000D02*
X317800000Y-71690000D01*
X349800000Y-73190000D02*
X336550000Y-73190000D01*
X261550000Y-72490000D02*
X261550000Y-73190000D01*
X261550000Y-73190000D02*
X261550000Y-75350000D01*
X258940000Y-69880000D02*
X261550000Y-72490000D01*
X280300000Y-67190000D02*
X261630000Y-67190000D01*
X314710000Y-68600000D02*
X302000000Y-68600000D01*
X336550000Y-73190000D02*
X319300000Y-73190000D01*
X297270500Y-64910500D02*
X282579500Y-64910500D01*
X317800000Y-71690000D02*
X314710000Y-68600000D01*
X300090000Y-66690000D02*
X299050000Y-66690000D01*
X302000000Y-68600000D02*
X300090000Y-66690000D01*
X261630000Y-67190000D02*
X258940000Y-69880000D01*
X299050000Y-66690000D02*
X297270500Y-64910500D01*
X355300000Y-78690000D02*
X355300000Y-80850000D01*
X355300000Y-78690000D02*
X349800000Y-73190000D01*
%TO.N,RAW*%
X250625000Y-80526650D02*
X250625000Y-71725000D01*
X250118700Y-81032950D02*
X250625000Y-80526650D01*
X251400000Y-97200000D02*
X250118700Y-95918700D01*
X250625000Y-71725000D02*
X248780000Y-69880000D01*
X250118700Y-95918700D02*
X250118700Y-81032950D01*
%TO.N,GND*%
X256400000Y-92633684D02*
X256400000Y-85120000D01*
X256400000Y-85120000D02*
X253860000Y-85120000D01*
X260166316Y-96400000D02*
X256400000Y-92633684D01*
X265000000Y-96400000D02*
X260166316Y-96400000D01*
X269800000Y-101200000D02*
X265000000Y-96400000D01*
X253860000Y-85120000D02*
X251320000Y-82580000D01*
X251320000Y-82580000D02*
X251320000Y-69880000D01*
%TO.N,RST*%
X248200000Y-68400000D02*
X252380000Y-68400000D01*
X246875000Y-69725000D02*
X248200000Y-68400000D01*
X252380000Y-68400000D02*
X253860000Y-69880000D01*
X247600000Y-88400000D02*
X246875000Y-87675000D01*
X246875000Y-87675000D02*
X246875000Y-69725000D01*
%TO.N,pos*%
X286900000Y-95500000D02*
X295250000Y-95500000D01*
X276800000Y-105600000D02*
X286900000Y-95500000D01*
X250800000Y-105600000D02*
X276800000Y-105600000D01*
%TD*%
M02*
