%TF.GenerationSoftware,KiCad,Pcbnew,7.0.8*%
%TF.CreationDate,2024-07-17T12:43:32-03:00*%
%TF.ProjectId,right,72696768-742e-46b6-9963-61645f706362,v1.0.0*%
%TF.SameCoordinates,Original*%
%TF.FileFunction,Paste,Bot*%
%TF.FilePolarity,Positive*%
%FSLAX46Y46*%
G04 Gerber Fmt 4.6, Leading zero omitted, Abs format (unit mm)*
G04 Created by KiCad (PCBNEW 7.0.8) date 2024-07-17 12:43:32*
%MOMM*%
%LPD*%
G01*
G04 APERTURE LIST*
%ADD10R,0.900000X0.900000*%
%ADD11R,1.250000X0.900000*%
%ADD12R,1.200000X0.900000*%
%ADD13R,2.600000X2.600000*%
%ADD14R,1.000000X1.550000*%
G04 APERTURE END LIST*
D10*
%TO.C,T1*%
X243850000Y-109450000D03*
X246050000Y-109450000D03*
X243850000Y-102050000D03*
X246050000Y-102050000D03*
D11*
X247025000Y-108000000D03*
X247025000Y-105000000D03*
X247025000Y-103500000D03*
%TD*%
D12*
%TO.C,D9*%
X317800000Y-144850000D03*
X317800000Y-148150000D03*
%TD*%
D13*
%TO.C,S9*%
X332025000Y-102700000D03*
X320475000Y-100500000D03*
%TD*%
D12*
%TO.C,D4*%
X355300000Y-98600000D03*
X355300000Y-101900000D03*
%TD*%
D13*
%TO.C,S6*%
X332025000Y-155950000D03*
X320475000Y-153750000D03*
%TD*%
D12*
%TO.C,D20*%
X280300000Y-92600000D03*
X280300000Y-95900000D03*
%TD*%
D13*
%TO.C,S13*%
X313275000Y-113450000D03*
X301725000Y-111250000D03*
%TD*%
%TO.C,S29*%
X257025000Y-99700000D03*
X245475000Y-97500000D03*
%TD*%
%TO.C,S17*%
X294525000Y-126200000D03*
X282975000Y-124000000D03*
%TD*%
D12*
%TO.C,D5*%
X355300000Y-80850000D03*
X355300000Y-84150000D03*
%TD*%
%TO.C,D13*%
X317800000Y-73850000D03*
X317800000Y-77150000D03*
%TD*%
%TO.C,D15*%
X299050000Y-122100000D03*
X299050000Y-125400000D03*
%TD*%
%TO.C,D6*%
X336550000Y-151850000D03*
X336550000Y-155150000D03*
%TD*%
%TO.C,D16*%
X299050000Y-86600000D03*
X299050000Y-89900000D03*
%TD*%
%TO.C,D14*%
X299050000Y-139850000D03*
X299050000Y-143150000D03*
%TD*%
D13*
%TO.C,S15*%
X313275000Y-77950000D03*
X301725000Y-75750000D03*
%TD*%
D12*
%TO.C,D25*%
X336550000Y-128600000D03*
X336550000Y-131900000D03*
%TD*%
%TO.C,D17*%
X299050000Y-68850000D03*
X299050000Y-72150000D03*
%TD*%
%TO.C,D1*%
X355300000Y-151850000D03*
X355300000Y-155150000D03*
%TD*%
D13*
%TO.C,S3*%
X350775000Y-120450000D03*
X339225000Y-118250000D03*
%TD*%
D12*
%TO.C,D18*%
X280300000Y-145850000D03*
X280300000Y-149150000D03*
%TD*%
%TO.C,D3*%
X355300000Y-116350000D03*
X355300000Y-119650000D03*
%TD*%
D13*
%TO.C,S12*%
X313275000Y-131200000D03*
X301725000Y-129000000D03*
%TD*%
D12*
%TO.C,D23*%
X261550000Y-113350000D03*
X261550000Y-116650000D03*
%TD*%
D13*
%TO.C,S2*%
X350775000Y-138200000D03*
X339225000Y-136000000D03*
%TD*%
%TO.C,S11*%
X313275000Y-148950000D03*
X301725000Y-146750000D03*
%TD*%
%TO.C,S5*%
X350775000Y-84950000D03*
X339225000Y-82750000D03*
%TD*%
%TO.C,S18*%
X294525000Y-108450000D03*
X282975000Y-106250000D03*
%TD*%
%TO.C,S14*%
X313275000Y-95700000D03*
X301725000Y-93500000D03*
%TD*%
D14*
%TO.C,B1*%
X243900000Y-93575000D03*
X243900000Y-88325000D03*
X245600000Y-93575000D03*
X245600000Y-88325000D03*
%TD*%
D12*
%TO.C,D11*%
X317800000Y-109350000D03*
X317800000Y-112650000D03*
%TD*%
%TO.C,D21*%
X261550000Y-148850000D03*
X261550000Y-152150000D03*
%TD*%
D13*
%TO.C,S27*%
X257025000Y-135200000D03*
X245475000Y-133000000D03*
%TD*%
%TO.C,S19*%
X294525000Y-90700000D03*
X282975000Y-88500000D03*
%TD*%
%TO.C,S23*%
X275775000Y-114450000D03*
X264225000Y-112250000D03*
%TD*%
D12*
%TO.C,D12*%
X317800000Y-91600000D03*
X317800000Y-94900000D03*
%TD*%
%TO.C,D29*%
X280300000Y-69350000D03*
X280300000Y-72650000D03*
%TD*%
D13*
%TO.C,S8*%
X332025000Y-120450000D03*
X320475000Y-118250000D03*
%TD*%
D12*
%TO.C,D24*%
X261550000Y-95600000D03*
X261550000Y-98900000D03*
%TD*%
%TO.C,D19*%
X280300000Y-110350000D03*
X280300000Y-113650000D03*
%TD*%
D13*
%TO.C,S26*%
X257025000Y-152950000D03*
X245475000Y-150750000D03*
%TD*%
D12*
%TO.C,D28*%
X280300000Y-122600000D03*
X280300000Y-125900000D03*
%TD*%
D13*
%TO.C,S22*%
X275775000Y-132200000D03*
X264225000Y-130000000D03*
%TD*%
%TO.C,S20*%
X294525000Y-72950000D03*
X282975000Y-70750000D03*
%TD*%
%TO.C,S1*%
X350775000Y-155950000D03*
X339225000Y-153750000D03*
%TD*%
D12*
%TO.C,D22*%
X261550000Y-131100000D03*
X261550000Y-134400000D03*
%TD*%
%TO.C,D27*%
X299050000Y-98850000D03*
X299050000Y-102150000D03*
%TD*%
%TO.C,D8*%
X336550000Y-98600000D03*
X336550000Y-101900000D03*
%TD*%
D13*
%TO.C,S7*%
X332025000Y-138200000D03*
X320475000Y-136000000D03*
%TD*%
D12*
%TO.C,D30*%
X261550000Y-75350000D03*
X261550000Y-78650000D03*
%TD*%
%TO.C,D7*%
X336550000Y-116350000D03*
X336550000Y-119650000D03*
%TD*%
D13*
%TO.C,S28*%
X257025000Y-117450000D03*
X245475000Y-115250000D03*
%TD*%
D12*
%TO.C,D10*%
X317800000Y-127100000D03*
X317800000Y-130400000D03*
%TD*%
D13*
%TO.C,S4*%
X350775000Y-102700000D03*
X339225000Y-100500000D03*
%TD*%
%TO.C,S10*%
X332025000Y-84950000D03*
X320475000Y-82750000D03*
%TD*%
D12*
%TO.C,D26*%
X336550000Y-75350000D03*
X336550000Y-78650000D03*
%TD*%
D13*
%TO.C,S30*%
X257025000Y-81950000D03*
X245475000Y-79750000D03*
%TD*%
%TO.C,S16*%
X294525000Y-143950000D03*
X282975000Y-141750000D03*
%TD*%
D12*
%TO.C,D2*%
X355300000Y-134100000D03*
X355300000Y-137400000D03*
%TD*%
D13*
%TO.C,S24*%
X275775000Y-96700000D03*
X264225000Y-94500000D03*
%TD*%
%TO.C,S25*%
X275775000Y-78950000D03*
X264225000Y-76750000D03*
%TD*%
%TO.C,S21*%
X275775000Y-149950000D03*
X264225000Y-147750000D03*
%TD*%
M02*
