%TF.GenerationSoftware,KiCad,Pcbnew,7.0.8*%
%TF.CreationDate,2024-07-17T12:43:32-03:00*%
%TF.ProjectId,right,72696768-742e-46b6-9963-61645f706362,v1.0.0*%
%TF.SameCoordinates,Original*%
%TF.FileFunction,Soldermask,Top*%
%TF.FilePolarity,Negative*%
%FSLAX46Y46*%
G04 Gerber Fmt 4.6, Leading zero omitted, Abs format (unit mm)*
G04 Created by KiCad (PCBNEW 7.0.8) date 2024-07-17 12:43:32*
%MOMM*%
%LPD*%
G01*
G04 APERTURE LIST*
G04 Aperture macros list*
%AMRoundRect*
0 Rectangle with rounded corners*
0 $1 Rounding radius*
0 $2 $3 $4 $5 $6 $7 $8 $9 X,Y pos of 4 corners*
0 Add a 4 corners polygon primitive as box body*
4,1,4,$2,$3,$4,$5,$6,$7,$8,$9,$2,$3,0*
0 Add four circle primitives for the rounded corners*
1,1,$1+$1,$2,$3*
1,1,$1+$1,$4,$5*
1,1,$1+$1,$6,$7*
1,1,$1+$1,$8,$9*
0 Add four rect primitives between the rounded corners*
20,1,$1+$1,$2,$3,$4,$5,0*
20,1,$1+$1,$4,$5,$6,$7,0*
20,1,$1+$1,$6,$7,$8,$9,0*
20,1,$1+$1,$8,$9,$2,$3,0*%
G04 Aperture macros list end*
%ADD10C,1.100000*%
%ADD11RoundRect,0.050000X-0.889000X0.889000X-0.889000X-0.889000X0.889000X-0.889000X0.889000X0.889000X0*%
%ADD12RoundRect,0.050000X-0.600000X0.450000X-0.600000X-0.450000X0.600000X-0.450000X0.600000X0.450000X0*%
%ADD13C,2.005000*%
%ADD14C,1.801800*%
%ADD15C,3.100000*%
%ADD16C,3.529000*%
%ADD17C,4.100000*%
%ADD18C,0.850000*%
%ADD19C,1.852600*%
%ADD20RoundRect,0.050000X-0.850000X0.600000X-0.850000X-0.600000X0.850000X-0.600000X0.850000X0.600000X0*%
%ADD21O,1.800000X1.300000*%
G04 APERTURE END LIST*
D10*
%TO.C,T1*%
X244950000Y-107250000D03*
X244950000Y-104250000D03*
%TD*%
D11*
%TO.C,D9*%
X317800000Y-142690000D03*
D12*
X317800000Y-144850000D03*
X317800000Y-148150000D03*
D13*
X317800000Y-150310000D03*
%TD*%
D14*
%TO.C,S9*%
X334250000Y-96750000D03*
D15*
X328750000Y-102700000D03*
D16*
X328750000Y-96750000D03*
D15*
X323750000Y-100500000D03*
D14*
X323250000Y-96750000D03*
%TD*%
D11*
%TO.C,D4*%
X355300000Y-96440000D03*
D12*
X355300000Y-98600000D03*
X355300000Y-101900000D03*
D13*
X355300000Y-104060000D03*
%TD*%
D14*
%TO.C,S6*%
X334250000Y-150000000D03*
D15*
X328750000Y-155950000D03*
D16*
X328750000Y-150000000D03*
D15*
X323750000Y-153750000D03*
D14*
X323250000Y-150000000D03*
%TD*%
D11*
%TO.C,D20*%
X280300000Y-90440000D03*
D12*
X280300000Y-92600000D03*
X280300000Y-95900000D03*
D13*
X280300000Y-98060000D03*
%TD*%
D14*
%TO.C,S13*%
X315500000Y-107500000D03*
D15*
X310000000Y-113450000D03*
D16*
X310000000Y-107500000D03*
D15*
X305000000Y-111250000D03*
D14*
X304500000Y-107500000D03*
%TD*%
D17*
%TO.C,*%
X281500000Y-135500000D03*
%TD*%
D14*
%TO.C,S29*%
X259250000Y-93750000D03*
D15*
X253750000Y-99700000D03*
D16*
X253750000Y-93750000D03*
D15*
X248750000Y-97500000D03*
D14*
X248250000Y-93750000D03*
%TD*%
%TO.C,S17*%
X296750000Y-120250000D03*
D15*
X291250000Y-126200000D03*
D16*
X291250000Y-120250000D03*
D15*
X286250000Y-124000000D03*
D14*
X285750000Y-120250000D03*
%TD*%
D11*
%TO.C,D5*%
X355300000Y-78690000D03*
D12*
X355300000Y-80850000D03*
X355300000Y-84150000D03*
D13*
X355300000Y-86310000D03*
%TD*%
D11*
%TO.C,D13*%
X317800000Y-71690000D03*
D12*
X317800000Y-73850000D03*
X317800000Y-77150000D03*
D13*
X317800000Y-79310000D03*
%TD*%
D11*
%TO.C,D15*%
X299050000Y-119940000D03*
D12*
X299050000Y-122100000D03*
X299050000Y-125400000D03*
D13*
X299050000Y-127560000D03*
%TD*%
D11*
%TO.C,D6*%
X336550000Y-149690000D03*
D12*
X336550000Y-151850000D03*
X336550000Y-155150000D03*
D13*
X336550000Y-157310000D03*
%TD*%
D17*
%TO.C,*%
X301000000Y-116750000D03*
%TD*%
D11*
%TO.C,D16*%
X299050000Y-84440000D03*
D12*
X299050000Y-86600000D03*
X299050000Y-89900000D03*
D13*
X299050000Y-92060000D03*
%TD*%
D11*
%TO.C,D14*%
X299050000Y-137690000D03*
D12*
X299050000Y-139850000D03*
X299050000Y-143150000D03*
D13*
X299050000Y-145310000D03*
%TD*%
D14*
%TO.C,S15*%
X315500000Y-72000000D03*
D15*
X310000000Y-77950000D03*
D16*
X310000000Y-72000000D03*
D15*
X305000000Y-75750000D03*
D14*
X304500000Y-72000000D03*
%TD*%
D11*
%TO.C,D25*%
X336550000Y-126440000D03*
D12*
X336550000Y-128600000D03*
X336550000Y-131900000D03*
D13*
X336550000Y-134060000D03*
%TD*%
D11*
%TO.C,D17*%
X299050000Y-66690000D03*
D12*
X299050000Y-68850000D03*
X299050000Y-72150000D03*
D13*
X299050000Y-74310000D03*
%TD*%
D11*
%TO.C,D1*%
X355300000Y-149690000D03*
D12*
X355300000Y-151850000D03*
X355300000Y-155150000D03*
D13*
X355300000Y-157310000D03*
%TD*%
D14*
%TO.C,S3*%
X353000000Y-114500000D03*
D15*
X347500000Y-120450000D03*
D16*
X347500000Y-114500000D03*
D15*
X342500000Y-118250000D03*
D14*
X342000000Y-114500000D03*
%TD*%
D11*
%TO.C,D18*%
X280300000Y-143690000D03*
D12*
X280300000Y-145850000D03*
X280300000Y-149150000D03*
D13*
X280300000Y-151310000D03*
%TD*%
D11*
%TO.C,D3*%
X355300000Y-114190000D03*
D12*
X355300000Y-116350000D03*
X355300000Y-119650000D03*
D13*
X355300000Y-121810000D03*
%TD*%
D14*
%TO.C,S12*%
X315500000Y-125250000D03*
D15*
X310000000Y-131200000D03*
D16*
X310000000Y-125250000D03*
D15*
X305000000Y-129000000D03*
D14*
X304500000Y-125250000D03*
%TD*%
D11*
%TO.C,D23*%
X261550000Y-111190000D03*
D12*
X261550000Y-113350000D03*
X261550000Y-116650000D03*
D13*
X261550000Y-118810000D03*
%TD*%
D14*
%TO.C,S2*%
X353000000Y-132250000D03*
D15*
X347500000Y-138200000D03*
D16*
X347500000Y-132250000D03*
D15*
X342500000Y-136000000D03*
D14*
X342000000Y-132250000D03*
%TD*%
%TO.C,S11*%
X315500000Y-143000000D03*
D15*
X310000000Y-148950000D03*
D16*
X310000000Y-143000000D03*
D15*
X305000000Y-146750000D03*
D14*
X304500000Y-143000000D03*
%TD*%
%TO.C,S5*%
X353000000Y-79000000D03*
D15*
X347500000Y-84950000D03*
D16*
X347500000Y-79000000D03*
D15*
X342500000Y-82750000D03*
D14*
X342000000Y-79000000D03*
%TD*%
%TO.C,S18*%
X296750000Y-102500000D03*
D15*
X291250000Y-108450000D03*
D16*
X291250000Y-102500000D03*
D15*
X286250000Y-106250000D03*
D14*
X285750000Y-102500000D03*
%TD*%
%TO.C,S14*%
X315500000Y-89750000D03*
D15*
X310000000Y-95700000D03*
D16*
X310000000Y-89750000D03*
D15*
X305000000Y-93500000D03*
D14*
X304500000Y-89750000D03*
%TD*%
D18*
%TO.C,B1*%
X243375000Y-90950000D03*
X246125000Y-90950000D03*
%TD*%
D11*
%TO.C,D11*%
X317800000Y-107190000D03*
D12*
X317800000Y-109350000D03*
X317800000Y-112650000D03*
D13*
X317800000Y-114810000D03*
%TD*%
D11*
%TO.C,D21*%
X261550000Y-146690000D03*
D12*
X261550000Y-148850000D03*
X261550000Y-152150000D03*
D13*
X261550000Y-154310000D03*
%TD*%
D14*
%TO.C,S27*%
X259250000Y-129250000D03*
D15*
X253750000Y-135200000D03*
D16*
X253750000Y-129250000D03*
D15*
X248750000Y-133000000D03*
D14*
X248250000Y-129250000D03*
%TD*%
D17*
%TO.C,*%
X281500000Y-82250000D03*
%TD*%
D14*
%TO.C,S19*%
X296750000Y-84750000D03*
D15*
X291250000Y-90700000D03*
D16*
X291250000Y-84750000D03*
D15*
X286250000Y-88500000D03*
D14*
X285750000Y-84750000D03*
%TD*%
%TO.C,S23*%
X278000000Y-108500000D03*
D15*
X272500000Y-114450000D03*
D16*
X272500000Y-108500000D03*
D15*
X267500000Y-112250000D03*
D14*
X267000000Y-108500000D03*
%TD*%
D11*
%TO.C,D12*%
X317800000Y-89440000D03*
D12*
X317800000Y-91600000D03*
X317800000Y-94900000D03*
D13*
X317800000Y-97060000D03*
%TD*%
D11*
%TO.C,D29*%
X280300000Y-67190000D03*
D12*
X280300000Y-69350000D03*
X280300000Y-72650000D03*
D13*
X280300000Y-74810000D03*
%TD*%
D19*
%TO.C,MCU1*%
X248780000Y-85120000D03*
X251320000Y-85120000D03*
X253860000Y-85120000D03*
X256400000Y-85120000D03*
X258940000Y-85120000D03*
X261480000Y-85120000D03*
X264020000Y-85120000D03*
X266560000Y-85120000D03*
X269100000Y-85120000D03*
X271640000Y-85120000D03*
X274180000Y-85120000D03*
X276720000Y-85120000D03*
X276720000Y-69880000D03*
X274180000Y-69880000D03*
X271640000Y-69880000D03*
X269100000Y-69880000D03*
X266560000Y-69880000D03*
X264020000Y-69880000D03*
X261480000Y-69880000D03*
X258940000Y-69880000D03*
X256400000Y-69880000D03*
X253860000Y-69880000D03*
X251320000Y-69880000D03*
X248780000Y-69880000D03*
%TD*%
D14*
%TO.C,S8*%
X334250000Y-114500000D03*
D15*
X328750000Y-120450000D03*
D16*
X328750000Y-114500000D03*
D15*
X323750000Y-118250000D03*
D14*
X323250000Y-114500000D03*
%TD*%
D11*
%TO.C,D24*%
X261550000Y-93440000D03*
D12*
X261550000Y-95600000D03*
X261550000Y-98900000D03*
D13*
X261550000Y-101060000D03*
%TD*%
D17*
%TO.C,*%
X337750000Y-87500000D03*
%TD*%
D11*
%TO.C,D19*%
X280300000Y-108190000D03*
D12*
X280300000Y-110350000D03*
X280300000Y-113650000D03*
D13*
X280300000Y-115810000D03*
%TD*%
D14*
%TO.C,S26*%
X259250000Y-147000000D03*
D15*
X253750000Y-152950000D03*
D16*
X253750000Y-147000000D03*
D15*
X248750000Y-150750000D03*
D14*
X248250000Y-147000000D03*
%TD*%
D11*
%TO.C,D28*%
X280300000Y-120440000D03*
D12*
X280300000Y-122600000D03*
X280300000Y-125900000D03*
D13*
X280300000Y-128060000D03*
%TD*%
D14*
%TO.C,S22*%
X278000000Y-126250000D03*
D15*
X272500000Y-132200000D03*
D16*
X272500000Y-126250000D03*
D15*
X267500000Y-130000000D03*
D14*
X267000000Y-126250000D03*
%TD*%
%TO.C,S20*%
X296750000Y-67000000D03*
D15*
X291250000Y-72950000D03*
D16*
X291250000Y-67000000D03*
D15*
X286250000Y-70750000D03*
D14*
X285750000Y-67000000D03*
%TD*%
%TO.C,S1*%
X353000000Y-150000000D03*
D15*
X347500000Y-155950000D03*
D16*
X347500000Y-150000000D03*
D15*
X342500000Y-153750000D03*
D14*
X342000000Y-150000000D03*
%TD*%
D11*
%TO.C,D22*%
X261550000Y-128940000D03*
D12*
X261550000Y-131100000D03*
X261550000Y-134400000D03*
D13*
X261550000Y-136560000D03*
%TD*%
D20*
%TO.C,JST1*%
X295250000Y-95500000D03*
D21*
X295250000Y-97500000D03*
%TD*%
D11*
%TO.C,D27*%
X299050000Y-96690000D03*
D12*
X299050000Y-98850000D03*
X299050000Y-102150000D03*
D13*
X299050000Y-104310000D03*
%TD*%
D11*
%TO.C,D8*%
X336550000Y-96440000D03*
D12*
X336550000Y-98600000D03*
X336550000Y-101900000D03*
D13*
X336550000Y-104060000D03*
%TD*%
D14*
%TO.C,S7*%
X334250000Y-132250000D03*
D15*
X328750000Y-138200000D03*
D16*
X328750000Y-132250000D03*
D15*
X323750000Y-136000000D03*
D14*
X323250000Y-132250000D03*
%TD*%
D17*
%TO.C,*%
X338500000Y-140750000D03*
%TD*%
D11*
%TO.C,D30*%
X261550000Y-73190000D03*
D12*
X261550000Y-75350000D03*
X261550000Y-78650000D03*
D13*
X261550000Y-80810000D03*
%TD*%
D11*
%TO.C,D7*%
X336550000Y-114190000D03*
D12*
X336550000Y-116350000D03*
X336550000Y-119650000D03*
D13*
X336550000Y-121810000D03*
%TD*%
D14*
%TO.C,S28*%
X259250000Y-111500000D03*
D15*
X253750000Y-117450000D03*
D16*
X253750000Y-111500000D03*
D15*
X248750000Y-115250000D03*
D14*
X248250000Y-111500000D03*
%TD*%
D11*
%TO.C,D10*%
X317800000Y-124940000D03*
D12*
X317800000Y-127100000D03*
X317800000Y-130400000D03*
D13*
X317800000Y-132560000D03*
%TD*%
D14*
%TO.C,S4*%
X353000000Y-96750000D03*
D15*
X347500000Y-102700000D03*
D16*
X347500000Y-96750000D03*
D15*
X342500000Y-100500000D03*
D14*
X342000000Y-96750000D03*
%TD*%
%TO.C,S10*%
X334250000Y-79000000D03*
D15*
X328750000Y-84950000D03*
D16*
X328750000Y-79000000D03*
D15*
X323750000Y-82750000D03*
D14*
X323250000Y-79000000D03*
%TD*%
D11*
%TO.C,D26*%
X336550000Y-73190000D03*
D12*
X336550000Y-75350000D03*
X336550000Y-78650000D03*
D13*
X336550000Y-80810000D03*
%TD*%
D14*
%TO.C,S30*%
X259250000Y-76000000D03*
D15*
X253750000Y-81950000D03*
D16*
X253750000Y-76000000D03*
D15*
X248750000Y-79750000D03*
D14*
X248250000Y-76000000D03*
%TD*%
%TO.C,S16*%
X296750000Y-138000000D03*
D15*
X291250000Y-143950000D03*
D16*
X291250000Y-138000000D03*
D15*
X286250000Y-141750000D03*
D14*
X285750000Y-138000000D03*
%TD*%
D11*
%TO.C,D2*%
X355300000Y-131940000D03*
D12*
X355300000Y-134100000D03*
X355300000Y-137400000D03*
D13*
X355300000Y-139560000D03*
%TD*%
D14*
%TO.C,S24*%
X278000000Y-90750000D03*
D15*
X272500000Y-96700000D03*
D16*
X272500000Y-90750000D03*
D15*
X267500000Y-94500000D03*
D14*
X267000000Y-90750000D03*
%TD*%
%TO.C,S25*%
X278000000Y-73000000D03*
D15*
X272500000Y-78950000D03*
D16*
X272500000Y-73000000D03*
D15*
X267500000Y-76750000D03*
D14*
X267000000Y-73000000D03*
%TD*%
%TO.C,S21*%
X278000000Y-144000000D03*
D15*
X272500000Y-149950000D03*
D16*
X272500000Y-144000000D03*
D15*
X267500000Y-147750000D03*
D14*
X267000000Y-144000000D03*
%TD*%
M02*
