%TF.GenerationSoftware,KiCad,Pcbnew,7.0.8*%
%TF.CreationDate,2024-07-17T12:43:32-03:00*%
%TF.ProjectId,right,72696768-742e-46b6-9963-61645f706362,v1.0.0*%
%TF.SameCoordinates,Original*%
%TF.FileFunction,Copper,L2,Bot*%
%TF.FilePolarity,Positive*%
%FSLAX46Y46*%
G04 Gerber Fmt 4.6, Leading zero omitted, Abs format (unit mm)*
G04 Created by KiCad (PCBNEW 7.0.8) date 2024-07-17 12:43:32*
%MOMM*%
%LPD*%
G01*
G04 APERTURE LIST*
%TA.AperFunction,SMDPad,CuDef*%
%ADD10R,0.900000X0.900000*%
%TD*%
%TA.AperFunction,WasherPad*%
%ADD11C,1.000000*%
%TD*%
%TA.AperFunction,SMDPad,CuDef*%
%ADD12R,1.250000X0.900000*%
%TD*%
%TA.AperFunction,ComponentPad*%
%ADD13R,1.778000X1.778000*%
%TD*%
%TA.AperFunction,SMDPad,CuDef*%
%ADD14R,1.200000X0.900000*%
%TD*%
%TA.AperFunction,ComponentPad*%
%ADD15C,1.905000*%
%TD*%
%TA.AperFunction,SMDPad,CuDef*%
%ADD16R,2.600000X2.600000*%
%TD*%
%TA.AperFunction,SMDPad,CuDef*%
%ADD17R,1.000000X1.550000*%
%TD*%
%TA.AperFunction,ComponentPad*%
%ADD18C,1.752600*%
%TD*%
%TA.AperFunction,ComponentPad*%
%ADD19R,1.700000X1.200000*%
%TD*%
%TA.AperFunction,ComponentPad*%
%ADD20O,1.700000X1.200000*%
%TD*%
%TA.AperFunction,ViaPad*%
%ADD21C,0.800000*%
%TD*%
%TA.AperFunction,Conductor*%
%ADD22C,0.250000*%
%TD*%
G04 APERTURE END LIST*
D10*
%TO.P,T1,*%
%TO.N,*%
X243850000Y-109450000D03*
X246050000Y-109450000D03*
D11*
X244950000Y-107250000D03*
X244950000Y-104250000D03*
D10*
X243850000Y-102050000D03*
X246050000Y-102050000D03*
D12*
%TO.P,T1,1*%
%TO.N,pos*%
X247025000Y-108000000D03*
%TO.P,T1,2*%
%TO.N,RAW*%
X247025000Y-105000000D03*
%TO.P,T1,3*%
%TO.N,N/C*%
X247025000Y-103500000D03*
%TD*%
D13*
%TO.P,D9,1*%
%TO.N,P113*%
X317800000Y-142690000D03*
D14*
X317800000Y-144850000D03*
%TO.P,D9,2*%
%TO.N,mirror_third_mod*%
X317800000Y-148150000D03*
D15*
X317800000Y-150310000D03*
%TD*%
D16*
%TO.P,S9,1*%
%TO.N,P022*%
X332025000Y-102700000D03*
%TO.P,S9,2*%
%TO.N,mirror_second_top*%
X320475000Y-100500000D03*
%TD*%
D13*
%TO.P,D4,1*%
%TO.N,P029*%
X355300000Y-96440000D03*
D14*
X355300000Y-98600000D03*
%TO.P,D4,2*%
%TO.N,mirror_first_top*%
X355300000Y-101900000D03*
D15*
X355300000Y-104060000D03*
%TD*%
D16*
%TO.P,S6,1*%
%TO.N,P022*%
X332025000Y-155950000D03*
%TO.P,S6,2*%
%TO.N,mirror_second_mod*%
X320475000Y-153750000D03*
%TD*%
D13*
%TO.P,D20,1*%
%TO.N,P029*%
X280300000Y-90440000D03*
D14*
X280300000Y-92600000D03*
%TO.P,D20,2*%
%TO.N,mirror_fifth_top*%
X280300000Y-95900000D03*
D15*
X280300000Y-98060000D03*
%TD*%
D16*
%TO.P,S13,1*%
%TO.N,P024*%
X313275000Y-113450000D03*
%TO.P,S13,2*%
%TO.N,mirror_third_home*%
X301725000Y-111250000D03*
%TD*%
%TO.P,S29,1*%
%TO.N,P017*%
X257025000Y-99700000D03*
%TO.P,S29,2*%
%TO.N,mirror_sixth_top*%
X245475000Y-97500000D03*
%TD*%
%TO.P,S17,1*%
%TO.N,P100*%
X294525000Y-126200000D03*
%TO.P,S17,2*%
%TO.N,mirror_fourth_bottom*%
X282975000Y-124000000D03*
%TD*%
D13*
%TO.P,D5,1*%
%TO.N,P031*%
X355300000Y-78690000D03*
D14*
X355300000Y-80850000D03*
%TO.P,D5,2*%
%TO.N,mirror_first_num*%
X355300000Y-84150000D03*
D15*
X355300000Y-86310000D03*
%TD*%
D13*
%TO.P,D13,1*%
%TO.N,P031*%
X317800000Y-71690000D03*
D14*
X317800000Y-73850000D03*
%TO.P,D13,2*%
%TO.N,mirror_third_num*%
X317800000Y-77150000D03*
D15*
X317800000Y-79310000D03*
%TD*%
D13*
%TO.P,D15,1*%
%TO.N,P115*%
X299050000Y-119940000D03*
D14*
X299050000Y-122100000D03*
%TO.P,D15,2*%
%TO.N,mirror_fourth_bottom*%
X299050000Y-125400000D03*
D15*
X299050000Y-127560000D03*
%TD*%
D13*
%TO.P,D6,1*%
%TO.N,P113*%
X336550000Y-149690000D03*
D14*
X336550000Y-151850000D03*
%TO.P,D6,2*%
%TO.N,mirror_second_mod*%
X336550000Y-155150000D03*
D15*
X336550000Y-157310000D03*
%TD*%
D13*
%TO.P,D16,1*%
%TO.N,P029*%
X299050000Y-84440000D03*
D14*
X299050000Y-86600000D03*
%TO.P,D16,2*%
%TO.N,mirror_fourth_top*%
X299050000Y-89900000D03*
D15*
X299050000Y-92060000D03*
%TD*%
D13*
%TO.P,D14,1*%
%TO.N,P113*%
X299050000Y-137690000D03*
D14*
X299050000Y-139850000D03*
%TO.P,D14,2*%
%TO.N,mirror_fourth_mod*%
X299050000Y-143150000D03*
D15*
X299050000Y-145310000D03*
%TD*%
D16*
%TO.P,S15,1*%
%TO.N,P024*%
X313275000Y-77950000D03*
%TO.P,S15,2*%
%TO.N,mirror_third_num*%
X301725000Y-75750000D03*
%TD*%
D13*
%TO.P,D25,1*%
%TO.N,P115*%
X336550000Y-126440000D03*
D14*
X336550000Y-128600000D03*
%TO.P,D25,2*%
%TO.N,mirror_second_bottom*%
X336550000Y-131900000D03*
D15*
X336550000Y-134060000D03*
%TD*%
D13*
%TO.P,D17,1*%
%TO.N,P031*%
X299050000Y-66690000D03*
D14*
X299050000Y-68850000D03*
%TO.P,D17,2*%
%TO.N,mirror_fourth_num*%
X299050000Y-72150000D03*
D15*
X299050000Y-74310000D03*
%TD*%
D13*
%TO.P,D1,1*%
%TO.N,P113*%
X355300000Y-149690000D03*
D14*
X355300000Y-151850000D03*
%TO.P,D1,2*%
%TO.N,mirror_first_mod*%
X355300000Y-155150000D03*
D15*
X355300000Y-157310000D03*
%TD*%
D16*
%TO.P,S3,1*%
%TO.N,P020*%
X350775000Y-120450000D03*
%TO.P,S3,2*%
%TO.N,mirror_first_home*%
X339225000Y-118250000D03*
%TD*%
D13*
%TO.P,D18,1*%
%TO.N,P113*%
X280300000Y-143690000D03*
D14*
X280300000Y-145850000D03*
%TO.P,D18,2*%
%TO.N,mirror_fifth_mod*%
X280300000Y-149150000D03*
D15*
X280300000Y-151310000D03*
%TD*%
D13*
%TO.P,D3,1*%
%TO.N,P002*%
X355300000Y-114190000D03*
D14*
X355300000Y-116350000D03*
%TO.P,D3,2*%
%TO.N,mirror_first_home*%
X355300000Y-119650000D03*
D15*
X355300000Y-121810000D03*
%TD*%
D16*
%TO.P,S12,1*%
%TO.N,P024*%
X313275000Y-131200000D03*
%TO.P,S12,2*%
%TO.N,mirror_third_bottom*%
X301725000Y-129000000D03*
%TD*%
D13*
%TO.P,D23,1*%
%TO.N,P002*%
X261550000Y-111190000D03*
D14*
X261550000Y-113350000D03*
%TO.P,D23,2*%
%TO.N,mirror_sixth_home*%
X261550000Y-116650000D03*
D15*
X261550000Y-118810000D03*
%TD*%
D16*
%TO.P,S2,1*%
%TO.N,P020*%
X350775000Y-138200000D03*
%TO.P,S2,2*%
%TO.N,mirror_first_bottom*%
X339225000Y-136000000D03*
%TD*%
%TO.P,S11,1*%
%TO.N,P024*%
X313275000Y-148950000D03*
%TO.P,S11,2*%
%TO.N,mirror_third_mod*%
X301725000Y-146750000D03*
%TD*%
%TO.P,S5,1*%
%TO.N,P020*%
X350775000Y-84950000D03*
%TO.P,S5,2*%
%TO.N,mirror_first_num*%
X339225000Y-82750000D03*
%TD*%
%TO.P,S18,1*%
%TO.N,P100*%
X294525000Y-108450000D03*
%TO.P,S18,2*%
%TO.N,mirror_fourth_home*%
X282975000Y-106250000D03*
%TD*%
%TO.P,S14,1*%
%TO.N,P024*%
X313275000Y-95700000D03*
%TO.P,S14,2*%
%TO.N,mirror_third_top*%
X301725000Y-93500000D03*
%TD*%
D17*
%TO.P,B1,1*%
%TO.N,GND*%
X243900000Y-93575000D03*
X243900000Y-88325000D03*
%TO.P,B1,2*%
%TO.N,RST*%
X245600000Y-93575000D03*
X245600000Y-88325000D03*
%TD*%
D13*
%TO.P,D11,1*%
%TO.N,P002*%
X317800000Y-107190000D03*
D14*
X317800000Y-109350000D03*
%TO.P,D11,2*%
%TO.N,mirror_third_home*%
X317800000Y-112650000D03*
D15*
X317800000Y-114810000D03*
%TD*%
D13*
%TO.P,D21,1*%
%TO.N,P113*%
X261550000Y-146690000D03*
D14*
X261550000Y-148850000D03*
%TO.P,D21,2*%
%TO.N,mirror_sixth_mod*%
X261550000Y-152150000D03*
D15*
X261550000Y-154310000D03*
%TD*%
D16*
%TO.P,S27,1*%
%TO.N,P017*%
X257025000Y-135200000D03*
%TO.P,S27,2*%
%TO.N,mirror_sixth_bottom*%
X245475000Y-133000000D03*
%TD*%
%TO.P,S19,1*%
%TO.N,P100*%
X294525000Y-90700000D03*
%TO.P,S19,2*%
%TO.N,mirror_fourth_top*%
X282975000Y-88500000D03*
%TD*%
%TO.P,S23,1*%
%TO.N,P011*%
X275775000Y-114450000D03*
%TO.P,S23,2*%
%TO.N,mirror_fifth_home*%
X264225000Y-112250000D03*
%TD*%
D13*
%TO.P,D12,1*%
%TO.N,P029*%
X317800000Y-89440000D03*
D14*
X317800000Y-91600000D03*
%TO.P,D12,2*%
%TO.N,mirror_third_top*%
X317800000Y-94900000D03*
D15*
X317800000Y-97060000D03*
%TD*%
D13*
%TO.P,D29,1*%
%TO.N,P031*%
X280300000Y-67190000D03*
D14*
X280300000Y-69350000D03*
%TO.P,D29,2*%
%TO.N,mirror_fifth_num*%
X280300000Y-72650000D03*
D15*
X280300000Y-74810000D03*
%TD*%
D18*
%TO.P,MCU1,1*%
%TO.N,P006*%
X248780000Y-85120000D03*
%TO.P,MCU1,2*%
%TO.N,P008*%
X251320000Y-85120000D03*
%TO.P,MCU1,3*%
%TO.N,GND*%
X253860000Y-85120000D03*
%TO.P,MCU1,4*%
X256400000Y-85120000D03*
%TO.P,MCU1,5*%
%TO.N,P017*%
X258940000Y-85120000D03*
%TO.P,MCU1,6*%
%TO.N,P020*%
X261480000Y-85120000D03*
%TO.P,MCU1,7*%
%TO.N,P022*%
X264020000Y-85120000D03*
%TO.P,MCU1,8*%
%TO.N,P024*%
X266560000Y-85120000D03*
%TO.P,MCU1,9*%
%TO.N,P100*%
X269100000Y-85120000D03*
%TO.P,MCU1,10*%
%TO.N,P011*%
X271640000Y-85120000D03*
%TO.P,MCU1,11*%
%TO.N,P104*%
X274180000Y-85120000D03*
%TO.P,MCU1,12*%
%TO.N,P106*%
X276720000Y-85120000D03*
%TO.P,MCU1,13*%
%TO.N,P009*%
X276720000Y-69880000D03*
%TO.P,MCU1,14*%
%TO.N,P010*%
X274180000Y-69880000D03*
%TO.P,MCU1,15*%
%TO.N,P111*%
X271640000Y-69880000D03*
%TO.P,MCU1,16*%
%TO.N,P113*%
X269100000Y-69880000D03*
%TO.P,MCU1,17*%
%TO.N,P115*%
X266560000Y-69880000D03*
%TO.P,MCU1,18*%
%TO.N,P002*%
X264020000Y-69880000D03*
%TO.P,MCU1,19*%
%TO.N,P029*%
X261480000Y-69880000D03*
%TO.P,MCU1,20*%
%TO.N,P031*%
X258940000Y-69880000D03*
%TO.P,MCU1,21*%
%TO.N,VCC*%
X256400000Y-69880000D03*
%TO.P,MCU1,22*%
%TO.N,RST*%
X253860000Y-69880000D03*
%TO.P,MCU1,23*%
%TO.N,GND*%
X251320000Y-69880000D03*
%TO.P,MCU1,24*%
%TO.N,RAW*%
X248780000Y-69880000D03*
%TD*%
D16*
%TO.P,S8,1*%
%TO.N,P022*%
X332025000Y-120450000D03*
%TO.P,S8,2*%
%TO.N,mirror_second_home*%
X320475000Y-118250000D03*
%TD*%
D13*
%TO.P,D24,1*%
%TO.N,P029*%
X261550000Y-93440000D03*
D14*
X261550000Y-95600000D03*
%TO.P,D24,2*%
%TO.N,mirror_sixth_top*%
X261550000Y-98900000D03*
D15*
X261550000Y-101060000D03*
%TD*%
D13*
%TO.P,D19,1*%
%TO.N,P002*%
X280300000Y-108190000D03*
D14*
X280300000Y-110350000D03*
%TO.P,D19,2*%
%TO.N,mirror_fifth_home*%
X280300000Y-113650000D03*
D15*
X280300000Y-115810000D03*
%TD*%
D16*
%TO.P,S26,1*%
%TO.N,P017*%
X257025000Y-152950000D03*
%TO.P,S26,2*%
%TO.N,mirror_sixth_mod*%
X245475000Y-150750000D03*
%TD*%
D13*
%TO.P,D28,1*%
%TO.N,P115*%
X280300000Y-120440000D03*
D14*
X280300000Y-122600000D03*
%TO.P,D28,2*%
%TO.N,mirror_fifth_bottom*%
X280300000Y-125900000D03*
D15*
X280300000Y-128060000D03*
%TD*%
D16*
%TO.P,S22,1*%
%TO.N,P011*%
X275775000Y-132200000D03*
%TO.P,S22,2*%
%TO.N,mirror_fifth_bottom*%
X264225000Y-130000000D03*
%TD*%
%TO.P,S20,1*%
%TO.N,P100*%
X294525000Y-72950000D03*
%TO.P,S20,2*%
%TO.N,mirror_fourth_num*%
X282975000Y-70750000D03*
%TD*%
%TO.P,S1,1*%
%TO.N,P020*%
X350775000Y-155950000D03*
%TO.P,S1,2*%
%TO.N,mirror_first_mod*%
X339225000Y-153750000D03*
%TD*%
D13*
%TO.P,D22,1*%
%TO.N,P115*%
X261550000Y-128940000D03*
D14*
X261550000Y-131100000D03*
%TO.P,D22,2*%
%TO.N,mirror_sixth_bottom*%
X261550000Y-134400000D03*
D15*
X261550000Y-136560000D03*
%TD*%
D19*
%TO.P,JST1,1*%
%TO.N,pos*%
X295250000Y-95500000D03*
D20*
%TO.P,JST1,2*%
%TO.N,GND*%
X295250000Y-97500000D03*
%TD*%
D13*
%TO.P,D27,1*%
%TO.N,P002*%
X299050000Y-96690000D03*
D14*
X299050000Y-98850000D03*
%TO.P,D27,2*%
%TO.N,mirror_fourth_home*%
X299050000Y-102150000D03*
D15*
X299050000Y-104310000D03*
%TD*%
D13*
%TO.P,D8,1*%
%TO.N,P029*%
X336550000Y-96440000D03*
D14*
X336550000Y-98600000D03*
%TO.P,D8,2*%
%TO.N,mirror_second_top*%
X336550000Y-101900000D03*
D15*
X336550000Y-104060000D03*
%TD*%
D16*
%TO.P,S7,1*%
%TO.N,P022*%
X332025000Y-138200000D03*
%TO.P,S7,2*%
%TO.N,mirror_second_bottom*%
X320475000Y-136000000D03*
%TD*%
D13*
%TO.P,D30,1*%
%TO.N,P031*%
X261550000Y-73190000D03*
D14*
X261550000Y-75350000D03*
%TO.P,D30,2*%
%TO.N,mirror_sixth_num*%
X261550000Y-78650000D03*
D15*
X261550000Y-80810000D03*
%TD*%
D13*
%TO.P,D7,1*%
%TO.N,P002*%
X336550000Y-114190000D03*
D14*
X336550000Y-116350000D03*
%TO.P,D7,2*%
%TO.N,mirror_second_home*%
X336550000Y-119650000D03*
D15*
X336550000Y-121810000D03*
%TD*%
D16*
%TO.P,S28,1*%
%TO.N,P017*%
X257025000Y-117450000D03*
%TO.P,S28,2*%
%TO.N,mirror_sixth_home*%
X245475000Y-115250000D03*
%TD*%
D13*
%TO.P,D10,1*%
%TO.N,P115*%
X317800000Y-124940000D03*
D14*
X317800000Y-127100000D03*
%TO.P,D10,2*%
%TO.N,mirror_third_bottom*%
X317800000Y-130400000D03*
D15*
X317800000Y-132560000D03*
%TD*%
D16*
%TO.P,S4,1*%
%TO.N,P020*%
X350775000Y-102700000D03*
%TO.P,S4,2*%
%TO.N,mirror_first_top*%
X339225000Y-100500000D03*
%TD*%
%TO.P,S10,1*%
%TO.N,P022*%
X332025000Y-84950000D03*
%TO.P,S10,2*%
%TO.N,mirror_second_num*%
X320475000Y-82750000D03*
%TD*%
D13*
%TO.P,D26,1*%
%TO.N,P031*%
X336550000Y-73190000D03*
D14*
X336550000Y-75350000D03*
%TO.P,D26,2*%
%TO.N,mirror_second_num*%
X336550000Y-78650000D03*
D15*
X336550000Y-80810000D03*
%TD*%
D16*
%TO.P,S30,1*%
%TO.N,P017*%
X257025000Y-81950000D03*
%TO.P,S30,2*%
%TO.N,mirror_sixth_num*%
X245475000Y-79750000D03*
%TD*%
%TO.P,S16,1*%
%TO.N,P100*%
X294525000Y-143950000D03*
%TO.P,S16,2*%
%TO.N,mirror_fourth_mod*%
X282975000Y-141750000D03*
%TD*%
D13*
%TO.P,D2,1*%
%TO.N,P115*%
X355300000Y-131940000D03*
D14*
X355300000Y-134100000D03*
%TO.P,D2,2*%
%TO.N,mirror_first_bottom*%
X355300000Y-137400000D03*
D15*
X355300000Y-139560000D03*
%TD*%
D16*
%TO.P,S24,1*%
%TO.N,P011*%
X275775000Y-96700000D03*
%TO.P,S24,2*%
%TO.N,mirror_fifth_top*%
X264225000Y-94500000D03*
%TD*%
%TO.P,S25,1*%
%TO.N,P011*%
X275775000Y-78950000D03*
%TO.P,S25,2*%
%TO.N,mirror_fifth_num*%
X264225000Y-76750000D03*
%TD*%
%TO.P,S21,1*%
%TO.N,P011*%
X275775000Y-149950000D03*
%TO.P,S21,2*%
%TO.N,mirror_fifth_mod*%
X264225000Y-147750000D03*
%TD*%
D21*
%TO.N,P020*%
X257800000Y-77800000D03*
%TO.N,P022*%
X332000000Y-135400000D03*
X332000000Y-132600000D03*
%TO.N,P024*%
X293800000Y-80800000D03*
X278800000Y-80600000D03*
X275600000Y-83200000D03*
%TO.N,P100*%
X288000000Y-85400000D03*
X297000000Y-123800000D03*
X294800000Y-128400000D03*
X288200000Y-91600000D03*
%TO.N,P113*%
X271200000Y-66200000D03*
%TO.N,P115*%
X268800000Y-66400000D03*
%TO.N,P002*%
X279800000Y-78200000D03*
X287200000Y-83200000D03*
%TO.N,RAW*%
X251400000Y-97200000D03*
%TO.N,GND*%
X269800000Y-101200000D03*
%TO.N,RST*%
X247600000Y-88400000D03*
%TO.N,pos*%
X250800000Y-105600000D03*
%TD*%
D22*
%TO.N,P020*%
X356577500Y-104589158D02*
X355766658Y-105400000D01*
X355641316Y-118875000D02*
X356034620Y-118875000D01*
X350775000Y-84950000D02*
X356577500Y-90752500D01*
X356034620Y-118875000D02*
X356577500Y-119417880D01*
X320600000Y-72000000D02*
X320600000Y-71615984D01*
X320600000Y-71615984D02*
X313444516Y-64460500D01*
X350775000Y-120450000D02*
X356577500Y-126252500D01*
X356600000Y-86816658D02*
X356600000Y-77752380D01*
X356577500Y-90752500D02*
X356577500Y-104589158D01*
X353412500Y-158587500D02*
X350775000Y-155950000D01*
X356577500Y-119417880D02*
X356577500Y-122422500D01*
X261224000Y-71976000D02*
X260424000Y-71976000D01*
X356577500Y-126252500D02*
X356577500Y-140089158D01*
X353475000Y-105400000D02*
X350775000Y-102700000D01*
X355829158Y-87587500D02*
X356600000Y-86816658D01*
X356577500Y-140089158D02*
X355666658Y-141000000D01*
X350647620Y-71800000D02*
X320800000Y-71800000D01*
X353575000Y-141000000D02*
X350775000Y-138200000D01*
X356600000Y-77752380D02*
X350647620Y-71800000D01*
X262800000Y-69000000D02*
X262800000Y-70400000D01*
X356577500Y-144002500D02*
X356577500Y-157839158D01*
X260424000Y-71976000D02*
X257800000Y-74600000D01*
X350775000Y-138200000D02*
X356577500Y-144002500D01*
X353412500Y-87587500D02*
X355829158Y-87587500D01*
X350775000Y-114008684D02*
X355641316Y-118875000D01*
X313444516Y-64460500D02*
X267339500Y-64460500D01*
X320800000Y-71800000D02*
X320600000Y-72000000D01*
X267339500Y-64460500D02*
X262800000Y-69000000D01*
X353412500Y-123087500D02*
X350775000Y-120450000D01*
X356577500Y-157839158D02*
X355829158Y-158587500D01*
X355666658Y-141000000D02*
X353575000Y-141000000D01*
X262800000Y-70400000D02*
X261224000Y-71976000D01*
X356577500Y-122422500D02*
X355912500Y-123087500D01*
X355829158Y-158587500D02*
X353412500Y-158587500D01*
X350775000Y-84950000D02*
X353412500Y-87587500D01*
X257800000Y-74600000D02*
X257800000Y-77800000D01*
X350775000Y-102700000D02*
X350775000Y-114008684D01*
X355912500Y-123087500D02*
X353412500Y-123087500D01*
X355766658Y-105400000D02*
X353475000Y-105400000D01*
%TO.N,mirror_first_mod*%
X339225000Y-153750000D02*
X341100000Y-151875000D01*
X354350000Y-154200000D02*
X355300000Y-155150000D01*
X341100000Y-151875000D02*
X346509620Y-151875000D01*
X346509620Y-151875000D02*
X348834620Y-154200000D01*
X348834620Y-154200000D02*
X354350000Y-154200000D01*
X355300000Y-157310000D02*
X355300000Y-155150000D01*
%TO.N,mirror_first_bottom*%
X355300000Y-139560000D02*
X355300000Y-137400000D01*
X348870001Y-136575000D02*
X354475000Y-136575000D01*
X354475000Y-136575000D02*
X355300000Y-137400000D01*
X339225000Y-136000000D02*
X341749100Y-133475900D01*
X341749100Y-133475900D02*
X345770901Y-133475900D01*
X345770901Y-133475900D02*
X348870001Y-136575000D01*
%TO.N,mirror_first_home*%
X354475000Y-118825000D02*
X355300000Y-119650000D01*
X355300000Y-121810000D02*
X355300000Y-119650000D01*
X346125000Y-116375000D02*
X348575000Y-118825000D01*
X339225000Y-118250000D02*
X341100000Y-116375000D01*
X348575000Y-118825000D02*
X354475000Y-118825000D01*
X341100000Y-116375000D02*
X346125000Y-116375000D01*
%TO.N,mirror_first_top*%
X339225000Y-100500000D02*
X341100000Y-98625000D01*
X346425000Y-98625000D02*
X348875000Y-101075000D01*
X348875000Y-101075000D02*
X354475000Y-101075000D01*
X355300000Y-104060000D02*
X355300000Y-101900000D01*
X354475000Y-101075000D02*
X355300000Y-101900000D01*
X341100000Y-98625000D02*
X346425000Y-98625000D01*
%TO.N,mirror_first_num*%
X348925000Y-83325000D02*
X354475000Y-83325000D01*
X341100000Y-80875000D02*
X346475000Y-80875000D01*
X346475000Y-80875000D02*
X348925000Y-83325000D01*
X339225000Y-82750000D02*
X341100000Y-80875000D01*
X354475000Y-83325000D02*
X355300000Y-84150000D01*
X355300000Y-86310000D02*
X355300000Y-84150000D01*
%TO.N,P022*%
X334675000Y-158600000D02*
X332025000Y-155950000D01*
X337827500Y-121227500D02*
X337827500Y-122339158D01*
X332025000Y-120450000D02*
X332025000Y-132575000D01*
X330150000Y-86825000D02*
X321425000Y-86825000D01*
X337600000Y-101400000D02*
X337600000Y-103200000D01*
X337375000Y-154375000D02*
X337600000Y-154600000D01*
X332025000Y-149508684D02*
X336891316Y-154375000D01*
X337600000Y-119190380D02*
X337600000Y-121000000D01*
X334662500Y-123087500D02*
X332025000Y-120450000D01*
X337325000Y-101125000D02*
X337600000Y-101400000D01*
X337600000Y-154600000D02*
X337600000Y-156553342D01*
X268889500Y-64910500D02*
X265221300Y-68578700D01*
X265221300Y-72694080D02*
X262600000Y-75315380D01*
X319077500Y-70729880D02*
X313258120Y-64910500D01*
X332025000Y-138200000D02*
X332025000Y-149508684D01*
X336891316Y-101125000D02*
X337325000Y-101125000D01*
X332025000Y-132575000D02*
X332000000Y-132600000D01*
X321425000Y-86825000D02*
X318758329Y-84158329D01*
X264020000Y-81473342D02*
X264020000Y-85120000D01*
X332025000Y-84950000D02*
X332025000Y-96258684D01*
X318758329Y-80158329D02*
X319077500Y-79839158D01*
X334725000Y-105400000D02*
X332025000Y-102700000D01*
X318758329Y-84158329D02*
X318758329Y-80158329D01*
X262600000Y-75315380D02*
X262600000Y-80053342D01*
X337600000Y-156553342D02*
X337827500Y-156780842D01*
X332025000Y-135425000D02*
X332025000Y-138200000D01*
X332025000Y-114008684D02*
X336891316Y-118875000D01*
X337827500Y-104589158D02*
X337016658Y-105400000D01*
X336891316Y-154375000D02*
X337375000Y-154375000D01*
X332000000Y-135400000D02*
X332025000Y-135425000D01*
X262600000Y-80053342D02*
X264020000Y-81473342D01*
X332025000Y-96258684D02*
X336891316Y-101125000D01*
X332025000Y-84950000D02*
X330150000Y-86825000D01*
X319077500Y-79839158D02*
X319077500Y-70729880D01*
X337827500Y-122339158D02*
X337079158Y-123087500D01*
X265221300Y-68578700D02*
X265221300Y-72694080D01*
X313258120Y-64910500D02*
X268889500Y-64910500D01*
X337600000Y-103200000D02*
X337827500Y-103427500D01*
X337827500Y-157839158D02*
X337066658Y-158600000D01*
X337600000Y-121000000D02*
X337827500Y-121227500D01*
X337284620Y-118875000D02*
X337600000Y-119190380D01*
X337079158Y-123087500D02*
X334662500Y-123087500D01*
X337827500Y-103427500D02*
X337827500Y-104589158D01*
X337066658Y-158600000D02*
X334675000Y-158600000D01*
X332025000Y-102700000D02*
X332025000Y-114008684D01*
X337827500Y-156780842D02*
X337827500Y-157839158D01*
X337016658Y-105400000D02*
X334725000Y-105400000D01*
X336891316Y-118875000D02*
X337284620Y-118875000D01*
%TO.N,mirror_second_mod*%
X335400000Y-154000000D02*
X336550000Y-155150000D01*
X322350000Y-151875000D02*
X326875000Y-151875000D01*
X326875000Y-151875000D02*
X329000000Y-154000000D01*
X320475000Y-153750000D02*
X322350000Y-151875000D01*
X336550000Y-157310000D02*
X336550000Y-155150000D01*
X329000000Y-154000000D02*
X335400000Y-154000000D01*
%TO.N,mirror_second_bottom*%
X334110500Y-134339500D02*
X336550000Y-131900000D01*
X322999100Y-133475900D02*
X327020901Y-133475900D01*
X320475000Y-136000000D02*
X322999100Y-133475900D01*
X327884501Y-134339500D02*
X334110500Y-134339500D01*
X336550000Y-134060000D02*
X336550000Y-131900000D01*
X327020901Y-133475900D02*
X327884501Y-134339500D01*
%TO.N,mirror_second_home*%
X320475000Y-118250000D02*
X322350000Y-116375000D01*
X335700000Y-118800000D02*
X336550000Y-119650000D01*
X327670001Y-116375000D02*
X330095001Y-118800000D01*
X336550000Y-121810000D02*
X336550000Y-119650000D01*
X322350000Y-116375000D02*
X327670001Y-116375000D01*
X330095001Y-118800000D02*
X335700000Y-118800000D01*
%TO.N,mirror_second_top*%
X329701650Y-101000000D02*
X335650000Y-101000000D01*
X336550000Y-104060000D02*
X336550000Y-101900000D01*
X327326650Y-98625000D02*
X329701650Y-101000000D01*
X322350000Y-98625000D02*
X327326650Y-98625000D01*
X335650000Y-101000000D02*
X336550000Y-101900000D01*
X320475000Y-100500000D02*
X322350000Y-98625000D01*
%TO.N,mirror_second_num*%
X320475000Y-82750000D02*
X322350000Y-80875000D01*
X327475000Y-80875000D02*
X327689500Y-81089500D01*
X336550000Y-80810000D02*
X336550000Y-78650000D01*
X327689500Y-81089500D02*
X334110500Y-81089500D01*
X334110500Y-81089500D02*
X336550000Y-78650000D01*
X322350000Y-80875000D02*
X327475000Y-80875000D01*
%TO.N,P024*%
X318675000Y-111875000D02*
X319200000Y-112400000D01*
X319200000Y-112400000D02*
X319200000Y-115216658D01*
X318141316Y-147375000D02*
X318575000Y-147375000D01*
X318141316Y-111875000D02*
X318675000Y-111875000D01*
X319200000Y-115216658D02*
X318216658Y-116200000D01*
X313275000Y-77950000D02*
X313275000Y-82677380D01*
X319077500Y-130077500D02*
X319077500Y-133122500D01*
X313275000Y-77950000D02*
X310425000Y-80800000D01*
X313275000Y-131200000D02*
X313275000Y-142508684D01*
X278800000Y-80600000D02*
X276200000Y-83200000D01*
X315975000Y-98400000D02*
X313275000Y-95700000D01*
X318362500Y-133837500D02*
X315912500Y-133837500D01*
X319077500Y-147877500D02*
X319077500Y-150922500D01*
X318625000Y-129625000D02*
X319077500Y-130077500D01*
X316025000Y-116200000D02*
X313275000Y-113450000D01*
X313275000Y-107008684D02*
X318141316Y-111875000D01*
X318575000Y-147375000D02*
X319077500Y-147877500D01*
X315925000Y-151600000D02*
X313275000Y-148950000D01*
X319077500Y-133122500D02*
X318362500Y-133837500D01*
X313275000Y-95700000D02*
X313275000Y-107008684D01*
X319077500Y-97589158D02*
X318266658Y-98400000D01*
X310425000Y-80800000D02*
X293800000Y-80800000D01*
X318216658Y-116200000D02*
X316025000Y-116200000D01*
X276200000Y-83200000D02*
X275600000Y-83200000D01*
X315912500Y-133837500D02*
X313275000Y-131200000D01*
X318266658Y-98400000D02*
X315975000Y-98400000D01*
X318400000Y-151600000D02*
X315925000Y-151600000D01*
X318141316Y-129625000D02*
X318625000Y-129625000D01*
X313275000Y-113450000D02*
X313275000Y-124758684D01*
X313275000Y-82677380D02*
X319077500Y-88479880D01*
X313275000Y-124758684D02*
X318141316Y-129625000D01*
X319077500Y-88479880D02*
X319077500Y-97589158D01*
X319077500Y-150922500D02*
X318400000Y-151600000D01*
X313275000Y-142508684D02*
X318141316Y-147375000D01*
%TO.N,mirror_third_mod*%
X308675000Y-144875000D02*
X311125000Y-147325000D01*
X316975000Y-147325000D02*
X317800000Y-148150000D01*
X317800000Y-150310000D02*
X317800000Y-148150000D01*
X311125000Y-147325000D02*
X316975000Y-147325000D01*
X301725000Y-146750000D02*
X303600000Y-144875000D01*
X303600000Y-144875000D02*
X308675000Y-144875000D01*
%TO.N,mirror_third_bottom*%
X317800000Y-132560000D02*
X317800000Y-130400000D01*
X301725000Y-129000000D02*
X303600000Y-127125000D01*
X316800000Y-129400000D02*
X317800000Y-130400000D01*
X311195001Y-129400000D02*
X316800000Y-129400000D01*
X303600000Y-127125000D02*
X308920001Y-127125000D01*
X308920001Y-127125000D02*
X311195001Y-129400000D01*
%TO.N,mirror_third_home*%
X301725000Y-111250000D02*
X303600000Y-109375000D01*
X311425000Y-111825000D02*
X316975000Y-111825000D01*
X303600000Y-109375000D02*
X308975000Y-109375000D01*
X317800000Y-114810000D02*
X317800000Y-112650000D01*
X316975000Y-111825000D02*
X317800000Y-112650000D01*
X308975000Y-109375000D02*
X311425000Y-111825000D01*
%TO.N,mirror_third_top*%
X311075000Y-94075000D02*
X316975000Y-94075000D01*
X303600000Y-91625000D02*
X308625000Y-91625000D01*
X301725000Y-93500000D02*
X303600000Y-91625000D01*
X317800000Y-97060000D02*
X317800000Y-94900000D01*
X316975000Y-94075000D02*
X317800000Y-94900000D01*
X308625000Y-91625000D02*
X311075000Y-94075000D01*
%TO.N,mirror_third_num*%
X301725000Y-75750000D02*
X303600000Y-73875000D01*
X317800000Y-79310000D02*
X317800000Y-77150000D01*
X316975000Y-76325000D02*
X317800000Y-77150000D01*
X311525000Y-76325000D02*
X316975000Y-76325000D01*
X303600000Y-73875000D02*
X309075000Y-73875000D01*
X309075000Y-73875000D02*
X311525000Y-76325000D01*
%TO.N,P100*%
X300327500Y-101727500D02*
X300327500Y-104872500D01*
X289175000Y-92575000D02*
X292650000Y-92575000D01*
X294525000Y-126200000D02*
X277950900Y-142774100D01*
X288200000Y-91600000D02*
X289175000Y-92575000D01*
X294525000Y-72950000D02*
X294525000Y-77475000D01*
X288000000Y-85200000D02*
X288000000Y-85400000D01*
X292650000Y-92575000D02*
X294525000Y-90700000D01*
X276774100Y-143492216D02*
X276774100Y-144507784D01*
X294800000Y-128400000D02*
X294800000Y-126475000D01*
X294525000Y-72950000D02*
X290400000Y-77075000D01*
X297836000Y-94011000D02*
X297836000Y-99236000D01*
X277950900Y-142774100D02*
X277492216Y-142774100D01*
X294525000Y-77475000D02*
X287400000Y-84600000D01*
X278891316Y-146625000D02*
X291850000Y-146625000D01*
X300327500Y-104872500D02*
X296750000Y-108450000D01*
X277492216Y-142774100D02*
X276774100Y-143492216D01*
X271723350Y-77075000D02*
X269100000Y-79698350D01*
X291850000Y-146625000D02*
X294525000Y-143950000D01*
X296750000Y-108450000D02*
X294525000Y-108450000D01*
X297836000Y-99236000D02*
X300327500Y-101727500D01*
X269100000Y-79698350D02*
X269100000Y-85120000D01*
X287400000Y-84600000D02*
X288000000Y-85200000D01*
X294800000Y-126475000D02*
X294525000Y-126200000D01*
X294525000Y-90700000D02*
X297836000Y-94011000D01*
X276774100Y-144507784D02*
X278891316Y-146625000D01*
X290400000Y-77075000D02*
X271723350Y-77075000D01*
X294525000Y-121325000D02*
X297000000Y-123800000D01*
X294525000Y-108450000D02*
X294525000Y-121325000D01*
%TO.N,mirror_fourth_mod*%
X298100000Y-142200000D02*
X299050000Y-143150000D01*
X299050000Y-145310000D02*
X299050000Y-143150000D01*
X282975000Y-141750000D02*
X285172500Y-139552500D01*
X285172500Y-139552500D02*
X289847501Y-139552500D01*
X292495001Y-142200000D02*
X298100000Y-142200000D01*
X289847501Y-139552500D02*
X292495001Y-142200000D01*
%TO.N,mirror_fourth_bottom*%
X292575000Y-124575000D02*
X298225000Y-124575000D01*
X298225000Y-124575000D02*
X299050000Y-125400000D01*
X299050000Y-127560000D02*
X299050000Y-125400000D01*
X282975000Y-124000000D02*
X284850000Y-122125000D01*
X290125000Y-122125000D02*
X292575000Y-124575000D01*
X284850000Y-122125000D02*
X290125000Y-122125000D01*
%TO.N,mirror_fourth_home*%
X299050000Y-104310000D02*
X299050000Y-102150000D01*
X297310500Y-100410500D02*
X299050000Y-102150000D01*
X282975000Y-106250000D02*
X282975000Y-103541316D01*
X286105816Y-100410500D02*
X297310500Y-100410500D01*
X282975000Y-103541316D02*
X286105816Y-100410500D01*
%TO.N,mirror_fourth_top*%
X282975000Y-88500000D02*
X284850000Y-86625000D01*
X292620001Y-89075000D02*
X298225000Y-89075000D01*
X290170001Y-86625000D02*
X292620001Y-89075000D01*
X299050000Y-92060000D02*
X299050000Y-89900000D01*
X284850000Y-86625000D02*
X290170001Y-86625000D01*
X298225000Y-89075000D02*
X299050000Y-89900000D01*
%TO.N,mirror_fourth_num*%
X290275000Y-68875000D02*
X292725000Y-71325000D01*
X282975000Y-70750000D02*
X284850000Y-68875000D01*
X292725000Y-71325000D02*
X298225000Y-71325000D01*
X299050000Y-74310000D02*
X299050000Y-72150000D01*
X284850000Y-68875000D02*
X290275000Y-68875000D01*
X298225000Y-71325000D02*
X299050000Y-72150000D01*
%TO.N,P011*%
X259633720Y-130974100D02*
X262734620Y-134075000D01*
X270441316Y-116325000D02*
X258024100Y-128742216D01*
X275775000Y-96700000D02*
X273900000Y-98575000D01*
X271640000Y-86123684D02*
X280641316Y-95125000D01*
X270441316Y-98575000D02*
X258024100Y-110992216D01*
X271640000Y-85120000D02*
X271640000Y-86123684D01*
X281125000Y-95125000D02*
X281577500Y-95577500D01*
X258024100Y-130974100D02*
X259633720Y-130974100D01*
X260216316Y-114200000D02*
X269598350Y-114200000D01*
X271723350Y-151825000D02*
X273900000Y-151825000D01*
X275775000Y-80985000D02*
X271640000Y-85120000D01*
X258024100Y-112007784D02*
X260216316Y-114200000D01*
X262734620Y-134075000D02*
X273900000Y-134075000D01*
X281577500Y-98622500D02*
X280862500Y-99337500D01*
X258024100Y-147507784D02*
X261242966Y-150726650D01*
X270441316Y-134075000D02*
X258024100Y-146492216D01*
X273900000Y-116325000D02*
X275775000Y-114450000D01*
X261242966Y-150726650D02*
X270625000Y-150726650D01*
X269598350Y-114200000D02*
X271723350Y-116325000D01*
X258024100Y-128742216D02*
X258024100Y-130974100D01*
X281577500Y-95577500D02*
X281577500Y-98622500D01*
X258024100Y-110992216D02*
X258024100Y-112007784D01*
X270625000Y-150726650D02*
X271723350Y-151825000D01*
X273900000Y-151825000D02*
X275775000Y-149950000D01*
X273900000Y-98575000D02*
X270441316Y-98575000D01*
X273900000Y-134075000D02*
X275775000Y-132200000D01*
X280862500Y-99337500D02*
X278412500Y-99337500D01*
X258024100Y-146492216D02*
X258024100Y-147507784D01*
X271723350Y-116325000D02*
X273900000Y-116325000D01*
X280641316Y-95125000D02*
X281125000Y-95125000D01*
X275775000Y-78950000D02*
X275775000Y-80985000D01*
X273900000Y-134075000D02*
X270441316Y-134075000D01*
X278412500Y-99337500D02*
X275775000Y-96700000D01*
X273900000Y-116325000D02*
X270441316Y-116325000D01*
%TO.N,mirror_fifth_mod*%
X280300000Y-151310000D02*
X280300000Y-149150000D01*
X273870001Y-148325000D02*
X279475000Y-148325000D01*
X264225000Y-147750000D02*
X266347500Y-145627500D01*
X271172501Y-145627500D02*
X273870001Y-148325000D01*
X279475000Y-148325000D02*
X280300000Y-149150000D01*
X266347500Y-145627500D02*
X271172501Y-145627500D01*
%TO.N,mirror_fifth_bottom*%
X280300000Y-128060000D02*
X280300000Y-125900000D01*
X264225000Y-127291316D02*
X267355816Y-124160500D01*
X278560500Y-124160500D02*
X280300000Y-125900000D01*
X264225000Y-130000000D02*
X264225000Y-127291316D01*
X267355816Y-124160500D02*
X278560500Y-124160500D01*
%TO.N,mirror_fifth_home*%
X271022501Y-109977500D02*
X273845001Y-112800000D01*
X266497500Y-109977500D02*
X271022501Y-109977500D01*
X264225000Y-112250000D02*
X266497500Y-109977500D01*
X279450000Y-112800000D02*
X280300000Y-113650000D01*
X280300000Y-115810000D02*
X280300000Y-113650000D01*
X273845001Y-112800000D02*
X279450000Y-112800000D01*
%TO.N,mirror_fifth_top*%
X264225000Y-94500000D02*
X266100000Y-92625000D01*
X271425000Y-92625000D02*
X273875000Y-95075000D01*
X279475000Y-95075000D02*
X280300000Y-95900000D01*
X273875000Y-95075000D02*
X279475000Y-95075000D01*
X266100000Y-92625000D02*
X271425000Y-92625000D01*
X280300000Y-98060000D02*
X280300000Y-95900000D01*
%TO.N,mirror_fifth_num*%
X264225000Y-76750000D02*
X266100000Y-74875000D01*
X280300000Y-74810000D02*
X280300000Y-72650000D01*
X271634501Y-75089500D02*
X274176816Y-75089500D01*
X279424100Y-71774100D02*
X280300000Y-72650000D01*
X266100000Y-74875000D02*
X271420001Y-74875000D01*
X271420001Y-74875000D02*
X271634501Y-75089500D01*
X277492216Y-71774100D02*
X279424100Y-71774100D01*
X274176816Y-75089500D02*
X277492216Y-71774100D01*
%TO.N,P017*%
X257025000Y-117450000D02*
X243850000Y-130625000D01*
X262827500Y-101772500D02*
X262262500Y-102337500D01*
X258024100Y-94424100D02*
X261725000Y-98125000D01*
X257025000Y-83205000D02*
X258940000Y-85120000D01*
X262325000Y-98125000D02*
X262827500Y-98627500D01*
X243850000Y-113815380D02*
X243850000Y-116684620D01*
X255150000Y-154825000D02*
X257025000Y-152950000D01*
X257025000Y-100775000D02*
X248000000Y-109800000D01*
X243850000Y-134450000D02*
X246475000Y-137075000D01*
X243850000Y-130625000D02*
X243850000Y-134450000D01*
X262262500Y-102337500D02*
X259662500Y-102337500D01*
X246475000Y-137075000D02*
X255150000Y-137075000D01*
X261725000Y-98125000D02*
X262325000Y-98125000D01*
X257025000Y-99700000D02*
X257025000Y-100775000D01*
X243850000Y-152250000D02*
X246425000Y-154825000D01*
X243850000Y-116684620D02*
X246490380Y-119325000D01*
X255150000Y-119325000D02*
X257025000Y-117450000D01*
X258024100Y-86035900D02*
X258024100Y-94424100D01*
X259662500Y-102337500D02*
X257025000Y-99700000D01*
X255150000Y-137075000D02*
X257025000Y-135200000D01*
X257025000Y-135200000D02*
X243850000Y-148375000D01*
X246425000Y-154825000D02*
X255150000Y-154825000D01*
X258940000Y-85120000D02*
X258024100Y-86035900D01*
X247865380Y-109800000D02*
X243850000Y-113815380D01*
X243850000Y-148375000D02*
X243850000Y-152250000D01*
X262827500Y-98627500D02*
X262827500Y-101772500D01*
X246490380Y-119325000D02*
X255150000Y-119325000D01*
X257025000Y-81950000D02*
X257025000Y-83205000D01*
X248000000Y-109800000D02*
X247865380Y-109800000D01*
%TO.N,mirror_sixth_mod*%
X255125000Y-151325000D02*
X260725000Y-151325000D01*
X245475000Y-150750000D02*
X247350000Y-148875000D01*
X260725000Y-151325000D02*
X261550000Y-152150000D01*
X252675000Y-148875000D02*
X255125000Y-151325000D01*
X247350000Y-148875000D02*
X252675000Y-148875000D01*
X261550000Y-154310000D02*
X261550000Y-152150000D01*
%TO.N,mirror_sixth_bottom*%
X254048200Y-133200000D02*
X260350000Y-133200000D01*
X247999100Y-130475900D02*
X251324100Y-130475900D01*
X260350000Y-133200000D02*
X261550000Y-134400000D01*
X251324100Y-130475900D02*
X254048200Y-133200000D01*
X245475000Y-133000000D02*
X247999100Y-130475900D01*
X261550000Y-136560000D02*
X261550000Y-134400000D01*
%TO.N,mirror_sixth_home*%
X261550000Y-118810000D02*
X261550000Y-116650000D01*
X251134600Y-112725900D02*
X253808700Y-115400000D01*
X245475000Y-115250000D02*
X247999100Y-112725900D01*
X260300000Y-115400000D02*
X261550000Y-116650000D01*
X247999100Y-112725900D02*
X251134600Y-112725900D01*
X253808700Y-115400000D02*
X260300000Y-115400000D01*
%TO.N,mirror_sixth_top*%
X261550000Y-101060000D02*
X261550000Y-98900000D01*
X260725000Y-98075000D02*
X261550000Y-98900000D01*
X247350000Y-95625000D02*
X252825000Y-95625000D01*
X245475000Y-97500000D02*
X247350000Y-95625000D01*
X252825000Y-95625000D02*
X255275000Y-98075000D01*
X255275000Y-98075000D02*
X260725000Y-98075000D01*
%TO.N,mirror_sixth_num*%
X247822500Y-77402500D02*
X252197501Y-77402500D01*
X245475000Y-79750000D02*
X247822500Y-77402500D01*
X261550000Y-80810000D02*
X261550000Y-78650000D01*
X253445001Y-78650000D02*
X261550000Y-78650000D01*
X252197501Y-77402500D02*
X253445001Y-78650000D01*
%TO.N,P113*%
X299050000Y-137690000D02*
X299050000Y-139850000D01*
X261550000Y-146690000D02*
X261550000Y-148850000D01*
X271200000Y-66200000D02*
X271200000Y-67780000D01*
X336550000Y-149690000D02*
X336550000Y-151850000D01*
X271200000Y-67780000D02*
X269100000Y-69880000D01*
X355300000Y-149690000D02*
X355300000Y-151850000D01*
X280300000Y-143690000D02*
X280300000Y-145850000D01*
X317800000Y-142690000D02*
X317800000Y-144850000D01*
%TO.N,P115*%
X268800000Y-67640000D02*
X266560000Y-69880000D01*
X336550000Y-126440000D02*
X336550000Y-128600000D01*
X355300000Y-131940000D02*
X355300000Y-134100000D01*
X268800000Y-66400000D02*
X268800000Y-67640000D01*
X317800000Y-124940000D02*
X317800000Y-127100000D01*
X299050000Y-119940000D02*
X299050000Y-122100000D01*
X280300000Y-120440000D02*
X280300000Y-122600000D01*
X261550000Y-128940000D02*
X261550000Y-131100000D01*
%TO.N,P002*%
X317800000Y-107190000D02*
X317800000Y-109350000D01*
X299050000Y-96690000D02*
X299050000Y-98850000D01*
X261550000Y-111190000D02*
X261550000Y-113350000D01*
X336550000Y-114190000D02*
X336550000Y-116350000D01*
X287200000Y-83200000D02*
X282200000Y-78200000D01*
X280300000Y-108190000D02*
X280300000Y-110350000D01*
X282200000Y-78200000D02*
X279800000Y-78200000D01*
X355300000Y-114190000D02*
X355300000Y-116350000D01*
%TO.N,P029*%
X317800000Y-89440000D02*
X317800000Y-91600000D01*
X299050000Y-84440000D02*
X299050000Y-86600000D01*
X336550000Y-96440000D02*
X336550000Y-98600000D01*
X280300000Y-90440000D02*
X280300000Y-92600000D01*
X261550000Y-93440000D02*
X261550000Y-95600000D01*
X355300000Y-96440000D02*
X355300000Y-98600000D01*
%TO.N,P031*%
X280300000Y-67190000D02*
X280300000Y-69350000D01*
X355300000Y-78690000D02*
X355300000Y-80850000D01*
X299050000Y-66690000D02*
X299050000Y-68850000D01*
X317800000Y-71690000D02*
X317800000Y-73850000D01*
X336550000Y-73190000D02*
X336550000Y-75350000D01*
X261550000Y-73190000D02*
X261550000Y-75350000D01*
%TO.N,RAW*%
X251400000Y-101250000D02*
X251400000Y-97200000D01*
X247025000Y-105000000D02*
X247650000Y-105000000D01*
X247650000Y-105000000D02*
X251400000Y-101250000D01*
%TO.N,GND*%
X244400000Y-93075000D02*
X243900000Y-93575000D01*
X243900000Y-87900000D02*
X243900000Y-88325000D01*
X244800000Y-87000000D02*
X243900000Y-87900000D01*
X251980000Y-87000000D02*
X244800000Y-87000000D01*
X244400000Y-88825000D02*
X244400000Y-93075000D01*
X253860000Y-85120000D02*
X251980000Y-87000000D01*
X271212500Y-99787500D02*
X269800000Y-101200000D01*
X292962500Y-99787500D02*
X271212500Y-99787500D01*
X243900000Y-88325000D02*
X244400000Y-88825000D01*
X295250000Y-97500000D02*
X292962500Y-99787500D01*
%TO.N,RST*%
X246875000Y-92300000D02*
X245600000Y-93575000D01*
X245600000Y-88325000D02*
X246875000Y-89600000D01*
X247525000Y-88325000D02*
X247600000Y-88400000D01*
X246875000Y-89600000D02*
X246875000Y-92300000D01*
X245600000Y-88325000D02*
X247525000Y-88325000D01*
%TO.N,pos*%
X248400000Y-108000000D02*
X250800000Y-105600000D01*
X247025000Y-108000000D02*
X248400000Y-108000000D01*
%TD*%
M02*
