M48
; DRILL file {KiCad 7.0.8} date 2024 July 17, Wednesday 12:43:30
; FORMAT={-:-/ absolute / inch / decimal}
; #@! TF.CreationDate,2024-07-17T12:43:30-03:00
; #@! TF.GenerationSoftware,Kicad,Pcbnew,7.0.8
; #@! TF.FileFunction,Plated,1,2,PTH
FMAT,2
INCH
; #@! TA.AperFunction,Plated,PTH,ViaDrill
T1C0.0157
; #@! TA.AperFunction,Plated,PTH,ComponentDrill
T2C0.0295
; #@! TA.AperFunction,Plated,PTH,ComponentDrill
T3C0.0390
; #@! TA.AperFunction,Plated,PTH,ComponentDrill
T4C0.0430
%
G90
G05
T1
X9.748Y-3.4803
X9.874Y-4.1575
X9.8976Y-3.8268
X10.1496Y-3.063
X10.5827Y-2.6142
X10.622Y-3.9843
X10.6772Y-2.6063
X10.8504Y-3.2756
X10.9764Y-3.1732
X11.0157Y-3.0787
X11.3071Y-3.2756
X11.3386Y-3.3622
X11.3465Y-3.6063
X11.5669Y-3.1811
X11.6063Y-5.0551
X11.6929Y-4.874
X13.0709Y-5.2205
X13.0709Y-5.3307
T2
X11.624Y-3.7598
X11.624Y-3.8386
T3
X10.2972Y-2.8815
X10.2972Y-3.1815
X10.2972Y-3.6787
X10.2972Y-3.9787
X10.2972Y-4.3776
X10.2972Y-4.6776
X10.2972Y-5.0764
X10.2972Y-5.3764
X10.2972Y-5.7752
X10.2972Y-6.0752
X11.0354Y-2.6453
X11.0354Y-2.9453
X11.0354Y-3.5606
X11.0354Y-3.8606
X11.0354Y-4.2594
X11.0354Y-4.5594
X11.0354Y-4.7417
X11.0354Y-5.0417
X11.0354Y-5.6571
X11.0354Y-5.9571
X11.7736Y-2.6256
X11.7736Y-2.9256
X11.7736Y-3.3244
X11.7736Y-3.6244
X11.7736Y-3.8067
X11.7736Y-4.1067
X11.7736Y-4.722
X11.7736Y-5.022
X11.7736Y-5.4209
X11.7736Y-5.7209
X12.5118Y-2.8224
X12.5118Y-3.1224
X12.5118Y-3.5213
X12.5118Y-3.8213
X12.5118Y-4.2201
X12.5118Y-4.5201
X12.5118Y-4.9189
X12.5118Y-5.2189
X12.5118Y-5.6177
X12.5118Y-5.9177
X13.25Y-2.8815
X13.25Y-3.1815
X13.25Y-3.7969
X13.25Y-4.0969
X13.25Y-4.4957
X13.25Y-4.7957
X13.25Y-4.978
X13.25Y-5.278
X13.25Y-5.8933
X13.25Y-6.1933
X13.9882Y-3.098
X13.9882Y-3.398
X13.9882Y-3.7969
X13.9882Y-4.0969
X13.9882Y-4.4957
X13.9882Y-4.7957
X13.9882Y-5.1945
X13.9882Y-5.4945
X13.9882Y-5.8933
X13.9882Y-6.1933
T4
X9.7945Y-2.7512
X9.7945Y-3.3512
X9.8945Y-2.7512
X9.8945Y-3.3512
X9.9945Y-2.7512
X9.9945Y-3.3512
X10.0945Y-2.7512
X10.0945Y-3.3512
X10.1945Y-2.7512
X10.1945Y-3.3512
X10.2945Y-2.7512
X10.2945Y-3.3512
X10.3945Y-2.7512
X10.3945Y-3.3512
X10.4945Y-2.7512
X10.4945Y-3.3512
X10.5945Y-2.7512
X10.5945Y-3.3512
X10.6945Y-2.7512
X10.6945Y-3.3512
X10.7945Y-2.7512
X10.7945Y-3.3512
X10.8945Y-2.7512
X10.8945Y-3.3512
T0
M30
